STARTFONT 2.3
FONT -FontForge-STIX Two Math-Book-R-Normal--11-110-72-72-P-75-ISO10646-1
SIZE 11 72 72  4
FONTBOUNDINGBOX 45 48 -11 -19
COMMENT "Generated by fontforge, http://fontforge.sourceforge.net"
COMMENT "Copyright 2001-2021 The STIX Fonts Project Authors (https://github.com/stipub/stixfonts)"
STARTPROPERTIES 41
FOUNDRY "FontForge"
FAMILY_NAME "STIX Two Math"
WEIGHT_NAME "Book"
SLANT "R"
SETWIDTH_NAME "Normal"
ADD_STYLE_NAME ""
PIXEL_SIZE 11
POINT_SIZE 110
RESOLUTION_X 72
RESOLUTION_Y 72
SPACING "P"
AVERAGE_WIDTH 75
CHARSET_REGISTRY "ISO10646"
CHARSET_ENCODING "1"
FONTNAME_REGISTRY ""
CHARSET_COLLECTIONS "ASCII ISOLatin1Encoding ISO8859-2 ISO8859-5 ISO8859-7 ISO8859-9 ISO8859-4 ISO10646-1"
BITS_PER_PIXEL 4
FONT_NAME "STIXTwoMath-Regular"
FACE_NAME "STIX Two Math Regular"
COPYRIGHT "Copyright 2001-2021 The STIX Fonts Project Authors (https://github.com/stipub/stixfonts)"
FONT_VERSION "2.12 b168a"
FONT_ASCENT 8
FONT_DESCENT 3
UNDERLINE_POSITION -1
UNDERLINE_THICKNESS 1
X_HEIGHT 5
CAP_HEIGHT 7
RAW_ASCENT 762
RAW_DESCENT 238
NORM_SPACE 3
RELATIVE_WEIGHT 40
RELATIVE_SETWIDTH 50
SUPERSCRIPT_X 0
SUPERSCRIPT_Y 5
SUPERSCRIPT_SIZE 5
SUBSCRIPT_X 0
SUBSCRIPT_Y 2
SUBSCRIPT_SIZE 5
FIGURE_WIDTH 5
AVG_LOWERCASE_WIDTH 53
AVG_UPPERCASE_WIDTH 74
ENDPROPERTIES
CHARS 6611
STARTCHAR space
ENCODING 32
SWIDTH 235 0
DWIDTH 3 0
BBX 1 1 0 0
BITMAP
00
ENDCHAR
STARTCHAR exclam
ENCODING 33
SWIDTH 283 0
DWIDTH 3 0
BBX 2 8 1 0
BITMAP
D1
F1
E0
B0
90
60
50
D2
ENDCHAR
STARTCHAR quotedbl
ENCODING 34
SWIDTH 334 0
DWIDTH 4 0
BBX 4 3 0 6
BITMAP
67C1
64A0
3040
ENDCHAR
STARTCHAR numbersign
ENCODING 35
SWIDTH 702 0
DWIDTH 8 0
BBX 8 8 0 0
BITMAP
00450900
00730900
19C99C91
00902800
00903600
39D9BB70
02807200
04509000
ENDCHAR
STARTCHAR dollar
ENCODING 36
SWIDTH 495 0
DWIDTH 5 0
BBX 5 10 0 -1
BITMAP
007000
19B960
857080
6B8010
0AF500
009D80
2072E0
8170D0
5AB850
007000
ENDCHAR
STARTCHAR percent
ENCODING 37
SWIDTH 692 0
DWIDTH 8 0
BBX 8 8 0 0
BITMAP
09685B30
56053900
7433A100
18447000
000A2750
00469241
0090B060
04408640
ENDCHAR
STARTCHAR ampersand
ENCODING 38
SWIDTH 736 0
DWIDTH 8 0
BBX 8 8 0 0
BITMAP
01968000
03A0A000
00D828A3
069A0650
490D2700
9606C500
9801E703
2DC92CC4
ENDCHAR
STARTCHAR quotesingle
ENCODING 39
SWIDTH 187 0
DWIDTH 2 0
BBX 2 3 0 6
BITMAP
67
64
30
ENDCHAR
STARTCHAR parenleft
ENCODING 40
SWIDTH 357 0
DWIDTH 4 0
BBX 4 10 0 -2
BITMAP
0063
0650
0B00
5800
7600
7600
5800
1B00
0640
0063
ENDCHAR
STARTCHAR parenright
ENCODING 41
SWIDTH 357 0
DWIDTH 4 0
BBX 4 10 0 -2
BITMAP
4500
0650
00B0
0094
0086
0086
0094
00B0
0560
4600
ENDCHAR
STARTCHAR asterisk
ENCODING 42
SWIDTH 410 0
DWIDTH 5 0
BBX 4 5 0 4
BITMAP
0190
778C
18C3
658A
0150
ENDCHAR
STARTCHAR plus
ENCODING 43
SWIDTH 720 0
DWIDTH 8 0
BBX 8 7 0 0
BITMAP
00075000
00075000
00075000
4DDEEDD3
00075000
00075000
00065000
ENDCHAR
STARTCHAR comma
ENCODING 44
SWIDTH 245 0
DWIDTH 3 0
BBX 3 4 0 -2
BITMAP
1400
4F10
0800
2300
ENDCHAR
STARTCHAR hyphen
ENCODING 45
SWIDTH 315 0
DWIDTH 3 0
BBX 3 1 0 3
BITMAP
6CC0
ENDCHAR
STARTCHAR period
ENCODING 46
SWIDTH 245 0
DWIDTH 3 0
BBX 2 2 0 0
BITMAP
15
3D
ENDCHAR
STARTCHAR slash
ENCODING 47
SWIDTH 386 0
DWIDTH 4 0
BBX 4 10 0 -1
BITMAP
0009
0036
0072
0090
0180
0540
0900
0900
3600
7200
ENDCHAR
STARTCHAR zero
ENCODING 48
SWIDTH 495 0
DWIDTH 5 0
BBX 6 8 0 0
BITMAP
077920
4A04A0
8700E0
A600E2
A600E1
8700E0
4A04A0
078A10
ENDCHAR
STARTCHAR one
ENCODING 49
SWIDTH 495 0
DWIDTH 5 0
BBX 5 8 0 0
BITMAP
17D400
00B400
00B400
00B400
00B400
00B400
00B400
16EA40
ENDCHAR
STARTCHAR two
ENCODING 50
SWIDTH 495 0
DWIDTH 5 0
BBX 5 8 0 0
BITMAP
08CC20
4208A0
0005A0
000860
001A00
009100
082060
6FEED0
ENDCHAR
STARTCHAR three
ENCODING 51
SWIDTH 495 0
DWIDTH 5 0
BBX 5 8 0 0
BITMAP
08CC20
230960
000920
02BB10
0008A0
0001D0
010290
3D8710
ENDCHAR
STARTCHAR four
ENCODING 52
SWIDTH 495 0
DWIDTH 5 0
BBX 6 8 0 0
BITMAP
000C30
006D30
026C30
080C30
620C30
CDDFD4
000C30
000C30
ENDCHAR
STARTCHAR five
ENCODING 53
SWIDTH 495 0
DWIDTH 5 0
BBX 5 8 0 0
BITMAP
05EEA0
071110
0CD800
013B80
0001D0
0000C0
010280
3D9700
ENDCHAR
STARTCHAR six
ENCODING 54
SWIDTH 495 0
DWIDTH 5 0
BBX 5 8 0 0
BITMAP
006940
07A000
1E1000
6B9B30
7B04C0
6800E0
3B01D0
077840
ENDCHAR
STARTCHAR seven
ENCODING 55
SWIDTH 495 0
DWIDTH 5 0
BBX 6 8 0 0
BITMAP
3EEEE1
6312A0
000460
000A10
001A00
006600
00B100
02B000
ENDCHAR
STARTCHAR eight
ENCODING 56
SWIDTH 495 0
DWIDTH 5 0
BBX 5 8 0 0
BITMAP
086820
480390
3C1560
08D800
08CF40
5907C0
6601C0
185740
ENDCHAR
STARTCHAR nine
ENCODING 57
SWIDTH 495 0
DWIDTH 5 0
BBX 5 8 0 0
BITMAP
096920
680490
8601D0
6A04E0
09B8D0
000790
002D20
079200
ENDCHAR
STARTCHAR colon
ENCODING 58
SWIDTH 245 0
DWIDTH 3 0
BBX 2 6 0 0
BITMAP
15
3D
00
00
15
3D
ENDCHAR
STARTCHAR semicolon
ENCODING 59
SWIDTH 245 0
DWIDTH 3 0
BBX 3 8 0 -2
BITMAP
1500
3D00
0000
0000
1400
4F10
0800
2300
ENDCHAR
STARTCHAR less
ENCODING 60
SWIDTH 720 0
DWIDTH 8 0
BBX 8 7 0 -1
BITMAP
000003A2
0004A810
04B81000
18B40000
0018B400
000017B1
00000011
ENDCHAR
STARTCHAR equal
ENCODING 61
SWIDTH 720 0
DWIDTH 8 0
BBX 8 4 0 1
BITMAP
4CCCCCC3
00000000
00000000
4CCCCCC3
ENDCHAR
STARTCHAR greater
ENCODING 62
SWIDTH 720 0
DWIDTH 8 0
BBX 7 7 0 -1
BITMAP
2A300000
029A3000
00029A40
00004B80
005B7100
2B710000
10000000
ENDCHAR
STARTCHAR question
ENCODING 63
SWIDTH 411 0
DWIDTH 5 0
BBX 5 8 0 0
BITMAP
398800
940C30
320D10
003900
009100
006000
013000
04B000
ENDCHAR
STARTCHAR at
ENCODING 64
SWIDTH 905 0
DWIDTH 10 0
BBX 10 10 0 -2
BITMAP
0017888200
02A2001A30
0A227671B0
2A0B12D092
572A00D074
484A00D083
2A2C03D0A1
0B29B6AB50
03B3000200
0028A98400
ENDCHAR
STARTCHAR A
ENCODING 65
SWIDTH 718 0
DWIDTH 8 0
BBX 8 8 0 0
BITMAP
00085000
000DB000
0056F200
00A1B800
01906D00
07A78F40
0B0009B0
8C201AF7
ENDCHAR
STARTCHAR B
ENCODING 66
SWIDTH 618 0
DWIDTH 7 0
BBX 7 8 0 0
BITMAP
4DB8B600
08702F00
08703E00
08B9C300
08702B10
08700C50
08700D40
4DB69800
ENDCHAR
STARTCHAR C
ENCODING 67
SWIDTH 670 0
DWIDTH 7 0
BBX 7 8 0 0
BITMAP
01999EB0
0B5003A0
3D000060
6B000000
6B000000
3E000000
0C800170
01ACB910
ENDCHAR
STARTCHAR D
ENCODING 68
SWIDTH 730 0
DWIDTH 8 0
BBX 8 8 0 0
BITMAP
3CB89910
087007C0
087000E4
087000B7
087000B6
087000D4
087005C0
3CB79910
ENDCHAR
STARTCHAR E
ENCODING 69
SWIDTH 626 0
DWIDTH 7 0
BBX 7 8 0 0
BITMAP
4DB88D30
08700220
08701500
08B7B500
08701400
08700030
08700270
4CB89D50
ENDCHAR
STARTCHAR F
ENCODING 70
SWIDTH 588 0
DWIDTH 6 0
BBX 7 8 0 0
BITMAP
4DC89C40
08700130
08702500
08B7C500
08702400
08700000
08700000
4CC40000
ENDCHAR
STARTCHAR G
ENCODING 71
SWIDTH 720 0
DWIDTH 8 0
BBX 8 8 0 0
BITMAP
01999EB0
0B5002A0
3D000060
6B000000
6B0018A3
4D0004C0
0C6003C0
02AA8A50
ENDCHAR
STARTCHAR H
ENCODING 72
SWIDTH 777 0
DWIDTH 9 0
BBX 9 8 0 0
BITMAP
3BD405EA20
069000C400
069000C400
06C777D400
069000C400
069000C400
06A000C400
2BD405EA20
ENDCHAR
STARTCHAR I
ENCODING 73
SWIDTH 357 0
DWIDTH 4 0
BBX 4 8 0 0
BITMAP
4DC3
0870
0870
0870
0870
0870
0870
4DC3
ENDCHAR
STARTCHAR J
ENCODING 74
SWIDTH 396 0
DWIDTH 4 0
BBX 5 8 0 0
BITMAP
07F910
00E200
00E200
00E200
00E200
00E200
60E100
B88000
ENDCHAR
STARTCHAR K
ENCODING 75
SWIDTH 702 0
DWIDTH 8 0
BBX 8 8 0 0
BITMAP
4DC33F91
08705700
08737000
08A80000
08AD3000
0874D200
08706D10
4CC33ED4
ENDCHAR
STARTCHAR L
ENCODING 76
SWIDTH 585 0
DWIDTH 6 0
BBX 7 8 0 0
BITMAP
3DC40000
08700000
08700000
08700000
08700000
08700110
08700720
3CC89E00
ENDCHAR
STARTCHAR M
ENCODING 77
SWIDTH 895 0
DWIDTH 10 0
BBX 10 8 0 0
BITMAP
4DC0000EB2
09E2005D60
0898009960
083D017960
080C472960
0807A90960
0801E60960
4D60913DB2
ENDCHAR
STARTCHAR N
ENCODING 78
SWIDTH 742 0
DWIDTH 8 0
BBX 8 8 0 0
BITMAP
5E8005E6
09E40090
086D1080
080A9080
0801E580
08004E90
080008D0
4E6000A0
ENDCHAR
STARTCHAR O
ENCODING 79
SWIDTH 738 0
DWIDTH 8 0
BBX 8 8 0 0
BITMAP
01999A20
0B6004D1
3E0000C5
6C000098
6C0000A8
3E0000C5
0C5003C0
01988920
ENDCHAR
STARTCHAR P
ENCODING 80
SWIDTH 569 0
DWIDTH 6 0
BBX 6 8 0 0
BITMAP
3CB8B4
08704D
08702E
087069
08B870
087000
087000
3CC300
ENDCHAR
STARTCHAR Q
ENCODING 81
SWIDTH 737 0
DWIDTH 8 0
BBX 8 10 0 -2
BITMAP
01999A20
0B6004D0
3E0000C5
6B000098
6B0000A8
4D0000B5
0C4002D0
02A88A20
0001C910
00001796
ENDCHAR
STARTCHAR R
ENCODING 82
SWIDTH 659 0
DWIDTH 7 0
BBX 8 8 0 0
BITMAP
3DB8A400
08704D00
08702F00
08707900
08BC8000
0873D100
08708B00
3CC30CA2
ENDCHAR
STARTCHAR S
ENCODING 83
SWIDTH 504 0
DWIDTH 6 0
BBX 6 8 0 0
BITMAP
198BC0
6800A0
5D1030
0AE500
005E90
4002F2
8200E1
8D8960
ENDCHAR
STARTCHAR T
ENCODING 84
SWIDTH 603 0
DWIDTH 7 0
BBX 7 8 0 0
BITMAP
BAAE9C60
703C0160
103C0010
003C0000
003C0000
003C0000
003D0000
019F6000
ENDCHAR
STARTCHAR U
ENCODING 85
SWIDTH 752 0
DWIDTH 8 0
BBX 8 8 0 0
BITMAP
5EB204D9
0B500091
0B500091
0B500091
0B500091
0A600090
06B00190
009CBA20
ENDCHAR
STARTCHAR V
ENCODING 86
SWIDTH 680 0
DWIDTH 7 0
BBX 9 8 -1 0
BITMAP
1AF7006E40
01E4003700
0089008100
003E109000
000C545000
0006B80000
0001E70000
0000930000
ENDCHAR
STARTCHAR W
ENCODING 87
SWIDTH 944 0
DWIDTH 10 0
BBX 12 8 -1 0
BITMAP
1AF52CD308D3
01E304C00450
009800F30810
004D04C80800
000D483D2600
0008A70DA100
0002F308C000
000090027000
ENDCHAR
STARTCHAR X
ENCODING 88
SWIDTH 664 0
DWIDTH 7 0
BBX 8 8 0 0
BITMAP
5EB12D81
05D02800
00B68100
002E4000
003C9000
0091E400
08206D00
7D206FA1
ENDCHAR
STARTCHAR Y
ENCODING 89
SWIDTH 647 0
DWIDTH 7 0
BBX 8 8 0 0
BITMAP
9F701B91
0A800900
02E25300
008A8000
001F3000
000E1000
000E2000
007F9100
ENDCHAR
STARTCHAR Z
ENCODING 90
SWIDTH 594 0
DWIDTH 7 0
BBX 7 8 0 0
BITMAP
4E99BE10
5300C600
1006C000
002E3000
00A80000
05D10110
1D400620
8E999E00
ENDCHAR
STARTCHAR bracketleft
ENCODING 91
SWIDTH 349 0
DWIDTH 4 0
BBX 3 12 1 -3
BITMAP
A620
D000
D000
D000
D000
D000
D000
D000
D000
D000
D000
E620
ENDCHAR
STARTCHAR backslash
ENCODING 92
SWIDTH 385 0
DWIDTH 4 0
BBX 4 10 0 -1
BITMAP
7200
3600
0900
0800
0540
0180
0090
0072
0036
0009
ENDCHAR
STARTCHAR bracketright
ENCODING 93
SWIDTH 349 0
DWIDTH 4 0
BBX 3 12 0 -3
BITMAP
3690
00D0
00D0
00D0
00D0
00D0
00D0
00D0
00D0
00D0
00D0
36D0
ENDCHAR
STARTCHAR asciicircum
ENCODING 94
SWIDTH 480 0
DWIDTH 5 0
BBX 5 5 0 4
BITMAP
006000
02B600
082900
190640
630090
ENDCHAR
STARTCHAR underscore
ENCODING 95
SWIDTH 512 0
DWIDTH 6 0
BBX 6 1 0 -2
BITMAP
BBBBB7
ENDCHAR
STARTCHAR grave
ENCODING 96
SWIDTH 222 0
DWIDTH 2 0
BBX 2 2 0 6
BITMAP
78
09
ENDCHAR
STARTCHAR a
ENCODING 97
SWIDTH 480 0
DWIDTH 5 0
BBX 6 6 0 0
BITMAP
186A00
470B30
005C30
2A2A30
870B30
4D99A1
ENDCHAR
STARTCHAR b
ENCODING 98
SWIDTH 522 0
DWIDTH 6 0
BBX 6 9 0 0
BITMAP
8B0000
2C0000
2C0000
2C8D80
2D11E2
2C00B5
2C00A4
2C00C1
1C8840
ENDCHAR
STARTCHAR c
ENCODING 99
SWIDTH 446 0
DWIDTH 5 0
BBX 5 6 0 0
BITMAP
077C30
560650
840000
950000
6B0150
0AEB10
ENDCHAR
STARTCHAR d
ENCODING 100
SWIDTH 539 0
DWIDTH 6 0
BBX 6 9 0 0
BITMAP
0007C0
0001D0
0001D0
078AD0
4802D0
8501D0
9601D0
6A02D0
0CD7E4
ENDCHAR
STARTCHAR e
ENCODING 101
SWIDTH 464 0
DWIDTH 5 0
BBX 5 6 0 0
BITMAP
088A10
560770
9A8980
950000
5C1050
09EB20
ENDCHAR
STARTCHAR f
ENCODING 102
SWIDTH 307 0
DWIDTH 3 0
BBX 5 9 0 0
BITMAP
038C10
0B1300
0D0000
6E8300
0D0000
0D0000
0D0000
0D1000
5F8100
ENDCHAR
STARTCHAR g
ENCODING 103
SWIDTH 484 0
DWIDTH 5 0
BBX 6 9 0 -3
BITMAP
097EA2
590770
5A0860
097700
470000
4FED80
4301A1
A30090
5DA830
ENDCHAR
STARTCHAR h
ENCODING 104
SWIDTH 577 0
DWIDTH 6 0
BBX 7 9 0 0
BITMAP
6E000000
0E000000
0E000000
0E6CB000
0E30C300
0E009400
0E009400
0E009400
4F62C910
ENDCHAR
STARTCHAR i
ENCODING 105
SWIDTH 285 0
DWIDTH 3 0
BBX 3 8 0 0
BITMAP
0D20
0400
4E00
0D00
0D00
0D00
0D00
4F60
ENDCHAR
STARTCHAR j
ENCODING 106
SWIDTH 263 0
DWIDTH 3 0
BBX 4 11 -1 -3
BITMAP
00D1
0040
05E0
00E0
00E0
00E0
00E0
00E0
00D0
40C0
C950
ENDCHAR
STARTCHAR k
ENCODING 107
SWIDTH 542 0
DWIDTH 6 0
BBX 6 9 0 0
BITMAP
5E0000
0E0000
0E0000
0E08B3
0E1800
0EB100
0E8A00
0E0B70
4F64F7
ENDCHAR
STARTCHAR l
ENCODING 108
SWIDTH 283 0
DWIDTH 3 0
BBX 3 9 0 0
BITMAP
5E00
0E00
0E00
0E00
0E00
0E00
0E00
0E00
4F60
ENDCHAR
STARTCHAR m
ENCODING 109
SWIDTH 852 0
DWIDTH 9 0
BBX 10 6 0 0
BITMAP
4E4AB5AC10
0D30C50A40
0D00B30950
0D00B30950
0D00B30950
4F63D92CA1
ENDCHAR
STARTCHAR n
ENCODING 110
SWIDTH 576 0
DWIDTH 6 0
BBX 7 6 0 0
BITMAP
5E5BB000
0D30C300
0D009400
0D009400
0D009400
4F62DA10
ENDCHAR
STARTCHAR o
ENCODING 111
SWIDTH 514 0
DWIDTH 6 0
BBX 6 6 0 0
BITMAP
087940
5901D1
9600C3
8700B3
5A00D1
087840
ENDCHAR
STARTCHAR p
ENCODING 112
SWIDTH 537 0
DWIDTH 6 0
BBX 6 9 0 -3
BITMAP
5D6DA0
0E20C4
0E0087
0E0087
0E00A2
0E9860
0E0000
0E0000
5F8000
ENDCHAR
STARTCHAR q
ENCODING 113
SWIDTH 521 0
DWIDTH 6 0
BBX 6 9 0 -3
BITMAP
0789B0
4802D0
8501D0
9601D0
7B02D0
1BD8D0
0001D0
0001D0
0008E4
ENDCHAR
STARTCHAR r
ENCODING 114
SWIDTH 380 0
DWIDTH 4 0
BBX 5 6 0 0
BITMAP
4E5E10
0D4400
0D0000
0D0000
0D1000
4F7000
ENDCHAR
STARTCHAR s
ENCODING 115
SWIDTH 395 0
DWIDTH 4 0
BBX 4 6 0 0
BITMAP
3979
8506
4E70
13CA
700E
7878
ENDCHAR
STARTCHAR t
ENCODING 116
SWIDTH 315 0
DWIDTH 3 0
BBX 4 8 0 0
BITMAP
0300
1C00
4E81
0E00
0E00
0E00
0E00
0BA2
ENDCHAR
STARTCHAR u
ENCODING 117
SWIDTH 570 0
DWIDTH 6 0
BBX 6 6 0 0
BITMAP
6D04D3
0E00B3
0E00B3
0E00B3
0E10D3
08C8B8
ENDCHAR
STARTCHAR v
ENCODING 118
SWIDTH 481 0
DWIDTH 5 0
BBX 7 6 -1 0
BITMAP
1BC13D30
03C01800
00C25300
00778000
002C6000
000C2000
ENDCHAR
STARTCHAR w
ENCODING 119
SWIDTH 749 0
DWIDTH 8 0
BBX 10 6 -1 0
BITMAP
1BC1AD13D2
03D02D0170
00C35D3620
0078768700
002D61D600
000C10B100
ENDCHAR
STARTCHAR x
ENCODING 120
SWIDTH 479 0
DWIDTH 5 0
BBX 6 6 0 0
BITMAP
7F37A1
0A5700
02D400
02B800
081D30
980BC2
ENDCHAR
STARTCHAR y
ENCODING 121
SWIDTH 483 0
DWIDTH 5 0
BBX 7 9 -1 -3
BITMAP
1BC13D30
03D01700
00C35300
00697000
001D6000
000A3000
00080000
01270000
0CB10000
ENDCHAR
STARTCHAR z
ENCODING 122
SWIDTH 458 0
DWIDTH 5 0
BBX 5 6 0 0
BITMAP
7A8D70
503D10
00B500
05B000
1D2070
8D8A90
ENDCHAR
STARTCHAR braceleft
ENCODING 123
SWIDTH 327 0
DWIDTH 4 0
BBX 4 12 0 -3
BITMAP
0271
0C00
0C00
0C00
0B00
2900
7500
0B00
0C00
0C00
0C00
0671
ENDCHAR
STARTCHAR bar
ENCODING 124
SWIDTH 267 0
DWIDTH 3 0
BBX 1 12 1 -3
BITMAP
90
90
90
90
90
90
90
90
90
90
90
90
ENDCHAR
STARTCHAR braceright
ENCODING 125
SWIDTH 327 0
DWIDTH 4 0
BBX 4 12 0 -3
BITMAP
3600
0660
0480
0670
0650
0381
0193
0550
0660
0570
0580
3920
ENDCHAR
STARTCHAR asciitilde
ENCODING 126
SWIDTH 557 0
DWIDTH 6 0
BBX 6 2 0 2
BITMAP
1BB549
7319C2
ENDCHAR
STARTCHAR uni00A0
ENCODING 160
SWIDTH 235 0
DWIDTH 3 0
BBX 1 1 0 0
BITMAP
00
ENDCHAR
STARTCHAR exclamdown
ENCODING 161
SWIDTH 282 0
DWIDTH 3 0
BBX 2 9 1 -3
BITMAP
D2
50
50
80
A0
D0
E1
F2
D1
ENDCHAR
STARTCHAR cent
ENCODING 162
SWIDTH 495 0
DWIDTH 5 0
BBX 5 9 0 -1
BITMAP
004300
049B50
295580
666200
786100
3D9160
07EC20
007000
003000
ENDCHAR
STARTCHAR sterling
ENCODING 163
SWIDTH 495 0
DWIDTH 5 0
BBX 6 8 0 0
BITMAP
008AB0
056050
077000
3BC810
05A000
039000
598032
779D80
ENDCHAR
STARTCHAR currency
ENCODING 164
SWIDTH 617 0
DWIDTH 7 0
BBX 7 7 0 0
BITMAP
42000420
1BAA9A00
09103800
09000A00
09305700
3A8A7A10
21000210
ENDCHAR
STARTCHAR yen
ENCODING 165
SWIDTH 495 0
DWIDTH 5 0
BBX 6 8 0 0
BITMAP
8A2293
3E1170
0B7620
03D700
18EB60
18DA60
00B500
04EA10
ENDCHAR
STARTCHAR brokenbar
ENCODING 166
SWIDTH 267 0
DWIDTH 3 0
BBX 1 9 1 0
BITMAP
90
90
90
60
00
60
90
90
90
ENDCHAR
STARTCHAR section
ENCODING 167
SWIDTH 491 0
DWIDTH 5 0
BBX 5 11 0 -3
BITMAP
046820
0B0660
0A6100
03E600
073E30
1B0570
0C6170
02D800
012D10
290830
085700
ENDCHAR
STARTCHAR dieresis
ENCODING 168
SWIDTH 392 0
DWIDTH 4 0
BBX 4 2 0 6
BITMAP
862C
1001
ENDCHAR
STARTCHAR copyright
ENCODING 169
SWIDTH 781 0
DWIDTH 9 0
BBX 8 9 0 0
BITMAP
00366610
04400171
06286B06
42830506
51A30006
42870206
061AB606
04400071
00366610
ENDCHAR
STARTCHAR ordfeminine
ENCODING 170
SWIDTH 410 0
DWIDTH 5 0
BBX 5 4 0 3
BITMAP
388500
126900
573900
6B6C20
ENDCHAR
STARTCHAR guillemotleft
ENCODING 171
SWIDTH 517 0
DWIDTH 6 0
BBX 5 5 0 0
BITMAP
015060
1A1840
773C00
083570
004040
ENDCHAR
STARTCHAR logicalnot
ENCODING 172
SWIDTH 720 0
DWIDTH 8 0
BBX 7 5 0 0
BITMAP
4DDDDDE0
000000C0
000000C0
000000C0
00000050
ENDCHAR
STARTCHAR uni00AD
ENCODING 173
SWIDTH 315 0
DWIDTH 3 0
BBX 3 1 0 3
BITMAP
6CC0
ENDCHAR
STARTCHAR registered
ENCODING 174
SWIDTH 413 0
DWIDTH 5 0
BBX 5 5 0 4
BITMAP
034200
354400
468210
365600
044200
ENDCHAR
STARTCHAR macron
ENCODING 175
SWIDTH 350 0
DWIDTH 4 0
BBX 4 1 0 7
BITMAP
8BB6
ENDCHAR
STARTCHAR degree
ENCODING 176
SWIDTH 409 0
DWIDTH 5 0
BBX 4 4 0 5
BITMAP
0893
5509
5509
0894
ENDCHAR
STARTCHAR plusminus
ENCODING 177
SWIDTH 720 0
DWIDTH 8 0
BBX 8 8 0 0
BITMAP
00043000
00065000
00065000
4CCDDCC3
00065000
00065000
00022000
4CCCCCC3
ENDCHAR
STARTCHAR twosuperior
ENCODING 178
SWIDTH 373 0
DWIDTH 4 0
BBX 4 5 0 3
BITMAP
39C4
1049
0082
0622
8CBA
ENDCHAR
STARTCHAR threesuperior
ENCODING 179
SWIDTH 374 0
DWIDTH 4 0
BBX 4 5 0 3
BITMAP
39C2
1083
06B3
003A
6773
ENDCHAR
STARTCHAR acute
ENCODING 180
SWIDTH 222 0
DWIDTH 2 0
BBX 3 2 0 6
BITMAP
2D10
7300
ENDCHAR
STARTCHAR uni00B5
ENCODING 181
SWIDTH 556 0
DWIDTH 6 0
BBX 6 9 0 -3
BITMAP
3C00E0
3A00C0
2800A0
270490
3B07A1
5AD4BA
650000
770000
430000
ENDCHAR
STARTCHAR paragraph
ENCODING 182
SWIDTH 605 0
DWIDTH 7 0
BBX 6 10 0 -2
BITMAP
088CD8
4929B0
5829B0
3A29B0
0779B0
0029B0
0029B0
0029B0
0029B0
0198B7
ENDCHAR
STARTCHAR periodcentered
ENCODING 183
SWIDTH 282 0
DWIDTH 3 0
BBX 2 3 1 2
BITMAP
10
F2
30
ENDCHAR
STARTCHAR cedilla
ENCODING 184
SWIDTH 247 0
DWIDTH 3 0
BBX 3 4 0 -3
BITMAP
0200
2910
0550
4810
ENDCHAR
STARTCHAR onesuperior
ENCODING 185
SWIDTH 343 0
DWIDTH 4 0
BBX 4 5 0 3
BITMAP
3A50
0750
0750
0750
2B91
ENDCHAR
STARTCHAR ordmasculine
ENCODING 186
SWIDTH 432 0
DWIDTH 5 0
BBX 5 4 0 3
BITMAP
286900
840850
940850
296800
ENDCHAR
STARTCHAR guillemotright
ENCODING 187
SWIDTH 517 0
DWIDTH 6 0
BBX 6 5 0 0
BITMAP
340600
084480
02D0C3
092750
310400
ENDCHAR
STARTCHAR onequarter
ENCODING 188
SWIDTH 861 0
DWIDTH 9 0
BBX 10 10 0 -1
BITMAP
0100004200
3C30009000
0930053000
0930080010
0930630960
2971804860
0006216560
001807CDD2
0072000560
0030000110
ENDCHAR
STARTCHAR onehalf
ENCODING 189
SWIDTH 889 0
DWIDTH 10 0
BBX 10 9 0 0
BITMAP
0100004200
3C30008000
0930063000
0930180000
0930725A90
29727010A4
00081001A0
0036001714
007000BBC4
ENDCHAR
STARTCHAR threequarters
ENCODING 190
SWIDTH 861 0
DWIDTH 9 0
BBX 10 10 0 -1
BITMAP
0000004200
2AB2009000
3084053000
07B2080000
2049630860
5972804760
0006216560
001807CDD2
0072000560
0030000110
ENDCHAR
STARTCHAR questiondown
ENCODING 191
SWIDTH 411 0
DWIDTH 5 0
BBX 5 9 0 -3
BITMAP
03C000
014000
005000
036000
0A1000
490000
950810
960A30
2A7800
ENDCHAR
STARTCHAR Agrave
ENCODING 192
SWIDTH 718 0
DWIDTH 8 0
BBX 8 11 0 0
BITMAP
00270000
00057000
00000000
00085000
000DB000
0056F200
00A1B800
01906D00
07A78F40
0B0009B0
8C201AF7
ENDCHAR
STARTCHAR Aacute
ENCODING 193
SWIDTH 718 0
DWIDTH 8 0
BBX 8 11 0 0
BITMAP
00027000
00093000
00000000
00085000
000DB000
0056F200
00A1B800
01906D00
07A78F40
0B0009B0
8C201AF7
ENDCHAR
STARTCHAR Acircumflex
ENCODING 194
SWIDTH 718 0
DWIDTH 8 0
BBX 8 11 0 0
BITMAP
00054000
00468200
00000000
00085000
000DB000
0056F200
00A1B800
01906D00
07A78F40
0B0009B0
8C201AF7
ENDCHAR
STARTCHAR Atilde
ENCODING 195
SWIDTH 718 0
DWIDTH 8 0
BBX 8 10 0 0
BITMAP
006BB500
00000000
00085000
000DB000
0056F200
00A1B800
01906D00
07A78F40
0B0009B0
8C201AF7
ENDCHAR
STARTCHAR Adieresis
ENCODING 196
SWIDTH 718 0
DWIDTH 8 0
BBX 8 10 0 0
BITMAP
00D36900
00201100
00085000
000DB000
0056F200
00A1B800
01906D00
07A78F40
0B0009B0
8C201AF7
ENDCHAR
STARTCHAR Aring
ENCODING 197
SWIDTH 718 0
DWIDTH 8 0
BBX 8 11 0 0
BITMAP
00076000
00358000
00076000
00085000
000DB000
0056F200
00A1B800
01906D00
07A78F40
0B0009B0
8C201AF7
ENDCHAR
STARTCHAR AE
ENCODING 198
SWIDTH 894 0
DWIDTH 10 0
BBX 11 8 -1 0
BITMAP
00008EC88D20
000078800320
000187801400
000727804400
001C8BC8C400
007407800040
019007800360
1BA13CC89E40
ENDCHAR
STARTCHAR Ccedilla
ENCODING 199
SWIDTH 670 0
DWIDTH 7 0
BBX 7 11 0 -3
BITMAP
01999EB0
0B5003A0
3D000060
6B000000
6B000000
3E000000
0C800170
01AFB910
00067000
0000A000
00076000
ENDCHAR
STARTCHAR Egrave
ENCODING 200
SWIDTH 626 0
DWIDTH 7 0
BBX 7 11 0 0
BITMAP
00450000
00093000
00000000
4DB88D30
08700220
08701500
08B7B500
08701400
08700030
08700270
4CB89D50
ENDCHAR
STARTCHAR Eacute
ENCODING 201
SWIDTH 626 0
DWIDTH 7 0
BBX 7 11 0 0
BITMAP
00045000
00391000
00000000
4DB88D30
08700220
08701500
08B7B500
08701400
08700030
08700270
4CB89D50
ENDCHAR
STARTCHAR Ecircumflex
ENCODING 202
SWIDTH 626 0
DWIDTH 7 0
BBX 7 11 0 0
BITMAP
00171000
00858000
00000000
4DB88D30
08700220
08701500
08B7B500
08701400
08700030
08700270
4CB89D50
ENDCHAR
STARTCHAR Edieresis
ENCODING 203
SWIDTH 626 0
DWIDTH 7 0
BBX 7 10 0 0
BITMAP
03C0C400
00202000
4DB88D30
08700220
08701500
08B7B500
08701400
08700030
08700270
4CB89D50
ENDCHAR
STARTCHAR Igrave
ENCODING 204
SWIDTH 357 0
DWIDTH 4 0
BBX 4 11 0 0
BITMAP
1710
0480
0000
4DC3
0870
0870
0870
0870
0870
0870
4DC3
ENDCHAR
STARTCHAR Iacute
ENCODING 205
SWIDTH 357 0
DWIDTH 4 0
BBX 4 11 0 0
BITMAP
0171
0930
0000
4DC3
0870
0870
0870
0870
0870
0870
4DC3
ENDCHAR
STARTCHAR Icircumflex
ENCODING 206
SWIDTH 357 0
DWIDTH 4 0
BBX 4 11 0 0
BITMAP
0540
4773
0000
4DC3
0870
0870
0870
0870
0870
0870
4DC3
ENDCHAR
STARTCHAR Idieresis
ENCODING 207
SWIDTH 357 0
DWIDTH 4 0
BBX 4 10 0 0
BITMAP
B45B
2002
4DC3
0870
0870
0870
0870
0870
0870
4DC3
ENDCHAR
STARTCHAR Eth
ENCODING 208
SWIDTH 737 0
DWIDTH 8 0
BBX 8 8 0 0
BITMAP
3CB89910
078007D0
078000D5
5CC940B8
078000A7
078000C5
078004D0
3CB78910
ENDCHAR
STARTCHAR Ntilde
ENCODING 209
SWIDTH 742 0
DWIDTH 8 0
BBX 8 10 0 0
BITMAP
003BB800
00000000
5E8005E6
09E40090
086D1080
080A9080
0801E580
08004E90
080008D0
4E6000A0
ENDCHAR
STARTCHAR Ograve
ENCODING 210
SWIDTH 738 0
DWIDTH 8 0
BBX 8 11 0 0
BITMAP
00171000
00039000
00000000
01999A20
0B6004D1
3E0000C5
6C000098
6C0000A8
3E0000C5
0C5003C0
01988920
ENDCHAR
STARTCHAR Oacute
ENCODING 211
SWIDTH 738 0
DWIDTH 8 0
BBX 8 11 0 0
BITMAP
00007100
00084000
00000000
01999A20
0B6004D1
3E0000C5
6C000098
6C0000A8
3E0000C5
0C5003C0
01988920
ENDCHAR
STARTCHAR Ocircumflex
ENCODING 212
SWIDTH 738 0
DWIDTH 8 0
BBX 8 11 0 0
BITMAP
00045000
00387400
00000000
01999A20
0B6004D1
3E0000C5
6C000098
6C0000A8
3E0000C5
0C5003C0
01988920
ENDCHAR
STARTCHAR Otilde
ENCODING 213
SWIDTH 738 0
DWIDTH 8 0
BBX 8 10 0 0
BITMAP
004BB600
00000000
01999A20
0B6004D1
3E0000C5
6C000098
6C0000A8
3E0000C5
0C5003C0
01988920
ENDCHAR
STARTCHAR Odieresis
ENCODING 214
SWIDTH 738 0
DWIDTH 8 0
BBX 8 10 0 0
BITMAP
00A54C00
00210200
01999A20
0B6004D1
3E0000C5
6C000098
6C0000A8
3E0000C5
0C5003C0
01988920
ENDCHAR
STARTCHAR multiply
ENCODING 215
SWIDTH 720 0
DWIDTH 8 0
BBX 6 7 1 -1
BITMAP
A1001A
4B11B3
04BB30
01CC10
1B34B1
B3004B
100001
ENDCHAR
STARTCHAR Oslash
ENCODING 216
SWIDTH 737 0
DWIDTH 8 0
BBX 8 8 0 0
BITMAP
01999970
0B5008C0
3D0044D5
6B0170A8
6B0800A8
3D6200C5
0C7003C0
08988920
ENDCHAR
STARTCHAR Ugrave
ENCODING 217
SWIDTH 752 0
DWIDTH 8 0
BBX 8 11 0 0
BITMAP
00054000
00019200
00000000
5EB204D9
0B500091
0B500091
0B500091
0B500091
0A600090
06B00190
009CBA20
ENDCHAR
STARTCHAR Uacute
ENCODING 218
SWIDTH 752 0
DWIDTH 8 0
BBX 8 11 0 0
BITMAP
00005400
00048000
00000000
5EB204D9
0B500091
0B500091
0B500091
0B500091
0A600090
06B00190
009CBA20
ENDCHAR
STARTCHAR Ucircumflex
ENCODING 219
SWIDTH 752 0
DWIDTH 8 0
BBX 8 11 0 0
BITMAP
00027000
00085700
00000000
5EB204D9
0B500091
0B500091
0B500091
0B500091
0A600090
06B00190
009CBA20
ENDCHAR
STARTCHAR Udieresis
ENCODING 220
SWIDTH 752 0
DWIDTH 8 0
BBX 8 10 0 0
BITMAP
005A0E20
00120200
5EB204D9
0B500091
0B500091
0B500091
0B500091
0A600090
06B00190
009CBA20
ENDCHAR
STARTCHAR Yacute
ENCODING 221
SWIDTH 647 0
DWIDTH 7 0
BBX 8 11 0 0
BITMAP
00036000
001A2000
00000000
9F701B91
0A800900
02E25300
008A8000
001F3000
000E1000
000E2000
007F9100
ENDCHAR
STARTCHAR Thorn
ENCODING 222
SWIDTH 572 0
DWIDTH 6 0
BBX 6 8 0 0
BITMAP
4DC400
08B992
08707B
08703E
087079
08B871
087000
4CD400
ENDCHAR
STARTCHAR germandbls
ENCODING 223
SWIDTH 563 0
DWIDTH 6 0
BBX 6 9 0 0
BITMAP
037690
0A10C2
0D10C1
5E1930
0D16B1
0D1079
0D103C
0D334B
5F4B83
ENDCHAR
STARTCHAR agrave
ENCODING 224
SWIDTH 480 0
DWIDTH 5 0
BBX 6 8 0 0
BITMAP
069000
009000
186A00
470B30
005C30
2A2A30
870B30
4D99A1
ENDCHAR
STARTCHAR aacute
ENCODING 225
SWIDTH 480 0
DWIDTH 5 0
BBX 6 8 0 0
BITMAP
007800
009000
186A00
470B30
005C30
2A2A30
870B30
4D99A1
ENDCHAR
STARTCHAR acircumflex
ENCODING 226
SWIDTH 480 0
DWIDTH 5 0
BBX 6 8 0 0
BITMAP
02D300
081800
186A00
470B30
005C30
2A2A30
870B30
4D99A1
ENDCHAR
STARTCHAR atilde
ENCODING 227
SWIDTH 480 0
DWIDTH 5 0
BBX 6 8 0 0
BITMAP
099430
136B00
186A00
470B30
005C30
2A2A30
870B30
4D99A1
ENDCHAR
STARTCHAR adieresis
ENCODING 228
SWIDTH 480 0
DWIDTH 5 0
BBX 6 8 0 0
BITMAP
2C0B40
010100
186A00
470B30
005C30
2A2A30
870B30
4D99A1
ENDCHAR
STARTCHAR aring
ENCODING 229
SWIDTH 480 0
DWIDTH 5 0
BBX 6 9 0 0
BITMAP
038300
080800
038300
186A00
470B30
005C30
2A2A30
870B30
4D99A1
ENDCHAR
STARTCHAR ae
ENCODING 230
SWIDTH 709 0
DWIDTH 8 0
BBX 8 6 0 0
BITMAP
18698980
470C30C3
005D88A4
2A2C3000
870B8023
4D93CD90
ENDCHAR
STARTCHAR ccedilla
ENCODING 231
SWIDTH 446 0
DWIDTH 5 0
BBX 5 9 0 -3
BITMAP
077C30
460650
840000
950000
6B0150
1AEB10
005000
007600
017800
ENDCHAR
STARTCHAR egrave
ENCODING 232
SWIDTH 464 0
DWIDTH 5 0
BBX 5 8 0 0
BITMAP
05A000
008100
088A10
560770
9A8980
950000
5C1050
09EB20
ENDCHAR
STARTCHAR eacute
ENCODING 233
SWIDTH 464 0
DWIDTH 5 0
BBX 5 8 0 0
BITMAP
005900
009100
088A10
560770
9A8980
950000
5C1050
09EB20
ENDCHAR
STARTCHAR ecircumflex
ENCODING 234
SWIDTH 464 0
DWIDTH 5 0
BBX 5 8 0 0
BITMAP
01D500
071800
088A10
560770
9A8980
950000
5C1050
09EB20
ENDCHAR
STARTCHAR edieresis
ENCODING 235
SWIDTH 464 0
DWIDTH 5 0
BBX 5 8 0 0
BITMAP
1D0950
010100
088A10
560770
9A8980
950000
5C1050
09EB20
ENDCHAR
STARTCHAR igrave
ENCODING 236
SWIDTH 285 0
DWIDTH 3 0
BBX 3 8 0 0
BITMAP
9600
0900
4E00
0D00
0D00
0D00
0D00
4F60
ENDCHAR
STARTCHAR iacute
ENCODING 237
SWIDTH 285 0
DWIDTH 3 0
BBX 3 8 0 0
BITMAP
0A50
1800
4E00
0D00
0D00
0D00
0D00
4F60
ENDCHAR
STARTCHAR icircumflex
ENCODING 238
SWIDTH 285 0
DWIDTH 3 0
BBX 3 9 0 0
BITMAP
3E10
8460
3030
4E00
0D00
0D00
0D00
0D00
4F60
ENDCHAR
STARTCHAR idieresis
ENCODING 239
SWIDTH 285 0
DWIDTH 3 0
BBX 4 8 -1 0
BITMAP
3B1D
1304
04E0
00D0
00D0
00D0
00D0
04F6
ENDCHAR
STARTCHAR eth
ENCODING 240
SWIDTH 532 0
DWIDTH 6 0
BBX 6 9 0 0
BITMAP
07A962
005B80
0011D0
0878E2
5900E4
9600C4
8700C3
5901D0
087830
ENDCHAR
STARTCHAR ntilde
ENCODING 241
SWIDTH 576 0
DWIDTH 6 0
BBX 7 8 0 0
BITMAP
01B76100
04199000
5E5BB000
0D30C300
0D009400
0D009400
0D009400
4F62DA10
ENDCHAR
STARTCHAR ograve
ENCODING 242
SWIDTH 514 0
DWIDTH 6 0
BBX 6 8 0 0
BITMAP
02D000
005400
087940
5901D1
9600C3
8700B3
5A00D1
087840
ENDCHAR
STARTCHAR oacute
ENCODING 243
SWIDTH 514 0
DWIDTH 6 0
BBX 6 8 0 0
BITMAP
002C00
007200
087940
5901D1
9600C3
8700B3
5A00D1
087840
ENDCHAR
STARTCHAR ocircumflex
ENCODING 244
SWIDTH 514 0
DWIDTH 6 0
BBX 6 8 0 0
BITMAP
00B800
053620
087940
5901D1
9600C3
8700B3
5A00D1
087840
ENDCHAR
STARTCHAR otilde
ENCODING 245
SWIDTH 514 0
DWIDTH 6 0
BBX 6 8 0 0
BITMAP
05B450
043C30
087940
5901D1
9600C3
8700B3
5A00D1
087840
ENDCHAR
STARTCHAR odieresis
ENCODING 246
SWIDTH 514 0
DWIDTH 6 0
BBX 6 8 0 0
BITMAP
0C3680
010010
087940
5901D1
9600C3
8700B3
5A00D1
087840
ENDCHAR
STARTCHAR divide
ENCODING 247
SWIDTH 720 0
DWIDTH 8 0
BBX 8 7 0 0
BITMAP
00087000
00011000
00000000
4DDDDDD3
00000000
00022000
00087000
ENDCHAR
STARTCHAR oslash
ENCODING 248
SWIDTH 514 0
DWIDTH 6 0
BBX 6 6 0 0
BITMAP
088A80
5907D1
9643C3
9860B3
5D00D1
5A8940
ENDCHAR
STARTCHAR ugrave
ENCODING 249
SWIDTH 570 0
DWIDTH 6 0
BBX 6 8 0 0
BITMAP
01D100
003600
6D04D3
0E00B3
0E00B3
0E00B3
0E10D3
08C8B8
ENDCHAR
STARTCHAR uacute
ENCODING 250
SWIDTH 570 0
DWIDTH 6 0
BBX 6 8 0 0
BITMAP
001D10
005400
6D04D3
0E00B3
0E00B3
0E00B3
0E10D3
08C8B8
ENDCHAR
STARTCHAR ucircumflex
ENCODING 251
SWIDTH 570 0
DWIDTH 6 0
BBX 6 8 0 0
BITMAP
009A00
035440
6D04D3
0E00B3
0E00B3
0E00B3
0E10D3
08C8B8
ENDCHAR
STARTCHAR udieresis
ENCODING 252
SWIDTH 570 0
DWIDTH 6 0
BBX 6 8 0 0
BITMAP
0A54A0
010010
6D04D3
0E00B3
0E00B3
0E00B3
0E10D3
08C8B8
ENDCHAR
STARTCHAR yacute
ENCODING 253
SWIDTH 483 0
DWIDTH 5 0
BBX 7 11 -1 -3
BITMAP
0002C000
00072000
1BC13D30
03D01700
00C35300
00697000
001D6000
000A3000
00080000
01270000
0CB10000
ENDCHAR
STARTCHAR thorn
ENCODING 254
SWIDTH 524 0
DWIDTH 6 0
BBX 6 12 0 -3
BITMAP
8B0000
2C0000
2C0000
2C8D90
2D11E2
2C00A5
2C00A4
2C00C1
2E9840
2C0000
2C0000
8E6000
ENDCHAR
STARTCHAR ydieresis
ENCODING 255
SWIDTH 483 0
DWIDTH 5 0
BBX 7 11 -1 -3
BITMAP
00C36800
00100100
1BC13D30
03D01700
00C35300
00697000
001D6000
000A3000
00080000
01270000
0CB10000
ENDCHAR
STARTCHAR Amacron
ENCODING 256
SWIDTH 718 0
DWIDTH 8 0
BBX 8 10 0 0
BITMAP
007AA500
00000000
00085000
000DB000
0056F200
00A1B800
01906D00
07A78F40
0B0009B0
8C201AF7
ENDCHAR
STARTCHAR amacron
ENCODING 257
SWIDTH 480 0
DWIDTH 5 0
BBX 6 8 0 0
BITMAP
1BBB20
000000
186A00
470B30
005C30
2A2A30
870B30
4D99A1
ENDCHAR
STARTCHAR Abreve
ENCODING 258
SWIDTH 718 0
DWIDTH 8 0
BBX 8 12 0 0
BITMAP
00100100
00712500
003CA100
00000000
00085000
000DB000
0056F200
00A1B800
01906D00
07A78F40
0B0009B0
8C201AF7
ENDCHAR
STARTCHAR abreve
ENCODING 259
SWIDTH 480 0
DWIDTH 5 0
BBX 6 9 0 0
BITMAP
010000
070610
06B700
186A00
470B30
005C30
2A2A30
870B30
4D99A1
ENDCHAR
STARTCHAR Aogonek
ENCODING 260
SWIDTH 719 0
DWIDTH 8 0
BBX 8 11 0 -3
BITMAP
00085000
000DB000
0046F200
0091B800
01905D00
07A78F50
0B000AB0
8C2006F7
00005200
00019000
0001C810
ENDCHAR
STARTCHAR aogonek
ENCODING 261
SWIDTH 480 0
DWIDTH 5 0
BBX 6 9 0 -3
BITMAP
186A00
470B30
005C30
2A2A30
870B30
4D99C1
000730
000A00
000C81
ENDCHAR
STARTCHAR Cacute
ENCODING 262
SWIDTH 670 0
DWIDTH 7 0
BBX 7 11 0 0
BITMAP
00007200
00075000
00000000
01999EB0
0B5003A0
3D000060
6B000000
6B000000
3E000000
0C800170
01ACB910
ENDCHAR
STARTCHAR cacute
ENCODING 263
SWIDTH 446 0
DWIDTH 5 0
BBX 5 8 0 0
BITMAP
005900
009100
077C30
560650
840000
950000
6B0150
0AEB10
ENDCHAR
STARTCHAR Ccircumflex
ENCODING 264
SWIDTH 670 0
DWIDTH 7 0
BBX 7 11 0 0
BITMAP
00036000
00286500
00000000
01999EB0
0B5003A0
3D000060
6B000000
6B000000
3E000000
0C800170
01ACB910
ENDCHAR
STARTCHAR ccircumflex
ENCODING 265
SWIDTH 446 0
DWIDTH 5 0
BBX 5 8 0 0
BITMAP
01D500
071800
077C30
560650
840000
950000
6B0150
0AEB10
ENDCHAR
STARTCHAR Cdotaccent
ENCODING 266
SWIDTH 670 0
DWIDTH 7 0
BBX 7 10 0 0
BITMAP
0006A000
00012000
01999EB0
0B5003A0
3D000060
6B000000
6B000000
3E000000
0C800170
01ACB910
ENDCHAR
STARTCHAR cdotaccent
ENCODING 267
SWIDTH 446 0
DWIDTH 5 0
BBX 5 8 0 0
BITMAP
00C200
001000
077C30
560650
840000
950000
6B0150
0AEB10
ENDCHAR
STARTCHAR Ccaron
ENCODING 268
SWIDTH 670 0
DWIDTH 7 0
BBX 7 11 0 0
BITMAP
00221400
0009B100
00000000
01999EB0
0B5003A0
3D000060
6B000000
6B000000
3E000000
0C800170
01ACB910
ENDCHAR
STARTCHAR ccaron
ENCODING 269
SWIDTH 446 0
DWIDTH 5 0
BBX 5 9 0 0
BITMAP
071800
01D500
000000
077C30
560650
840000
950000
6B0150
0AEB10
ENDCHAR
STARTCHAR Dcaron
ENCODING 270
SWIDTH 730 0
DWIDTH 8 0
BBX 8 11 0 0
BITMAP
00403100
002B8000
00000000
3CB89910
087007C0
087000E4
087000B7
087000B6
087000D4
087005C0
3CB79910
ENDCHAR
STARTCHAR dcaron
ENCODING 271
SWIDTH 626 0
DWIDTH 7 0
BBX 7 9 0 0
BITMAP
0007C490
0001D550
0001D200
078AD000
4802D000
8501D000
9601D000
6A02D000
0CD7E400
ENDCHAR
STARTCHAR Dcroat
ENCODING 272
SWIDTH 733 0
DWIDTH 8 0
BBX 8 8 0 0
BITMAP
4CB89910
087008C0
087000E4
5CC930C7
087000B7
087000D4
087005C0
4DB79910
ENDCHAR
STARTCHAR dcroat
ENCODING 273
SWIDTH 540 0
DWIDTH 6 0
BBX 6 9 0 0
BITMAP
0007C0
0003D0
0058E5
078AD0
4802D0
8501D0
9601D0
6A02D0
0CD7E5
ENDCHAR
STARTCHAR Emacron
ENCODING 274
SWIDTH 626 0
DWIDTH 7 0
BBX 7 10 0 0
BITMAP
01AAA100
00000000
4DB88D30
08700220
08701500
08B7B500
08701400
08700030
08700270
4CB89D50
ENDCHAR
STARTCHAR emacron
ENCODING 275
SWIDTH 464 0
DWIDTH 5 0
BBX 5 8 0 0
BITMAP
0BBB30
000000
088A10
560770
9A8980
950000
5C1050
09EB20
ENDCHAR
STARTCHAR Ebreve
ENCODING 276
SWIDTH 626 0
DWIDTH 7 0
BBX 7 11 0 0
BITMAP
00707100
007C7000
00000000
4DB88D30
08700220
08701500
08B7B500
08701400
08700030
08700270
4CB89D50
ENDCHAR
STARTCHAR ebreve
ENCODING 277
SWIDTH 464 0
DWIDTH 5 0
BBX 5 9 0 0
BITMAP
010000
070520
05B800
088A10
560770
9A8980
950000
5C1050
09EB20
ENDCHAR
STARTCHAR Edotaccent
ENCODING 278
SWIDTH 626 0
DWIDTH 7 0
BBX 7 10 0 0
BITMAP
000E1000
00020000
4DB88D30
08700220
08701500
08B7B500
08701400
08700030
08700270
4CB89D50
ENDCHAR
STARTCHAR edotaccent
ENCODING 279
SWIDTH 464 0
DWIDTH 5 0
BBX 5 8 0 0
BITMAP
00C200
001000
088A10
560770
9A8980
950000
5C1050
09EB20
ENDCHAR
STARTCHAR Eogonek
ENCODING 280
SWIDTH 625 0
DWIDTH 7 0
BBX 7 11 0 -3
BITMAP
4DB88D30
08700220
08700500
08703500
08B7A400
08700020
08700270
4CB89D50
00004400
0000B000
00009930
ENDCHAR
STARTCHAR eogonek
ENCODING 281
SWIDTH 464 0
DWIDTH 5 0
BBX 5 9 0 -3
BITMAP
088A10
560770
9A8980
950000
5C1050
09ED30
007300
00A000
00C810
ENDCHAR
STARTCHAR Ecaron
ENCODING 282
SWIDTH 626 0
DWIDTH 7 0
BBX 7 11 0 0
BITMAP
00404000
004C5000
00000000
4DB88D30
08700220
08701500
08B7B500
08701400
08700030
08700270
4CB89D50
ENDCHAR
STARTCHAR ecaron
ENCODING 283
SWIDTH 464 0
DWIDTH 5 0
BBX 5 9 0 0
BITMAP
071800
01D500
000000
088A10
560770
9A8980
950000
5C1050
09EB20
ENDCHAR
STARTCHAR Gcircumflex
ENCODING 284
SWIDTH 720 0
DWIDTH 8 0
BBX 8 11 0 0
BITMAP
00036000
00286500
00000000
01999EB0
0B5002A0
3D000060
6B000000
6B0018A3
4D0004C0
0C6003C0
02AA8A50
ENDCHAR
STARTCHAR gcircumflex
ENCODING 285
SWIDTH 484 0
DWIDTH 5 0
BBX 6 11 0 -3
BITMAP
01D500
071800
097EA2
590770
5A0860
097700
470000
4FED80
4301A1
A30090
5DA830
ENDCHAR
STARTCHAR Gbreve
ENCODING 286
SWIDTH 720 0
DWIDTH 8 0
BBX 8 12 0 0
BITMAP
00100100
00520700
001BB300
00000000
01999EB0
0B5002A0
3D000060
6B000000
6B0018A3
4D0004C0
0C6003C0
02AA8A50
ENDCHAR
STARTCHAR gbreve
ENCODING 287
SWIDTH 484 0
DWIDTH 5 0
BBX 6 12 0 -3
BITMAP
010000
070520
05B800
097EA2
590770
5A0860
097700
470000
4FED80
4301A1
A30090
5DA830
ENDCHAR
STARTCHAR Gdotaccent
ENCODING 288
SWIDTH 720 0
DWIDTH 8 0
BBX 8 10 0 0
BITMAP
0006A000
00012000
01999EB0
0B5002A0
3D000060
6B000000
6B0018A3
4D0004C0
0C6003C0
02AA8A50
ENDCHAR
STARTCHAR gdotaccent
ENCODING 289
SWIDTH 484 0
DWIDTH 5 0
BBX 6 11 0 -3
BITMAP
00C200
001000
097EA2
590770
5A0860
097700
470000
4FED80
4301A1
A30090
5DA830
ENDCHAR
STARTCHAR Gcommaaccent
ENCODING 290
SWIDTH 720 0
DWIDTH 8 0
BBX 8 12 0 -4
BITMAP
01999EB0
0B5002A0
3D000060
6B000000
6B0018A3
4D0004C0
0C6003C0
02AA8A50
00000000
00098000
00017000
00041000
ENDCHAR
STARTCHAR gcommaaccent
ENCODING 291
SWIDTH 484 0
DWIDTH 5 0
BBX 6 13 0 -3
BITMAP
001100
008000
01E300
001000
097EA2
590770
5A0860
097700
470000
4FED80
4301A1
A30090
5DA830
ENDCHAR
STARTCHAR Hcircumflex
ENCODING 292
SWIDTH 777 0
DWIDTH 9 0
BBX 9 11 0 0
BITMAP
0002700000
0019560000
0000000000
3DC307F810
087000E100
087000E100
08B777E100
087000E100
087000E100
087000E100
3CC307F810
ENDCHAR
STARTCHAR hcircumflex
ENCODING 293
SWIDTH 577 0
DWIDTH 6 0
BBX 7 11 0 0
BITMAP
00540000
03773000
6E000000
0E000000
0E000000
0E6CB000
0E30C300
0E009400
0E009400
0E009400
4F62C910
ENDCHAR
STARTCHAR Hbar
ENCODING 294
SWIDTH 788 0
DWIDTH 9 0
BBX 9 8 0 0
BITMAP
3CC306F910
088000D200
4BB777E820
07B777E200
078000D200
078000D200
078000D200
3CC306F910
ENDCHAR
STARTCHAR hbar
ENCODING 295
SWIDTH 579 0
DWIDTH 6 0
BBX 7 9 0 0
BITMAP
6D000000
1E000000
6E860000
0D6CB000
0D30C400
0D009500
0D009500
0D009500
4E62CA10
ENDCHAR
STARTCHAR Itilde
ENCODING 296
SWIDTH 357 0
DWIDTH 4 0
BBX 4 10 0 0
BITMAP
5BB5
0000
4DC3
0870
0870
0870
0870
0870
0870
4DC3
ENDCHAR
STARTCHAR itilde
ENCODING 297
SWIDTH 285 0
DWIDTH 3 0
BBX 4 8 -1 0
BITMAP
0A75
1388
04E0
00D0
00D0
00D0
00D0
04F6
ENDCHAR
STARTCHAR Imacron
ENCODING 298
SWIDTH 357 0
DWIDTH 4 0
BBX 4 10 0 0
BITMAP
6AA6
0000
4DC3
0870
0870
0870
0870
0870
0870
4DC3
ENDCHAR
STARTCHAR imacron
ENCODING 299
SWIDTH 285 0
DWIDTH 3 0
BBX 3 8 0 0
BITMAP
AA80
0000
4E00
0D00
0D00
0D00
0D00
4F60
ENDCHAR
STARTCHAR Ibreve
ENCODING 300
SWIDTH 357 0
DWIDTH 4 0
BBX 4 12 0 0
BITMAP
1001
7116
2BB1
0000
4DC3
0870
0870
0870
0870
0870
0870
4DC3
ENDCHAR
STARTCHAR ibreve
ENCODING 301
SWIDTH 285 0
DWIDTH 3 0
BBX 3 9 0 0
BITMAP
5050
7070
5B20
4E00
0D00
0D00
0D00
0D00
4F60
ENDCHAR
STARTCHAR Iogonek
ENCODING 302
SWIDTH 357 0
DWIDTH 4 0
BBX 4 11 0 -3
BITMAP
4DC3
0870
0870
0870
0870
0870
0870
4CC3
0620
0A00
0C81
ENDCHAR
STARTCHAR iogonek
ENCODING 303
SWIDTH 285 0
DWIDTH 3 0
BBX 3 12 0 -3
BITMAP
0D20
0400
0000
4E00
0D00
0D00
0D00
0D00
4F60
1700
7400
5B50
ENDCHAR
STARTCHAR Idotaccent
ENCODING 304
SWIDTH 357 0
DWIDTH 4 0
BBX 4 10 0 0
BITMAP
0870
0110
4DC3
0870
0870
0870
0870
0870
0870
4DC3
ENDCHAR
STARTCHAR dotlessi
ENCODING 305
SWIDTH 285 0
DWIDTH 3 0
BBX 3 6 0 0
BITMAP
4E00
0D00
0D00
0D00
0D00
4F60
ENDCHAR
STARTCHAR IJ
ENCODING 306
SWIDTH 753 0
DWIDTH 8 0
BBX 8 8 0 0
BITMAP
4DC308F9
087000F1
087000F0
087000F0
087000F0
087000F0
087050F0
4DC3C870
ENDCHAR
STARTCHAR ij
ENCODING 307
SWIDTH 548 0
DWIDTH 6 0
BBX 6 11 0 -3
BITMAP
0D20C3
040041
4E04D2
0D00C2
0D00C2
0D00C2
0D00C2
4F60C2
0000C2
0040B0
00AA60
ENDCHAR
STARTCHAR Jcircumflex
ENCODING 308
SWIDTH 396 0
DWIDTH 4 0
BBX 5 11 0 0
BITMAP
007200
075800
000000
07F910
00E200
00E200
00E200
00E200
00E200
60E100
B88000
ENDCHAR
STARTCHAR jcircumflex
ENCODING 309
SWIDTH 263 0
DWIDTH 3 0
BBX 4 11 -1 -3
BITMAP
04D2
0817
05E0
00E0
00E0
00E0
00E0
00E0
00D0
40C0
C950
ENDCHAR
STARTCHAR Kcommaaccent
ENCODING 310
SWIDTH 702 0
DWIDTH 8 0
BBX 8 12 0 -4
BITMAP
4DC33F91
08705700
08737000
08A80000
08AD3000
0874D200
08706D10
4CC33ED4
00000000
000A7000
00027000
00040000
ENDCHAR
STARTCHAR kcommaaccent
ENCODING 311
SWIDTH 542 0
DWIDTH 6 0
BBX 6 13 0 -4
BITMAP
5E0000
0E0000
0E0000
0E08B3
0E1800
0EB100
0E8A00
0E0B70
4F64F7
000000
008900
001800
003100
ENDCHAR
STARTCHAR kgreenlandic
ENCODING 312
SWIDTH 542 0
DWIDTH 6 0
BBX 6 6 0 0
BITMAP
5E07D4
0D1910
0D9200
0DA900
0D1B60
4F64F7
ENDCHAR
STARTCHAR Lacute
ENCODING 313
SWIDTH 585 0
DWIDTH 6 0
BBX 7 11 0 0
BITMAP
00540000
04800000
00000000
3DC40000
08700000
08700000
08700000
08700000
08700110
08700720
3CC89E00
ENDCHAR
STARTCHAR lacute
ENCODING 314
SWIDTH 283 0
DWIDTH 3 0
BBX 3 11 0 0
BITMAP
0360
1910
5E00
0E00
0E00
0E00
0E00
0E00
0E00
0E00
4F60
ENDCHAR
STARTCHAR Lcommaaccent
ENCODING 315
SWIDTH 585 0
DWIDTH 6 0
BBX 7 12 0 -4
BITMAP
3DC40000
08700000
08700000
08700000
08700000
08700110
08700720
3CC89E00
00000000
005C0000
00080000
00220000
ENDCHAR
STARTCHAR lcommaaccent
ENCODING 316
SWIDTH 283 0
DWIDTH 3 0
BBX 3 13 0 -4
BITMAP
5E00
0E00
0E00
0E00
0E00
0E00
0E00
0E00
4F60
0000
1E20
0720
0400
ENDCHAR
STARTCHAR Lcaron
ENCODING 317
SWIDTH 585 0
DWIDTH 6 0
BBX 7 8 0 0
BITMAP
3DC45800
08706400
08703000
08700000
08700000
08700110
08700720
3CC89E00
ENDCHAR
STARTCHAR lcaron
ENCODING 318
SWIDTH 366 0
DWIDTH 4 0
BBX 4 9 0 0
BITMAP
5E2B
0E37
0E21
0E00
0E00
0E00
0E00
0E00
4F60
ENDCHAR
STARTCHAR Ldot
ENCODING 319
SWIDTH 605 0
DWIDTH 7 0
BBX 7 8 0 0
BITMAP
3DC40000
08700000
08700000
08703B00
08700100
08700110
08700720
3CC89E00
ENDCHAR
STARTCHAR ldot
ENCODING 320
SWIDTH 357 0
DWIDTH 4 0
BBX 5 9 0 0
BITMAP
5E0000
0E0000
0E0000
0E0000
0E1D10
0E0100
0E0000
0E0000
4F6000
ENDCHAR
STARTCHAR Lslash
ENCODING 321
SWIDTH 590 0
DWIDTH 6 0
BBX 7 8 0 0
BITMAP
3CD40000
07800000
07843000
07C40000
4B800000
17800110
07800630
3CD89E10
ENDCHAR
STARTCHAR lslash
ENCODING 322
SWIDTH 290 0
DWIDTH 3 0
BBX 3 9 0 0
BITMAP
4D10
0D10
0D10
0D90
2E10
4D10
0D10
0D10
4E70
ENDCHAR
STARTCHAR Nacute
ENCODING 323
SWIDTH 742 0
DWIDTH 8 0
BBX 8 11 0 0
BITMAP
00007200
00076000
00000000
5E8005E6
09E40090
086D1080
080A9080
0801E580
08004E90
080008D0
4E6000A0
ENDCHAR
STARTCHAR nacute
ENCODING 324
SWIDTH 576 0
DWIDTH 6 0
BBX 7 8 0 0
BITMAP
000B4000
00280000
5E5BB000
0D30C300
0D009400
0D009400
0D009400
4F62DA10
ENDCHAR
STARTCHAR Ncommaaccent
ENCODING 325
SWIDTH 742 0
DWIDTH 8 0
BBX 8 12 0 -4
BITMAP
5E8005E6
09E40090
086D1080
080A9080
0801E580
08004E90
080008D0
4E6000A0
00000000
00098000
00017000
00041000
ENDCHAR
STARTCHAR ncommaaccent
ENCODING 326
SWIDTH 576 0
DWIDTH 6 0
BBX 7 10 0 -4
BITMAP
5E5BB000
0D30C300
0D009400
0D009400
0D009400
4F62DA10
00000000
007A0000
00180000
00310000
ENDCHAR
STARTCHAR Ncaron
ENCODING 327
SWIDTH 742 0
DWIDTH 8 0
BBX 8 11 0 0
BITMAP
00231400
0009B100
00000000
5E8005E6
09E40090
086D1080
080A9080
0801E580
08004E90
080008D0
4E6000A0
ENDCHAR
STARTCHAR ncaron
ENCODING 328
SWIDTH 576 0
DWIDTH 6 0
BBX 7 9 0 0
BITMAP
01827000
005D1000
00000000
5E5BB000
0D30C300
0D009400
0D009400
0D009400
4F62DA10
ENDCHAR
STARTCHAR napostrophe
ENCODING 329
SWIDTH 576 0
DWIDTH 6 0
BBX 9 9 -2 0
BITMAP
7A00000000
2A00000000
3400000000
005E5BB000
000D30C300
000D009400
000D009400
000D009400
004F62DA10
ENDCHAR
STARTCHAR Eng
ENCODING 330
SWIDTH 742 0
DWIDTH 8 0
BBX 8 11 0 -3
BITMAP
5E8005E6
09E30090
086D0080
080B8080
0802E480
08006D90
08000BD0
4E6001C0
00000080
00014080
0002D940
ENDCHAR
STARTCHAR eng
ENCODING 331
SWIDTH 559 0
DWIDTH 6 0
BBX 6 9 0 -3
BITMAP
5E5BB0
0D30C3
0D00A4
0D0094
0D0094
4F6094
000094
0031A2
008A70
ENDCHAR
STARTCHAR Omacron
ENCODING 332
SWIDTH 738 0
DWIDTH 8 0
BBX 8 10 0 0
BITMAP
005AA700
00000000
01999A20
0B6004D1
3E0000C5
6C000098
6C0000A8
3E0000C5
0C5003C0
01988920
ENDCHAR
STARTCHAR omacron
ENCODING 333
SWIDTH 514 0
DWIDTH 6 0
BBX 6 8 0 0
BITMAP
08BB50
000000
087940
5901D1
9600C3
8700B3
5A00D1
087840
ENDCHAR
STARTCHAR Obreve
ENCODING 334
SWIDTH 738 0
DWIDTH 8 0
BBX 8 12 0 0
BITMAP
00100100
00611700
001BB200
00000000
01999A20
0B6004D1
3E0000C5
6C000098
6C0000A8
3E0000C5
0C5003C0
01988920
ENDCHAR
STARTCHAR obreve
ENCODING 335
SWIDTH 514 0
DWIDTH 6 0
BBX 6 9 0 0
BITMAP
010010
070250
03BA10
087940
5901D1
9600C3
8700B3
5A00D1
087840
ENDCHAR
STARTCHAR Ohungarumlaut
ENCODING 336
SWIDTH 738 0
DWIDTH 8 0
BBX 8 11 0 0
BITMAP
00037730
00095700
00000000
01999A20
0B6004D1
3E0000C5
6C000098
6C0000A8
3E0000C5
0C5003C0
01988920
ENDCHAR
STARTCHAR ohungarumlaut
ENCODING 337
SWIDTH 514 0
DWIDTH 6 0
BBX 6 8 0 0
BITMAP
0087B0
019720
087940
5901D1
9600C3
8700B3
5A00D1
087840
ENDCHAR
STARTCHAR OE
ENCODING 338
SWIDTH 945 0
DWIDTH 10 0
BBX 10 8 0 0
BITMAP
0199AF98AA
0B500E1004
3E000E1070
6B000E88C0
6B000E1050
4D000E1003
0C500E1009
01989F98AC
ENDCHAR
STARTCHAR oe
ENCODING 339
SWIDTH 807 0
DWIDTH 9 0
BBX 9 6 0 0
BITMAP
0879387900
5901F40A40
9600D87950
8700D30000
5A00EA0140
08783AEA00
ENDCHAR
STARTCHAR Racute
ENCODING 340
SWIDTH 659 0
DWIDTH 7 0
BBX 8 11 0 0
BITMAP
00054000
00480000
00000000
3DB8A400
08704D00
08702F00
08707900
08BC8000
0873D100
08708B00
3CC30CA2
ENDCHAR
STARTCHAR racute
ENCODING 341
SWIDTH 380 0
DWIDTH 4 0
BBX 5 8 0 0
BITMAP
00C300
036000
4E5E10
0D4400
0D0000
0D0000
0D1000
4F7000
ENDCHAR
STARTCHAR Rcommaaccent
ENCODING 342
SWIDTH 659 0
DWIDTH 7 0
BBX 8 12 0 -4
BITMAP
3DB8A400
08704D00
08702F00
08707900
08BC8000
0873D100
08708B00
3CC30CA2
00000000
000D4000
00054000
00040000
ENDCHAR
STARTCHAR rcommaaccent
ENCODING 343
SWIDTH 380 0
DWIDTH 4 0
BBX 5 10 0 -4
BITMAP
4E5E10
0D4400
0D0000
0D0000
0D1000
4F7000
000000
0C5000
045000
040000
ENDCHAR
STARTCHAR Rcaron
ENCODING 344
SWIDTH 659 0
DWIDTH 7 0
BBX 8 11 0 0
BITMAP
00404000
005C4000
00000000
3DB8A400
08704D00
08702F00
08707900
08BC8000
0873D100
08708B00
3CC30CA2
ENDCHAR
STARTCHAR rcaron
ENCODING 345
SWIDTH 380 0
DWIDTH 4 0
BBX 5 9 0 0
BITMAP
273500
07B000
000000
4E5E10
0D4400
0D0000
0D0000
0D1000
4F7000
ENDCHAR
STARTCHAR Sacute
ENCODING 346
SWIDTH 504 0
DWIDTH 6 0
BBX 6 11 0 0
BITMAP
003600
01A200
000000
198BC0
6800A0
5D1030
0AE500
005E90
4002F2
8200E1
8D8960
ENDCHAR
STARTCHAR sacute
ENCODING 347
SWIDTH 394 0
DWIDTH 4 0
BBX 4 8 0 0
BITMAP
00C3
0360
3979
8506
4E70
13CA
700E
7878
ENDCHAR
STARTCHAR Scircumflex
ENCODING 348
SWIDTH 504 0
DWIDTH 6 0
BBX 6 11 0 0
BITMAP
006300
065810
000000
198BC0
6800A0
5D1030
0AE500
005E90
4002F2
8200E1
8D8960
ENDCHAR
STARTCHAR scircumflex
ENCODING 349
SWIDTH 394 0
DWIDTH 4 0
BBX 4 8 0 0
BITMAP
07C0
1736
3979
8506
4E70
13CA
700E
7878
ENDCHAR
STARTCHAR uni015E
ENCODING 350
SWIDTH 504 0
DWIDTH 6 0
BBX 6 11 0 -3
BITMAP
198BC0
6800A0
5D1030
0AE500
005E90
4002F2
8200E1
8DA960
007500
000A00
017400
ENDCHAR
STARTCHAR uni015F
ENCODING 351
SWIDTH 394 0
DWIDTH 4 0
BBX 4 9 0 -3
BITMAP
3979
8506
4E70
13CA
700E
7A88
0390
0073
0580
ENDCHAR
STARTCHAR Scaron
ENCODING 352
SWIDTH 504 0
DWIDTH 6 0
BBX 6 11 0 0
BITMAP
041320
02B800
000000
198BC0
6800A0
5D1030
0AE500
005E90
4002F2
8200E1
8D8960
ENDCHAR
STARTCHAR scaron
ENCODING 353
SWIDTH 394 0
DWIDTH 4 0
BBX 4 9 0 0
BITMAP
2736
07B0
0000
3979
8506
4E70
13CA
700E
7878
ENDCHAR
STARTCHAR uni0162
ENCODING 354
SWIDTH 603 0
DWIDTH 7 0
BBX 7 11 0 -3
BITMAP
BAAE9C60
703C0160
103C0010
003C0000
003C0000
003C0000
003D0000
019F6000
001A2000
00046000
00481000
ENDCHAR
STARTCHAR uni0163
ENCODING 355
SWIDTH 315 0
DWIDTH 3 0
BBX 4 11 0 -3
BITMAP
0300
1C00
4E81
0E00
0E00
0E00
0E00
0DA2
0480
0081
0670
ENDCHAR
STARTCHAR Tcaron
ENCODING 356
SWIDTH 603 0
DWIDTH 7 0
BBX 7 11 0 0
BITMAP
01404000
007C3000
00000000
BAAE9C60
703C0160
103C0010
003C0000
003C0000
003C0000
003D0000
019F6000
ENDCHAR
STARTCHAR tcaron
ENCODING 357
SWIDTH 353 0
DWIDTH 4 0
BBX 4 9 0 0
BITMAP
002B
0337
1C21
4E81
0E00
0E00
0E00
0E00
0BA2
ENDCHAR
STARTCHAR Tbar
ENCODING 358
SWIDTH 603 0
DWIDTH 7 0
BBX 7 8 0 0
BITMAP
BAAE9C60
703C0160
003C0000
049E7200
003C0000
003C0000
003D0000
019F6000
ENDCHAR
STARTCHAR tbar
ENCODING 359
SWIDTH 328 0
DWIDTH 4 0
BBX 4 8 0 0
BITMAP
0300
1C00
4E82
0E00
4E82
0E00
0E00
0BA2
ENDCHAR
STARTCHAR Utilde
ENCODING 360
SWIDTH 752 0
DWIDTH 8 0
BBX 8 10 0 0
BITMAP
001AB910
00000000
5EB204D9
0B500091
0B500091
0B500091
0B500091
0A600090
06B00190
009CBA20
ENDCHAR
STARTCHAR utilde
ENCODING 361
SWIDTH 570 0
DWIDTH 6 0
BBX 6 8 0 0
BITMAP
03B560
041B50
6D04D3
0E00B3
0E00B3
0E00B3
0E10D3
08C8B8
ENDCHAR
STARTCHAR Umacron
ENCODING 362
SWIDTH 752 0
DWIDTH 8 0
BBX 8 10 0 0
BITMAP
002AAA00
00000000
5EB204D9
0B500091
0B500091
0B500091
0B500091
0A600090
06B00190
009CBA20
ENDCHAR
STARTCHAR umacron
ENCODING 363
SWIDTH 570 0
DWIDTH 6 0
BBX 6 8 0 0
BITMAP
06BB70
000000
6D04D3
0E00B3
0E00B3
0E00B3
0E10D3
08C8B8
ENDCHAR
STARTCHAR Ubreve
ENCODING 364
SWIDTH 752 0
DWIDTH 8 0
BBX 8 11 0 0
BITMAP
00250700
0008C600
00000000
5EB204D9
0B500091
0B500091
0B500091
0B500091
0A600090
06B00190
009CBA20
ENDCHAR
STARTCHAR ubreve
ENCODING 365
SWIDTH 570 0
DWIDTH 6 0
BBX 6 9 0 0
BITMAP
010010
061160
01BB20
6D04D3
0E00B3
0E00B3
0E00B3
0E10D3
08C8B8
ENDCHAR
STARTCHAR Uring
ENCODING 366
SWIDTH 752 0
DWIDTH 8 0
BBX 8 11 0 0
BITMAP
00048200
00081700
00048200
5EB204D9
0B500091
0B500091
0B500091
0B500091
0A600090
06B00190
009CBA20
ENDCHAR
STARTCHAR uring
ENCODING 367
SWIDTH 570 0
DWIDTH 6 0
BBX 6 9 0 0
BITMAP
007700
017620
007700
6D04D3
0E00B3
0E00B3
0E00B3
0E10D3
08C8B8
ENDCHAR
STARTCHAR Uhungarumlaut
ENCODING 368
SWIDTH 752 0
DWIDTH 8 0
BBX 8 11 0 0
BITMAP
00008560
00065910
00000000
5EB204D9
0B500091
0B500091
0B500091
0B500091
0A600090
06B00190
009CBA20
ENDCHAR
STARTCHAR uhungarumlaut
ENCODING 369
SWIDTH 570 0
DWIDTH 6 0
BBX 6 8 0 0
BITMAP
0067B1
009640
6D04D3
0E00B3
0E00B3
0E00B3
0E10D3
08C8B8
ENDCHAR
STARTCHAR Uogonek
ENCODING 370
SWIDTH 753 0
DWIDTH 8 0
BBX 8 11 0 -3
BITMAP
5EB204D9
0B500091
0B500091
0B500091
0B500091
0A6000A0
06B001B0
009CCE50
0000A300
00047000
0003C700
ENDCHAR
STARTCHAR uogonek
ENCODING 371
SWIDTH 570 0
DWIDTH 6 0
BBX 6 9 0 -3
BITMAP
5D04D3
0E00B3
0E00B3
0E00B3
0E11D3
08C8B8
000360
000A10
0008A3
ENDCHAR
STARTCHAR Wcircumflex
ENCODING 372
SWIDTH 944 0
DWIDTH 10 0
BBX 12 11 -1 0
BITMAP
000004500000
000038740000
000000000000
1AF52CD308D3
01E304C00450
009800F30810
004D04C80800
000D483D2600
0008A70DA100
0002F308C000
000090027000
ENDCHAR
STARTCHAR wcircumflex
ENCODING 373
SWIDTH 749 0
DWIDTH 8 0
BBX 10 8 -1 0
BITMAP
00008B0000
0002635000
1BC1AD13D2
03D02D0170
00C35D3620
0078768700
002D61D600
000C10B100
ENDCHAR
STARTCHAR Ycircumflex
ENCODING 374
SWIDTH 647 0
DWIDTH 7 0
BBX 8 11 0 0
BITMAP
00063000
00659100
00000000
9F701B91
0A800900
02E25300
008A8000
001F3000
000E1000
000E2000
007F9100
ENDCHAR
STARTCHAR ycircumflex
ENCODING 375
SWIDTH 483 0
DWIDTH 5 0
BBX 7 11 -1 -3
BITMAP
000B8000
00536200
1BC13D30
03D01700
00C35300
00697000
001D6000
000A3000
00080000
01270000
0CB10000
ENDCHAR
STARTCHAR Ydieresis
ENCODING 376
SWIDTH 647 0
DWIDTH 7 0
BBX 8 10 0 0
BITMAP
00E19700
00201100
9F701B91
0A800900
02E25300
008A8000
001F3000
000E1000
000E2000
007F9100
ENDCHAR
STARTCHAR Zacute
ENCODING 377
SWIDTH 594 0
DWIDTH 7 0
BBX 7 11 0 0
BITMAP
00054000
00480000
00000000
4E99BE10
5300C600
1006C000
002E3000
00A80000
05D10110
1D400620
8E999E00
ENDCHAR
STARTCHAR zacute
ENCODING 378
SWIDTH 458 0
DWIDTH 5 0
BBX 5 8 0 0
BITMAP
006900
009100
7A8D70
503D10
00B500
05B000
1D2070
8D8A90
ENDCHAR
STARTCHAR Zdotaccent
ENCODING 379
SWIDTH 594 0
DWIDTH 7 0
BBX 7 10 0 0
BITMAP
001E0000
00020000
4E99BE10
5300C600
1006C000
002E3000
00A80000
05D10110
1D400620
8E999E00
ENDCHAR
STARTCHAR zdotaccent
ENCODING 380
SWIDTH 458 0
DWIDTH 5 0
BBX 5 8 0 0
BITMAP
00C200
001000
7A8D70
503D10
00B500
05B000
1D2070
8D8A90
ENDCHAR
STARTCHAR Zcaron
ENCODING 381
SWIDTH 594 0
DWIDTH 7 0
BBX 7 11 0 0
BITMAP
00404000
005C4000
00000000
4E99BE10
5300C600
1006C000
002E3000
00A80000
05D10110
1D400620
8E999E00
ENDCHAR
STARTCHAR zcaron
ENCODING 382
SWIDTH 458 0
DWIDTH 5 0
BBX 5 9 0 0
BITMAP
071800
01D400
000000
7A8D70
503D10
00B500
05B000
1D2070
8D8A90
ENDCHAR
STARTCHAR longs
ENCODING 383
SWIDTH 285 0
DWIDTH 3 0
BBX 5 9 0 0
BITMAP
038C10
0B1300
0D0000
6E0000
0D0000
0D0000
0D0000
0D1000
5F8100
ENDCHAR
STARTCHAR uni0180
ENCODING 384
SWIDTH 522 0
DWIDTH 6 0
BBX 6 9 0 0
BITMAP
8B0000
3C0000
7D7700
2C8D80
2D11E2
2C00B5
2C00A4
2C00C1
1C8840
ENDCHAR
STARTCHAR uni0188
ENCODING 392
SWIDTH 446 0
DWIDTH 5 0
BBX 6 8 0 0
BITMAP
00018A
000612
077D30
560650
840000
950000
6B0150
0AEB10
ENDCHAR
STARTCHAR uni0190
ENCODING 400
SWIDTH 518 0
DWIDTH 6 0
BBX 6 8 0 0
BITMAP
198AB0
6A0091
3C1000
05DA00
3C1000
880000
7B0043
1ADB60
ENDCHAR
STARTCHAR uni0192
ENCODING 402
SWIDTH 301 0
DWIDTH 3 0
BBX 6 12 -1 -3
BITMAP
0047C1
00B030
00D000
06E830
00E000
00E000
00E000
00E000
00E000
00D000
40C000
B86000
ENDCHAR
STARTCHAR uni0195
ENCODING 405
SWIDTH 798 0
DWIDTH 9 0
BBX 9 9 0 0
BITMAP
6E00000000
0E00000000
0E00000000
0E6CA02C00
0E30D20A20
0E00B30540
0E00B30420
0E00A40600
4F604CA400
ENDCHAR
STARTCHAR uni0199
ENCODING 409
SWIDTH 538 0
DWIDTH 6 0
BBX 6 9 0 0
BITMAP
037C40
0B0220
0D0000
0E09B3
0E2800
0EB100
0E8A00
0E0B60
4F55F6
ENDCHAR
STARTCHAR uni019A
ENCODING 410
SWIDTH 287 0
DWIDTH 3 0
BBX 3 9 0 0
BITMAP
5D00
0D00
0D00
0D00
4E60
0D00
0D00
0D00
4F60
ENDCHAR
STARTCHAR uni019B
ENCODING 411
SWIDTH 495 0
DWIDTH 5 0
BBX 7 9 -1 0
BITMAP
07D34000
012C4000
00672000
00066000
000D8000
004B6100
00B42500
02D00800
1BC12C40
ENDCHAR
STARTCHAR uni019E
ENCODING 414
SWIDTH 559 0
DWIDTH 6 0
BBX 7 9 0 -3
BITMAP
5E5BB000
0D30C300
0D00A400
0D009400
0D009400
4F609400
00009400
00009400
00009A10
ENDCHAR
STARTCHAR Ohorn
ENCODING 416
SWIDTH 737 0
DWIDTH 8 0
BBX 8 10 0 0
BITMAP
0000003A
0000001A
01999F81
0B5004E1
3D0000C6
6B000098
6B0000A7
4D0000C4
0C5003C0
01988910
ENDCHAR
STARTCHAR ohorn
ENCODING 417
SWIDTH 516 0
DWIDTH 6 0
BBX 6 8 0 0
BITMAP
000057
000037
087BA0
5901D1
9600C4
8700B3
5A00D1
087840
ENDCHAR
STARTCHAR uni01A5
ENCODING 421
SWIDTH 522 0
DWIDTH 6 0
BBX 6 12 0 -3
BITMAP
057C20
0B0410
1C0000
2C8D80
2D11E2
2C00A5
2C00A4
2C00C1
2E8840
2C0000
2C0000
8E6000
ENDCHAR
STARTCHAR uni01AA
ENCODING 426
SWIDTH 298 0
DWIDTH 3 0
BBX 6 12 -1 -3
BITMAP
478000
60A200
619400
16B500
008500
008500
008500
008500
008500
008500
006522
0019B4
ENDCHAR
STARTCHAR uni01AB
ENCODING 427
SWIDTH 321 0
DWIDTH 4 0
BBX 4 11 0 -3
BITMAP
0300
1C00
4E81
0E00
0E00
0E00
0E00
0BA7
0016
0215
0A81
ENDCHAR
STARTCHAR uni01AD
ENCODING 429
SWIDTH 315 0
DWIDTH 3 0
BBX 5 9 0 0
BITMAP
047C40
0B0220
1D0000
4E8100
0E0000
0E0000
0E0000
0E0000
0BA200
ENDCHAR
STARTCHAR Uhorn
ENCODING 431
SWIDTH 762 0
DWIDTH 8 0
BBX 9 11 0 0
BITMAP
0000000050
00000000E0
0000000060
5EB204D400
0B50009100
0B50009100
0B50009100
0B50009100
0A60009000
06B0019000
009CBA2000
ENDCHAR
STARTCHAR uhorn
ENCODING 432
SWIDTH 574 0
DWIDTH 6 0
BBX 7 8 0 0
BITMAP
00000840
00000640
6D04D500
0E00B300
0E00B300
0E00B300
0E10D300
08C8B800
ENDCHAR
STARTCHAR uni01B5
ENCODING 437
SWIDTH 594 0
DWIDTH 7 0
BBX 7 8 0 0
BITMAP
4D99BE10
4300C500
0008A000
059E8300
00C60000
06C00110
1E400620
8E999E00
ENDCHAR
STARTCHAR uni01BA
ENCODING 442
SWIDTH 430 0
DWIDTH 5 0
BBX 5 9 0 -3
BITMAP
999E10
50B400
068000
07AB00
000C30
001D10
188300
610700
479900
ENDCHAR
STARTCHAR uni01BB
ENCODING 443
SWIDTH 508 0
DWIDTH 6 0
BBX 6 9 0 0
BITMAP
08CC20
5207A0
1004C0
000680
388D92
007400
038011
1A0071
8FFFD0
ENDCHAR
STARTCHAR uni01BE
ENCODING 446
SWIDTH 406 0
DWIDTH 4 0
BBX 5 8 0 0
BITMAP
030000
1C1000
4E8300
097100
003C00
100D20
700D00
787700
ENDCHAR
STARTCHAR uni01C0
ENCODING 448
SWIDTH 250 0
DWIDTH 3 0
BBX 2 9 0 0
BITMAP
1C
1C
1C
1C
1C
1C
1C
1C
1C
ENDCHAR
STARTCHAR uni01C1
ENCODING 449
SWIDTH 423 0
DWIDTH 5 0
BBX 4 9 0 0
BITMAP
1C2B
1C2B
1C2B
1C2B
1C2B
1C2B
1C2B
1C2B
1C2B
ENDCHAR
STARTCHAR uni01C2
ENCODING 450
SWIDTH 422 0
DWIDTH 5 0
BBX 5 9 0 0
BITMAP
02C000
02C000
02C000
49D810
02C000
49D810
02C000
02C000
02C000
ENDCHAR
STARTCHAR uni01C3
ENCODING 451
SWIDTH 245 0
DWIDTH 3 0
BBX 2 9 0 0
BITMAP
2B
2D
1C
0B
0A
08
05
04
3C
ENDCHAR
STARTCHAR uni01DE
ENCODING 478
SWIDTH 718 0
DWIDTH 8 0
BBX 8 11 0 0
BITMAP
007AA500
00D36900
00201100
00085000
000DB000
0056F200
00A1B800
01906D00
07A78F40
0B0009B0
8C201AF7
ENDCHAR
STARTCHAR uni01DF
ENCODING 479
SWIDTH 480 0
DWIDTH 5 0
BBX 6 10 0 0
BITMAP
1BBB20
000000
2C0B40
010100
186A00
470B30
005C30
2A2A30
870B30
4D99A1
ENDCHAR
STARTCHAR uni01F0
ENCODING 496
SWIDTH 263 0
DWIDTH 3 0
BBX 4 12 -1 -3
BITMAP
0817
04D2
0000
05E0
00E0
00E0
00E0
00E0
00E0
00D0
40C0
C950
ENDCHAR
STARTCHAR Aringacute
ENCODING 506
SWIDTH 718 0
DWIDTH 8 0
BBX 8 13 0 0
BITMAP
00027000
00093000
00076000
00358000
00076000
00085000
000DB000
0056F200
00A1B800
01906D00
07A78F40
0B0009B0
8C201AF7
ENDCHAR
STARTCHAR aringacute
ENCODING 507
SWIDTH 480 0
DWIDTH 5 0
BBX 6 11 0 0
BITMAP
004500
039100
038300
080800
038300
186A00
470B30
005C30
2A2A30
870B30
4D99A1
ENDCHAR
STARTCHAR AEacute
ENCODING 508
SWIDTH 894 0
DWIDTH 10 0
BBX 11 11 -1 0
BITMAP
000000072000
000000760000
000000000000
00008EC88D20
000078800320
000187801400
000727804400
001C8BC8C400
007407800040
019007800360
1BA13CC89E40
ENDCHAR
STARTCHAR aeacute
ENCODING 509
SWIDTH 709 0
DWIDTH 8 0
BBX 8 8 0 0
BITMAP
00078000
00090000
18698980
470C30C3
005D88A4
2A2C3000
870B8023
4D93CD90
ENDCHAR
STARTCHAR Oslashacute
ENCODING 510
SWIDTH 737 0
DWIDTH 8 0
BBX 8 11 0 0
BITMAP
00017100
00084000
00000000
01999970
0B5008C0
3D0044D5
6B0170A8
6B0800A8
3D6200C5
0C7003C0
08988920
ENDCHAR
STARTCHAR oslashacute
ENCODING 511
SWIDTH 514 0
DWIDTH 6 0
BBX 6 8 0 0
BITMAP
006900
009100
088A80
5907D1
9643C3
9860B3
5D00D1
5A8940
ENDCHAR
STARTCHAR uni0218
ENCODING 536
SWIDTH 504 0
DWIDTH 6 0
BBX 6 12 0 -4
BITMAP
198BC0
6800A0
5D1030
0AE500
005E90
4002F2
8200E1
8D8960
000000
00D400
005400
004000
ENDCHAR
STARTCHAR uni0219
ENCODING 537
SWIDTH 394 0
DWIDTH 4 0
BBX 4 10 0 -4
BITMAP
3979
8506
4E70
13CA
700E
7878
0000
06A0
0180
0320
ENDCHAR
STARTCHAR uni021A
ENCODING 538
SWIDTH 603 0
DWIDTH 7 0
BBX 7 12 0 -4
BITMAP
BAAE9C60
703C0160
103C0010
003C0000
003C0000
003C0000
003D0000
019F6000
00000000
004D0000
00090000
00130000
ENDCHAR
STARTCHAR uni021B
ENCODING 539
SWIDTH 315 0
DWIDTH 3 0
BBX 4 12 0 -4
BITMAP
0300
1C00
4E81
0E00
0E00
0E00
0E00
0BA2
0000
0890
0180
0310
ENDCHAR
STARTCHAR uni0221
ENCODING 545
SWIDTH 674 0
DWIDTH 7 0
BBX 8 11 0 -2
BITMAP
0007C000
0001D000
0001D000
078AD000
4802D000
8501D000
9601D000
6B01D263
0CD7BA53
00006100
00005000
ENDCHAR
STARTCHAR uni0228
ENCODING 552
SWIDTH 626 0
DWIDTH 7 0
BBX 7 11 0 -3
BITMAP
4DB88D30
08700220
08701500
08B7B500
08701400
08700030
08700270
4CBA9D50
00094000
00018000
00383000
ENDCHAR
STARTCHAR uni0229
ENCODING 553
SWIDTH 464 0
DWIDTH 5 0
BBX 5 9 0 -3
BITMAP
088A10
560770
9A8980
950000
5C1050
09FB20
008500
000900
028400
ENDCHAR
STARTCHAR uni0234
ENCODING 564
SWIDTH 399 0
DWIDTH 4 0
BBX 5 11 0 -2
BITMAP
8B0000
2C0000
2C0000
2C0000
2C0000
2C0000
2C0000
2C3730
0B9630
060000
040000
ENDCHAR
STARTCHAR uni0235
ENCODING 565
SWIDTH 702 0
DWIDTH 8 0
BBX 8 8 0 -2
BITMAP
4E5BA000
0D30D200
0D00B300
0D00B300
0D00B354
4F607B55
00003400
00005000
ENDCHAR
STARTCHAR uni0236
ENCODING 566
SWIDTH 406 0
DWIDTH 4 0
BBX 5 10 0 -2
BITMAP
030000
1C0000
4E8200
0E0000
0E0000
0E0000
0E1630
0AA530
061000
050000
ENDCHAR
STARTCHAR uni0237
ENCODING 567
SWIDTH 263 0
DWIDTH 3 0
BBX 3 9 -1 -3
BITMAP
05E0
00E0
00E0
00E0
00E0
00E0
00D0
40C0
C950
ENDCHAR
STARTCHAR uni0250
ENCODING 592
SWIDTH 475 0
DWIDTH 5 0
BBX 5 6 0 0
BITMAP
8B9D70
0E04B0
0E0850
0E6200
0D0470
087830
ENDCHAR
STARTCHAR uni0251
ENCODING 593
SWIDTH 542 0
DWIDTH 6 0
BBX 6 6 0 0
BITMAP
0789B0
4802D0
8501D0
9601D0
6A02D0
1CD7E4
ENDCHAR
STARTCHAR uni0252
ENCODING 594
SWIDTH 544 0
DWIDTH 6 0
BBX 6 6 0 0
BITMAP
5E7DB1
0E20B6
0E0068
0E0068
0E1093
0B9760
ENDCHAR
STARTCHAR uni0253
ENCODING 595
SWIDTH 518 0
DWIDTH 6 0
BBX 6 9 0 0
BITMAP
057C20
0B0410
2B0000
2B8D80
2D11E2
2B00B4
2B00B3
2B00C0
1C8840
ENDCHAR
STARTCHAR uni0254
ENCODING 596
SWIDTH 454 0
DWIDTH 5 0
BBX 5 6 0 0
BITMAP
1BE900
511C50
000680
000480
650740
3B6600
ENDCHAR
STARTCHAR uni0255
ENCODING 597
SWIDTH 447 0
DWIDTH 5 0
BBX 5 8 0 -2
BITMAP
077C30
560440
840000
963730
6D7070
0BC930
060000
030000
ENDCHAR
STARTCHAR uni0256
ENCODING 598
SWIDTH 528 0
DWIDTH 6 0
BBX 7 12 0 -3
BITMAP
0007C000
0001D000
0001D000
0779D000
4801D000
8501D000
9601D000
6B02D000
0CD7D000
0000D000
0000C040
000068B0
ENDCHAR
STARTCHAR uni0257
ENCODING 599
SWIDTH 542 0
DWIDTH 6 0
BBX 8 9 0 0
BITMAP
000058C1
0000B050
0000D000
078AD000
4802D000
8501D000
9601D000
6A02D000
0CD7E500
ENDCHAR
STARTCHAR uni0258
ENCODING 600
SWIDTH 466 0
DWIDTH 5 0
BBX 5 6 0 0
BITMAP
098910
590480
6989B0
0003B0
410A70
1BEA10
ENDCHAR
STARTCHAR uni0259
ENCODING 601
SWIDTH 464 0
DWIDTH 5 0
BBX 5 6 0 0
BITMAP
1BEA00
411B70
0004A0
6978A0
680570
0A7810
ENDCHAR
STARTCHAR uni025A
ENCODING 602
SWIDTH 642 0
DWIDTH 7 0
BBX 7 6 0 0
BITMAP
1AE90000
511B9930
0004A770
6978A000
68057000
0A781000
ENDCHAR
STARTCHAR uni025B
ENCODING 603
SWIDTH 399 0
DWIDTH 4 0
BBX 5 6 0 0
BITMAP
3A7B10
680300
0BA100
680000
960110
2CA700
ENDCHAR
STARTCHAR uni025C
ENCODING 604
SWIDTH 398 0
DWIDTH 4 0
BBX 4 6 0 0
BITMAP
7987
202C
07C3
002C
201E
4AB6
ENDCHAR
STARTCHAR uni025D
ENCODING 605
SWIDTH 575 0
DWIDTH 6 0
BBX 7 6 0 0
BITMAP
6A860000
512DA120
07C44910
002A0000
201E0000
4AB60000
ENDCHAR
STARTCHAR uni025E
ENCODING 606
SWIDTH 500 0
DWIDTH 6 0
BBX 6 6 0 0
BITMAP
078880
4900D0
955C40
9501D0
5900E1
077970
ENDCHAR
STARTCHAR uni025F
ENCODING 607
SWIDTH 272 0
DWIDTH 3 0
BBX 4 9 -1 -3
BITMAP
06E1
00D1
00D1
06E8
00D1
00D1
00D1
40C0
B960
ENDCHAR
STARTCHAR uni0260
ENCODING 608
SWIDTH 541 0
DWIDTH 6 0
BBX 8 12 0 -3
BITMAP
000046C3
0000B032
0000D000
0789D000
4802D000
8501D000
9601D000
7B02D000
1BD8D000
0001C000
35039000
2C781000
ENDCHAR
STARTCHAR uni0261
ENCODING 609
SWIDTH 521 0
DWIDTH 6 0
BBX 5 9 0 -3
BITMAP
0789A0
4802D0
8501D0
9601D0
7B02D0
1BD8D0
0001C0
350390
2C7810
ENDCHAR
STARTCHAR uni0262
ENCODING 610
SWIDTH 535 0
DWIDTH 6 0
BBX 6 6 0 0
BITMAP
0788E2
5A0062
970000
8703A5
5A00C2
0886A1
ENDCHAR
STARTCHAR uni0263
ENCODING 611
SWIDTH 479 0
DWIDTH 5 0
BBX 7 9 -1 -3
BITMAP
1BC13D30
03C01800
00D25300
00878000
003C7000
000D3000
001D8000
0046B000
00397000
ENDCHAR
STARTCHAR uni0264
ENCODING 612
SWIDTH 466 0
DWIDTH 5 0
BBX 5 6 0 0
BITMAP
A897B0
61C570
062C00
070D10
070D10
067800
ENDCHAR
STARTCHAR uni0265
ENCODING 613
SWIDTH 553 0
DWIDTH 6 0
BBX 6 9 0 -3
BITMAP
6D02C3
0E00B3
0E00B3
0E00B3
0E11C3
07D8B3
0000B3
0000B3
0000B9
ENDCHAR
STARTCHAR uni0266
ENCODING 614
SWIDTH 577 0
DWIDTH 6 0
BBX 7 9 0 0
BITMAP
037C5000
0B023000
0D000000
0E6CB000
0E30C300
0E009400
0E009400
0E009400
4F62C910
ENDCHAR
STARTCHAR uni0267
ENCODING 615
SWIDTH 562 0
DWIDTH 6 0
BBX 6 12 0 -3
BITMAP
037C50
0B0230
0D0000
0E6CB0
0E30C3
0E0094
0E0094
0E0094
4F6094
000094
0031A2
008B70
ENDCHAR
STARTCHAR uni0268
ENCODING 616
SWIDTH 295 0
DWIDTH 3 0
BBX 3 9 0 0
BITMAP
0C30
0400
0000
3D10
0C10
4E70
0C10
0D10
3E70
ENDCHAR
STARTCHAR uni0269
ENCODING 617
SWIDTH 286 0
DWIDTH 3 0
BBX 4 6 0 0
BITMAP
6D00
0E00
0E00
0E00
0E01
0BA2
ENDCHAR
STARTCHAR uni026A
ENCODING 618
SWIDTH 287 0
DWIDTH 3 0
BBX 3 6 0 0
BITMAP
4E60
0D00
0D00
0D00
0D00
4F60
ENDCHAR
STARTCHAR uni026B
ENCODING 619
SWIDTH 290 0
DWIDTH 3 0
BBX 4 9 0 0
BITMAP
5D00
0D00
0D00
0D00
8E91
0D00
0D00
0D00
4F60
ENDCHAR
STARTCHAR uni026C
ENCODING 620
SWIDTH 318 0
DWIDTH 4 0
BBX 4 9 0 0
BITMAP
2B50
0850
0850
8B50
9863
9DA1
0850
0950
2CA1
ENDCHAR
STARTCHAR uni026D
ENCODING 621
SWIDTH 248 0
DWIDTH 3 0
BBX 4 12 0 -3
BITMAP
7B00
2C00
2C00
2C00
2C00
2C00
2C00
2C00
2C00
1C00
0C04
06AA
ENDCHAR
STARTCHAR uni026E
ENCODING 622
SWIDTH 590 0
DWIDTH 6 0
BBX 7 12 0 -3
BITMAP
5E000000
0E000000
0E000000
0E889E10
0E00A700
0E04C000
0E0D5000
0E039800
5F700D30
00000B40
01800C10
00B77300
ENDCHAR
STARTCHAR uni026F
ENCODING 623
SWIDTH 846 0
DWIDTH 9 0
BBX 9 6 0 0
BITMAP
6D04E03D30
0E00D00B30
0E00D00B30
0E00D00B30
0E01E10C30
08B77C7A80
ENDCHAR
STARTCHAR uni0270
ENCODING 624
SWIDTH 826 0
DWIDTH 9 0
BBX 9 9 0 -3
BITMAP
6D04E03D30
0E00D00B30
0E00D00B30
0E00D00B30
0E11E21C30
08C77D8B30
0000000A30
0000000A30
0000000A90
ENDCHAR
STARTCHAR uni0271
ENCODING 625
SWIDTH 835 0
DWIDTH 9 0
BBX 9 9 0 -3
BITMAP
5E5BB5BC10
0D30C60B40
0D00B30950
0D00B30950
0D00B30950
4F63D90950
0000000940
0000031A20
000008B700
ENDCHAR
STARTCHAR uni0272
ENCODING 626
SWIDTH 574 0
DWIDTH 6 0
BBX 7 9 -1 -3
BITMAP
05E5AB00
00E30C30
00E00A40
00E00A40
00E00A40
00D03D90
00D00000
40C00000
C9500000
ENDCHAR
STARTCHAR uni0273
ENCODING 627
SWIDTH 563 0
DWIDTH 6 0
BBX 8 9 0 -3
BITMAP
5E5BB000
0E30C300
0D00A400
0D00A400
0D00A400
4F60A400
00009400
00007531
000019C3
ENDCHAR
STARTCHAR uni0274
ENCODING 628
SWIDTH 568 0
DWIDTH 6 0
BBX 6 6 0 0
BITMAP
6E309A
0CC025
07A824
071D64
0703E4
6C2074
ENDCHAR
STARTCHAR uni0275
ENCODING 629
SWIDTH 514 0
DWIDTH 6 0
BBX 6 6 0 0
BITMAP
087940
5800D1
9A77D3
8700C3
5B00D1
088940
ENDCHAR
STARTCHAR uni0276
ENCODING 630
SWIDTH 732 0
DWIDTH 8 0
BBX 8 6 0 0
BITMAP
089BD9B6
5A03B014
8703D7A0
8703B050
5903B005
0879D688
ENDCHAR
STARTCHAR uni0277
ENCODING 631
SWIDTH 672 0
DWIDTH 7 0
BBX 7 6 0 0
BITMAP
03978700
2B000770
870A31E0
960C30F0
690A12D0
0A847A30
ENDCHAR
STARTCHAR uni0278
ENCODING 632
SWIDTH 658 0
DWIDTH 7 0
BBX 7 12 0 -3
BITMAP
004D1000
000D1000
000D1000
079E9910
4B0D1980
870D14C0
970D13C0
5B0D1670
087E7800
000D1000
000D1000
004F7000
ENDCHAR
STARTCHAR uni0279
ENCODING 633
SWIDTH 380 0
DWIDTH 4 0
BBX 4 6 0 0
BITMAP
06F6
00D1
00D1
00D1
32E1
C8C6
ENDCHAR
STARTCHAR uni027A
ENCODING 634
SWIDTH 374 0
DWIDTH 4 0
BBX 4 9 0 0
BITMAP
04D1
00D1
00D1
00D1
00D1
00D1
00D1
32E1
C8C6
ENDCHAR
STARTCHAR uni027B
ENCODING 635
SWIDTH 375 0
DWIDTH 4 0
BBX 6 9 0 -3
BITMAP
06F600
00D100
00D100
00D100
32E100
C8C100
00C100
00A240
0039D1
ENDCHAR
STARTCHAR uni027C
ENCODING 636
SWIDTH 378 0
DWIDTH 4 0
BBX 4 9 0 -3
BITMAP
5D6E
0E44
0E00
0E00
0E00
0E00
0E00
0E00
5F80
ENDCHAR
STARTCHAR uni027D
ENCODING 637
SWIDTH 373 0
DWIDTH 4 0
BBX 4 9 0 -3
BITMAP
5D6D
0E33
0E00
0E00
0E00
0E00
0D00
0C04
049C
ENDCHAR
STARTCHAR uni027E
ENCODING 638
SWIDTH 371 0
DWIDTH 4 0
BBX 4 6 0 0
BITMAP
048C
0B02
0D00
0E00
0E00
5F70
ENDCHAR
STARTCHAR uni027F
ENCODING 639
SWIDTH 371 0
DWIDTH 4 0
BBX 4 6 0 0
BITMAP
B850
20B0
00D0
00D0
00D0
06F6
ENDCHAR
STARTCHAR uni0280
ENCODING 640
SWIDTH 494 0
DWIDTH 5 0
BBX 6 6 0 0
BITMAP
3F7930
0D0590
0D0670
0D8900
0D1D30
4F54D3
ENDCHAR
STARTCHAR uni0281
ENCODING 641
SWIDTH 494 0
DWIDTH 5 0
BBX 6 6 0 0
BITMAP
4F52E4
0D0A60
0D3D00
0D9910
0D0580
3F7950
ENDCHAR
STARTCHAR uni0282
ENCODING 642
SWIDTH 395 0
DWIDTH 4 0
BBX 4 9 0 -3
BITMAP
3979
8506
4E70
02CA
700E
8888
7000
7020
2990
ENDCHAR
STARTCHAR uni0283
ENCODING 643
SWIDTH 253 0
DWIDTH 3 0
BBX 6 12 -2 -3
BITMAP
00058B
000B04
001D00
001D00
001D00
001D00
001D00
001D00
001D00
001C00
031A00
1C8400
ENDCHAR
STARTCHAR uni0284
ENCODING 644
SWIDTH 286 0
DWIDTH 3 0
BBX 5 12 -1 -3
BITMAP
0038C0
00A110
00D100
00E100
00E100
00E100
00E100
00E100
05E600
00D000
10B000
B75000
ENDCHAR
STARTCHAR uni0285
ENCODING 645
SWIDTH 361 0
DWIDTH 4 0
BBX 6 9 0 -3
BITMAP
A85000
30B000
00D000
00D100
00D100
00D100
00C100
00B130
0048C1
ENDCHAR
STARTCHAR uni0286
ENCODING 646
SWIDTH 253 0
DWIDTH 3 0
BBX 5 12 -1 -3
BITMAP
0058B0
00C050
01D000
01D000
01D000
01D000
01D000
01D000
01D000
58D000
72B600
894000
ENDCHAR
STARTCHAR uni0287
ENCODING 647
SWIDTH 315 0
DWIDTH 3 0
BBX 3 8 0 -2
BITMAP
7D30
1770
0770
0770
0770
5BB0
0760
0300
ENDCHAR
STARTCHAR uni0288
ENCODING 648
SWIDTH 309 0
DWIDTH 3 0
BBX 4 11 0 -3
BITMAP
0300
1C00
4E82
0E00
0E00
0E00
0E00
0E00
0D00
0B04
049C
ENDCHAR
STARTCHAR uni0289
ENCODING 649
SWIDTH 580 0
DWIDTH 6 0
BBX 6 6 0 0
BITMAP
5E03D3
0E00A3
4E66C8
0E00A3
0D20C3
07C8A9
ENDCHAR
STARTCHAR uni028A
ENCODING 650
SWIDTH 548 0
DWIDTH 6 0
BBX 6 6 0 0
BITMAP
2B43B2
0A00A1
590086
780078
5A0095
077780
ENDCHAR
STARTCHAR uni028B
ENCODING 651
SWIDTH 530 0
DWIDTH 6 0
BBX 6 6 0 0
BITMAP
5D01C0
0E0093
0E0045
0E0033
0D1060
06CA40
ENDCHAR
STARTCHAR uni028C
ENCODING 652
SWIDTH 495 0
DWIDTH 5 0
BBX 7 6 -1 0
BITMAP
000B2000
001C8000
0074D000
0080C300
02607800
1B707E30
ENDCHAR
STARTCHAR uni028D
ENCODING 653
SWIDTH 764 0
DWIDTH 8 0
BBX 9 6 0 0
BITMAP
00C10B2000
02D62C7000
074B64C000
080D70D200
2608708700
A709D28E30
ENDCHAR
STARTCHAR uni028E
ENCODING 654
SWIDTH 492 0
DWIDTH 5 0
BBX 6 9 0 0
BITMAP
0007E3
002610
007100
00C100
02C600
074C00
080D30
260790
A707E3
ENDCHAR
STARTCHAR uni028F
ENCODING 655
SWIDTH 454 0
DWIDTH 5 0
BBX 7 6 -1 0
BITMAP
1BB04B10
02D15100
00886000
001E1000
000D0000
004F6000
ENDCHAR
STARTCHAR uni0290
ENCODING 656
SWIDTH 458 0
DWIDTH 5 0
BBX 7 9 0 -3
BITMAP
7A8D7000
503D1000
00B50000
05B00000
1D207000
8D8A9000
00007000
00007110
00005A40
ENDCHAR
STARTCHAR uni0291
ENCODING 657
SWIDTH 458 0
DWIDTH 5 0
BBX 5 8 0 -2
BITMAP
7A8D70
603D10
00B500
05B000
1D3660
8DB870
025000
050000
ENDCHAR
STARTCHAR uni0292
ENCODING 658
SWIDTH 443 0
DWIDTH 5 0
BBX 5 9 0 -3
BITMAP
8A8E60
604C00
00C400
07A000
027C10
000880
0005A0
620760
7A6700
ENDCHAR
STARTCHAR uni0293
ENCODING 659
SWIDTH 443 0
DWIDTH 5 0
BBX 5 11 0 -5
BITMAP
898E60
504C00
01D300
08B000
005C20
000880
480690
716960
38B900
001600
000600
ENDCHAR
STARTCHAR uni0294
ENCODING 660
SWIDTH 383 0
DWIDTH 4 0
BBX 5 9 0 0
BITMAP
476700
930D10
000C20
001D00
029400
0E1000
0E0000
0E0000
5F7000
ENDCHAR
STARTCHAR uni0295
ENCODING 661
SWIDTH 383 0
DWIDTH 4 0
BBX 4 9 0 0
BITMAP
3877
C10B
E000
B300
2A30
00C2
00C2
00C2
04E7
ENDCHAR
STARTCHAR uni0296
ENCODING 662
SWIDTH 408 0
DWIDTH 4 0
BBX 5 9 0 0
BITMAP
4D2000
0C2000
0C2000
0C2000
039300
001D00
000D20
820C10
586600
ENDCHAR
STARTCHAR uni0297
ENCODING 663
SWIDTH 437 0
DWIDTH 5 0
BBX 5 8 0 -2
BITMAP
068C30
290560
750000
940000
950000
770000
3D1250
07DA10
ENDCHAR
STARTCHAR uni0298
ENCODING 664
SWIDTH 736 0
DWIDTH 8 0
BBX 8 9 0 0
BITMAP
01867910
0B3002C0
4A000096
8700006A
9608805B
8704406A
4A000095
0A3002C0
01877910
ENDCHAR
STARTCHAR uni0299
ENCODING 665
SWIDTH 485 0
DWIDTH 5 0
BBX 5 6 0 0
BITMAP
4E7A40
0D06A0
0D8C30
0D0490
0D01E0
4E6860
ENDCHAR
STARTCHAR uni029A
ENCODING 666
SWIDTH 500 0
DWIDTH 6 0
BBX 6 6 0 0
BITMAP
3A7920
6702C0
0BA1D1
6800D1
8602C0
2B7920
ENDCHAR
STARTCHAR uni029B
ENCODING 667
SWIDTH 536 0
DWIDTH 6 0
BBX 7 8 0 0
BITMAP
000018B0
00005220
0788E200
4A006200
87001000
8702A500
5A00B200
0887A100
ENDCHAR
STARTCHAR uni029C
ENCODING 668
SWIDTH 599 0
DWIDTH 7 0
BBX 7 6 0 0
BITMAP
4F61BB10
0D006700
0D66A700
0D006700
0D106700
4F61BB10
ENDCHAR
STARTCHAR uni029D
ENCODING 669
SWIDTH 263 0
DWIDTH 3 0
BBX 4 11 -1 -3
BITMAP
00D1
0040
05E0
00E0
00E0
00E0
00E0
00E0
38E1
70D6
6860
ENDCHAR
STARTCHAR uni029E
ENCODING 670
SWIDTH 542 0
DWIDTH 6 0
BBX 6 9 0 -3
BITMAP
7F46E4
08A1D0
00B7D0
002CD0
0082D0
3C81D0
0001D0
0001D0
0001F4
ENDCHAR
STARTCHAR uni029F
ENCODING 671
SWIDTH 440 0
DWIDTH 5 0
BBX 5 6 0 0
BITMAP
5F5000
0E0000
0E0000
0E0000
0E0050
5F6770
ENDCHAR
STARTCHAR uni02A0
ENCODING 672
SWIDTH 541 0
DWIDTH 6 0
BBX 8 12 0 -3
BITMAP
000048D3
0000B042
0000C000
078AD000
4802D000
8501D000
9601D000
7B02D000
1BD8D000
0001D000
0001D000
0008E400
ENDCHAR
STARTCHAR uni02A1
ENCODING 673
SWIDTH 393 0
DWIDTH 4 0
BBX 5 9 0 0
BITMAP
386800
830C20
000C30
001D10
019500
0D1000
5E8200
0D1000
4E8000
ENDCHAR
STARTCHAR uni02A2
ENCODING 674
SWIDTH 393 0
DWIDTH 4 0
BBX 4 9 0 0
BITMAP
3878
B20C
D200
A400
2A30
00C2
07D9
00B3
04E8
ENDCHAR
STARTCHAR uni02A3
ENCODING 675
SWIDTH 830 0
DWIDTH 9 0
BBX 9 9 0 0
BITMAP
0007C00000
0001D00000
0001D00000
078AE88CA0
4801D02E20
8501D0A700
9601D4D000
6B02ED4070
0CD7FD8AA0
ENDCHAR
STARTCHAR uni02A4
ENCODING 676
SWIDTH 838 0
DWIDTH 9 0
BBX 9 12 0 -3
BITMAP
0007C00000
0001D00000
0001D00000
078AE88BC0
4801D01D40
8501D08900
9601D2E200
6A02D14B50
0CD7E403D0
00000000F0
00004503B0
00003C6810
ENDCHAR
STARTCHAR uni02A5
ENCODING 677
SWIDTH 829 0
DWIDTH 9 0
BBX 9 11 0 -2
BITMAP
0007C00000
0001D00000
0001D00000
078AE88CA0
4801D01E20
8501D09700
9601D3C000
6B01DC4660
0CD7FDA870
0000025000
0000050000
ENDCHAR
STARTCHAR uni02A6
ENCODING 678
SWIDTH 614 0
DWIDTH 7 0
BBX 7 8 0 0
BITMAP
03000000
0B000000
4E8E7B20
0E2B0320
0E0BB200
0E007E20
0D000950
05977810
ENDCHAR
STARTCHAR uni02A7
ENCODING 679
SWIDTH 513 0
DWIDTH 6 0
BBX 7 12 0 -3
BITMAP
00006990
0401B040
1C03B000
4E89B000
0E03B000
0E03B000
0E03B000
0E04B000
0BA5B000
0003A000
01338000
02C82000
ENDCHAR
STARTCHAR uni02A8
ENCODING 680
SWIDTH 687 0
DWIDTH 8 0
BBX 8 8 0 0
BITMAP
03000000
0B000000
4E8389B0
0E0A1061
0E0C0000
0E0E2670
0E0AC152
0B97CA80
ENDCHAR
STARTCHAR uni02A9
ENCODING 681
SWIDTH 866 0
DWIDTH 10 0
BBX 9 12 0 -3
BITMAP
038C100000
0B14000000
0D00000000
6E88C89D30
0D00890690
0D008604A0
0D008604A0
0D108604A0
5F82BB14A0
00000004A0
0000013470
000003C910
ENDCHAR
STARTCHAR uni02AA
ENCODING 682
SWIDTH 595 0
DWIDTH 7 0
BBX 7 9 0 0
BITMAP
8B000000
2C000000
2C000000
2C187B00
2C490600
2C1EA100
2C019D10
1C000B30
07767800
ENDCHAR
STARTCHAR uni02AB
ENCODING 683
SWIDTH 580 0
DWIDTH 6 0
BBX 6 9 0 0
BITMAP
5E0000
0E0000
0E0000
0E88BB
0E00C3
0E06A0
0E1D20
0E8807
4FF99C
ENDCHAR
STARTCHAR uni02AC
ENCODING 684
SWIDTH 599 0
DWIDTH 7 0
BBX 7 9 0 0
BITMAP
894D1930
1C1D1600
09769400
0381B000
77491730
390D0600
0C2C3600
0884A300
0490C000
ENDCHAR
STARTCHAR uni02AD
ENCODING 685
SWIDTH 479 0
DWIDTH 5 0
BBX 5 8 0 0
BITMAP
4EEE80
460280
460280
120130
3EEE70
460280
460280
460280
ENDCHAR
STARTCHAR uni02AE
ENCODING 686
SWIDTH 595 0
DWIDTH 7 0
BBX 8 9 -1 -3
BITMAP
3B8009A0
017404A0
007604A0
007704A0
006906A0
001DA7A0
000004A0
000004A0
000004D3
ENDCHAR
STARTCHAR uni02AF
ENCODING 687
SWIDTH 600 0
DWIDTH 7 0
BBX 9 9 -1 -3
BITMAP
3B8009A000
017404A000
007604A000
007704A000
006906A000
001DA7A000
000003A000
000001A130
0000007A80
ENDCHAR
STARTCHAR uni02B0
ENCODING 688
SWIDTH 488 0
DWIDTH 5 0
BBX 6 6 0 3
BITMAP
6B0000
1B0000
1C7C20
1B0670
1B0570
5D29A1
ENDCHAR
STARTCHAR uni02B1
ENCODING 689
SWIDTH 488 0
DWIDTH 5 0
BBX 6 7 0 3
BITMAP
036600
0A0600
1B0000
1C7C20
1B0670
1B0570
5D29A1
ENDCHAR
STARTCHAR uni02B2
ENCODING 690
SWIDTH 222 0
DWIDTH 2 0
BBX 3 8 -1 1
BITMAP
02B0
0000
04B0
01C0
01C0
01C0
01B0
9850
ENDCHAR
STARTCHAR uni02B3
ENCODING 691
SWIDTH 325 0
DWIDTH 4 0
BBX 4 4 0 3
BITMAP
5BA5
1C00
1B00
5D30
ENDCHAR
STARTCHAR uni02B4
ENCODING 692
SWIDTH 325 0
DWIDTH 4 0
BBX 4 4 0 3
BITMAP
05E2
00C0
01C0
97D2
ENDCHAR
STARTCHAR uni02B5
ENCODING 693
SWIDTH 325 0
DWIDTH 4 0
BBX 5 6 0 1
BITMAP
05E300
00C000
01C000
97C000
00A110
003720
ENDCHAR
STARTCHAR uni02B6
ENCODING 694
SWIDTH 443 0
DWIDTH 5 0
BBX 5 4 0 3
BITMAP
4D4B40
1DA500
1B0C00
4D7A00
ENDCHAR
STARTCHAR uni02B7
ENCODING 695
SWIDTH 653 0
DWIDTH 7 0
BBX 8 4 0 3
BITMAP
992D42B1
1C0A6430
0964C600
03C09500
ENDCHAR
STARTCHAR uni02B8
ENCODING 696
SWIDTH 427 0
DWIDTH 5 0
BBX 5 6 0 1
BITMAP
9B0950
1C0700
086500
02D000
017000
991000
ENDCHAR
STARTCHAR uni02B9
ENCODING 697
SWIDTH 296 0
DWIDTH 3 0
BBX 3 4 0 5
BITMAP
0660
0B20
0A00
2300
ENDCHAR
STARTCHAR uni02BA
ENCODING 698
SWIDTH 456 0
DWIDTH 5 0
BBX 5 4 0 5
BITMAP
066930
0B3D00
0A3700
234100
ENDCHAR
STARTCHAR uni02BB
ENCODING 699
SWIDTH 245 0
DWIDTH 3 0
BBX 3 4 0 5
BITMAP
0400
3500
4E10
0200
ENDCHAR
STARTCHAR uni02BC
ENCODING 700
SWIDTH 244 0
DWIDTH 3 0
BBX 2 3 0 6
BITMAP
5C
09
24
ENDCHAR
STARTCHAR uni02BD
ENCODING 701
SWIDTH 244 0
DWIDTH 3 0
BBX 3 3 0 6
BITMAP
3E10
4600
0600
ENDCHAR
STARTCHAR uni02BE
ENCODING 702
SWIDTH 203 0
DWIDTH 2 0
BBX 2 3 0 6
BITMAP
67
0A
67
ENDCHAR
STARTCHAR uni02BF
ENCODING 703
SWIDTH 203 0
DWIDTH 2 0
BBX 2 3 0 6
BITMAP
49
A0
49
ENDCHAR
STARTCHAR uni02C0
ENCODING 704
SWIDTH 364 0
DWIDTH 4 0
BBX 4 6 0 4
BITMAP
2760
5457
0049
01A3
0C20
0200
ENDCHAR
STARTCHAR uni02C1
ENCODING 705
SWIDTH 364 0
DWIDTH 4 0
BBX 4 6 0 4
BITMAP
1672
7545
9400
4A10
02C0
0020
ENDCHAR
STARTCHAR uni02C2
ENCODING 706
SWIDTH 324 0
DWIDTH 4 0
BBX 4 4 0 5
BITMAP
0011
0691
5A00
0391
ENDCHAR
STARTCHAR uni02C3
ENCODING 707
SWIDTH 324 0
DWIDTH 4 0
BBX 4 4 0 5
BITMAP
2000
4930
03C1
5810
ENDCHAR
STARTCHAR uni02C4
ENCODING 708
SWIDTH 324 0
DWIDTH 4 0
BBX 4 3 0 6
BITMAP
0930
3790
9055
ENDCHAR
STARTCHAR uni02C5
ENCODING 709
SWIDTH 324 0
DWIDTH 4 0
BBX 4 3 0 6
BITMAP
9055
3790
0930
ENDCHAR
STARTCHAR circumflex
ENCODING 710
SWIDTH 342 0
DWIDTH 4 0
BBX 4 2 0 6
BITMAP
0B80
5362
ENDCHAR
STARTCHAR caron
ENCODING 711
SWIDTH 342 0
DWIDTH 4 0
BBX 4 2 0 7
BITMAP
5362
0B80
ENDCHAR
STARTCHAR uni02C8
ENCODING 712
SWIDTH 284 0
DWIDTH 3 0
BBX 1 3 1 6
BITMAP
70
70
70
ENDCHAR
STARTCHAR uni02C9
ENCODING 713
SWIDTH 350 0
DWIDTH 4 0
BBX 4 1 0 7
BITMAP
8BB6
ENDCHAR
STARTCHAR uni02CA
ENCODING 714
SWIDTH 222 0
DWIDTH 2 0
BBX 3 2 0 6
BITMAP
2D10
7300
ENDCHAR
STARTCHAR uni02CB
ENCODING 715
SWIDTH 222 0
DWIDTH 2 0
BBX 2 2 0 6
BITMAP
78
09
ENDCHAR
STARTCHAR uni02CC
ENCODING 716
SWIDTH 284 0
DWIDTH 3 0
BBX 1 3 1 -2
BITMAP
70
70
70
ENDCHAR
STARTCHAR uni02CD
ENCODING 717
SWIDTH 342 0
DWIDTH 4 0
BBX 4 1 0 -2
BITMAP
ABB7
ENDCHAR
STARTCHAR uni02CE
ENCODING 718
SWIDTH 222 0
DWIDTH 2 0
BBX 2 2 0 -2
BITMAP
78
09
ENDCHAR
STARTCHAR uni02CF
ENCODING 719
SWIDTH 223 0
DWIDTH 2 0
BBX 3 2 0 -2
BITMAP
2D10
7300
ENDCHAR
STARTCHAR uni02D0
ENCODING 720
SWIDTH 341 0
DWIDTH 4 0
BBX 2 6 1 0
BITMAP
D9
84
00
00
84
D9
ENDCHAR
STARTCHAR uni02D1
ENCODING 721
SWIDTH 341 0
DWIDTH 4 0
BBX 2 3 1 4
BITMAP
10
D9
84
ENDCHAR
STARTCHAR uni02D2
ENCODING 722
SWIDTH 341 0
DWIDTH 4 0
BBX 3 4 0 1
BITMAP
2B40
00A0
00A0
2B50
ENDCHAR
STARTCHAR uni02D3
ENCODING 723
SWIDTH 341 0
DWIDTH 4 0
BBX 3 4 0 1
BITMAP
07B0
2800
2800
08B0
ENDCHAR
STARTCHAR uni02D4
ENCODING 724
SWIDTH 341 0
DWIDTH 4 0
BBX 4 3 0 2
BITMAP
0410
0510
3981
ENDCHAR
STARTCHAR uni02D5
ENCODING 725
SWIDTH 341 0
DWIDTH 4 0
BBX 4 3 0 2
BITMAP
3981
0510
0410
ENDCHAR
STARTCHAR uni02D6
ENCODING 726
SWIDTH 341 0
DWIDTH 4 0
BBX 3 3 0 2
BITMAP
0100
1A70
0510
ENDCHAR
STARTCHAR uni02D7
ENCODING 727
SWIDTH 341 0
DWIDTH 4 0
BBX 3 1 0 3
BITMAP
1760
ENDCHAR
STARTCHAR breve
ENCODING 728
SWIDTH 353 0
DWIDTH 4 0
BBX 4 3 0 6
BITMAP
1001
7116
2BA1
ENDCHAR
STARTCHAR dotaccent
ENCODING 729
SWIDTH 194 0
DWIDTH 2 0
BBX 2 2 0 6
BITMAP
68
01
ENDCHAR
STARTCHAR ring
ENCODING 730
SWIDTH 265 0
DWIDTH 3 0
BBX 3 3 0 6
BITMAP
3830
8080
3830
ENDCHAR
STARTCHAR ogonek
ENCODING 731
SWIDTH 277 0
DWIDTH 3 0
BBX 3 3 0 -3
BITMAP
1500
8200
5930
ENDCHAR
STARTCHAR tilde
ENCODING 732
SWIDTH 381 0
DWIDTH 4 0
BBX 4 2 0 6
BITMAP
3B56
41B5
ENDCHAR
STARTCHAR hungarumlaut
ENCODING 733
SWIDTH 350 0
DWIDTH 4 0
BBX 4 2 0 6
BITMAP
2B94
7480
ENDCHAR
STARTCHAR uni02DE
ENCODING 734
SWIDTH 205 0
DWIDTH 2 0
BBX 4 2 -1 2
BITMAP
2931
07A0
ENDCHAR
STARTCHAR uni02DF
ENCODING 735
SWIDTH 302 0
DWIDTH 3 0
BBX 3 3 0 5
BITMAP
5780
2C60
3140
ENDCHAR
STARTCHAR uni02E0
ENCODING 736
SWIDTH 413 0
DWIDTH 5 0
BBX 5 6 0 1
BITMAP
AA0A40
1C0700
097300
03C000
04B100
059100
ENDCHAR
STARTCHAR uni02E1
ENCODING 737
SWIDTH 244 0
DWIDTH 3 0
BBX 3 6 0 3
BITMAP
5B00
1B00
1B00
1B00
1B00
5D20
ENDCHAR
STARTCHAR uni02E2
ENCODING 738
SWIDTH 337 0
DWIDTH 4 0
BBX 4 4 0 3
BITMAP
6792
6A31
33B3
8793
ENDCHAR
STARTCHAR uni02E3
ENCODING 739
SWIDTH 445 0
DWIDTH 5 0
BBX 5 4 0 3
BITMAP
4E2B30
05A200
05A500
592E40
ENDCHAR
STARTCHAR uni02E4
ENCODING 740
SWIDTH 364 0
DWIDTH 4 0
BBX 4 6 0 3
BITMAP
185A
7504
5800
0691
00A2
02D6
ENDCHAR
STARTCHAR uni02E5
ENCODING 741
SWIDTH 423 0
DWIDTH 5 0
BBX 5 9 0 0
BITMAP
5BBC30
000530
000530
000530
000530
000530
000530
000530
000210
ENDCHAR
STARTCHAR uni02E6
ENCODING 742
SWIDTH 414 0
DWIDTH 5 0
BBX 5 10 0 -1
BITMAP
000100
000720
000720
6BBD20
000720
000720
000720
000720
000720
000210
ENDCHAR
STARTCHAR uni02E7
ENCODING 743
SWIDTH 414 0
DWIDTH 5 0
BBX 5 9 0 0
BITMAP
000410
000720
000720
000720
6BBD20
000720
000720
000720
000610
ENDCHAR
STARTCHAR uni02E8
ENCODING 744
SWIDTH 414 0
DWIDTH 5 0
BBX 5 10 0 -1
BITMAP
000100
000720
000720
000720
000720
000720
6BBD20
000720
000720
000210
ENDCHAR
STARTCHAR uni02E9
ENCODING 745
SWIDTH 414 0
DWIDTH 5 0
BBX 5 9 0 0
BITMAP
000410
000720
000720
000720
000720
000720
000720
000720
6BBC10
ENDCHAR
STARTCHAR uni02EC
ENCODING 748
SWIDTH 341 0
DWIDTH 4 0
BBX 4 3 0 -2
BITMAP
5133
39A0
0950
ENDCHAR
STARTCHAR uni02ED
ENCODING 749
SWIDTH 380 0
DWIDTH 4 0
BBX 4 2 0 7
BITMAP
7BB9
7BB9
ENDCHAR
STARTCHAR uni02F7
ENCODING 759
SWIDTH 381 0
DWIDTH 4 0
BBX 4 2 0 -2
BITMAP
3B56
41B5
ENDCHAR
STARTCHAR uni0300
ENCODING 768
SWIDTH 0 0
DWIDTH 0 0
BBX 2 2 -4 6
BITMAP
77
09
ENDCHAR
STARTCHAR uni0301
ENCODING 769
SWIDTH 0 0
DWIDTH 0 0
BBX 2 2 -3 6
BITMAP
87
90
ENDCHAR
STARTCHAR uni0302
ENCODING 770
SWIDTH 0 0
DWIDTH 0 0
BBX 3 2 -4 6
BITMAP
3D20
8180
ENDCHAR
STARTCHAR uni0303
ENCODING 771
SWIDTH 0 0
DWIDTH 0 0
BBX 5 2 -5 6
BITMAP
0A9420
227A00
ENDCHAR
STARTCHAR uni0304
ENCODING 772
SWIDTH 0 0
DWIDTH 0 0
BBX 5 1 -5 7
BITMAP
1BBB10
ENDCHAR
STARTCHAR uni0305
ENCODING 773
SWIDTH 0 0
DWIDTH 0 0
BBX 5 1 -5 7
BITMAP
5BBBB0
ENDCHAR
STARTCHAR uni0306
ENCODING 774
SWIDTH 0 0
DWIDTH 0 0
BBX 4 2 -5 6
BITMAP
1607
07B6
ENDCHAR
STARTCHAR uni0307
ENCODING 775
SWIDTH 0 0
DWIDTH 0 0
BBX 2 2 -4 6
BITMAP
1D
01
ENDCHAR
STARTCHAR uni0308
ENCODING 776
SWIDTH 0 0
DWIDTH 0 0
BBX 5 2 -5 6
BITMAP
3B0C30
010100
ENDCHAR
STARTCHAR uni0309
ENCODING 777
SWIDTH 0 0
DWIDTH 0 0
BBX 3 3 -4 6
BITMAP
2730
1280
0710
ENDCHAR
STARTCHAR uni030A
ENCODING 778
SWIDTH 0 0
DWIDTH 0 0
BBX 3 3 -4 6
BITMAP
3830
8080
3830
ENDCHAR
STARTCHAR uni030B
ENCODING 779
SWIDTH 0 0
DWIDTH 0 0
BBX 4 2 -4 6
BITMAP
1B85
6490
ENDCHAR
STARTCHAR uni030C
ENCODING 780
SWIDTH 0 0
DWIDTH 0 0
BBX 3 2 -4 7
BITMAP
8180
3D20
ENDCHAR
STARTCHAR uni030D
ENCODING 781
SWIDTH 0 0
DWIDTH 0 0
BBX 1 3 -3 6
BITMAP
80
90
90
ENDCHAR
STARTCHAR uni030E
ENCODING 782
SWIDTH 0 0
DWIDTH 0 0
BBX 3 3 -4 6
BITMAP
8170
9180
9180
ENDCHAR
STARTCHAR uni030F
ENCODING 783
SWIDTH 0 0
DWIDTH 0 0
BBX 4 2 -5 6
BITMAP
68B0
0955
ENDCHAR
STARTCHAR uni0310
ENCODING 784
SWIDTH 0 0
DWIDTH 0 0
BBX 4 3 -5 6
BITMAP
12D2
1717
07B6
ENDCHAR
STARTCHAR uni0311
ENCODING 785
SWIDTH 0 0
DWIDTH 0 0
BBX 4 2 -5 7
BITMAP
07B5
1708
ENDCHAR
STARTCHAR uni0312
ENCODING 786
SWIDTH 0 0
DWIDTH 0 0
BBX 3 4 -4 6
BITMAP
0200
2600
3E10
0100
ENDCHAR
STARTCHAR uni0313
ENCODING 787
SWIDTH 0 0
DWIDTH 0 0
BBX 3 3 -4 6
BITMAP
2E10
0810
1400
ENDCHAR
STARTCHAR uni0314
ENCODING 788
SWIDTH 0 0
DWIDTH 0 0
BBX 3 3 -4 6
BITMAP
2E10
2700
0400
ENDCHAR
STARTCHAR uni0315
ENCODING 789
SWIDTH 0 0
DWIDTH 0 0
BBX 2 3 -3 6
BITMAP
94
91
30
ENDCHAR
STARTCHAR uni0316
ENCODING 790
SWIDTH 0 0
DWIDTH 0 0
BBX 2 2 -4 -3
BITMAP
87
09
ENDCHAR
STARTCHAR uni0317
ENCODING 791
SWIDTH 0 0
DWIDTH 0 0
BBX 2 2 -3 -3
BITMAP
69
90
ENDCHAR
STARTCHAR uni0318
ENCODING 792
SWIDTH 0 0
DWIDTH 0 0
BBX 3 3 -4 -3
BITMAP
0010
2940
0340
ENDCHAR
STARTCHAR uni0319
ENCODING 793
SWIDTH 0 0
DWIDTH 0 0
BBX 3 3 -4 -3
BITMAP
1000
5820
5200
ENDCHAR
STARTCHAR uni031A
ENCODING 794
SWIDTH 0 0
DWIDTH 0 0
BBX 3 3 -4 6
BITMAP
8B90
0090
0080
ENDCHAR
STARTCHAR uni031B
ENCODING 795
SWIDTH 0 0
DWIDTH 0 0
BBX 2 3 -2 5
BITMAP
03
0B
64
ENDCHAR
STARTCHAR uni031C
ENCODING 796
SWIDTH 0 0
DWIDTH 0 0
BBX 3 3 -4 -3
BITMAP
1810
5300
1810
ENDCHAR
STARTCHAR uni031D
ENCODING 797
SWIDTH 0 0
DWIDTH 0 0
BBX 3 3 -4 -3
BITMAP
0200
0700
4940
ENDCHAR
STARTCHAR uni031E
ENCODING 798
SWIDTH 0 0
DWIDTH 0 0
BBX 3 3 -4 -3
BITMAP
4940
0700
0100
ENDCHAR
STARTCHAR uni031F
ENCODING 799
SWIDTH 0 0
DWIDTH 0 0
BBX 3 3 -4 -3
BITMAP
0100
4A40
0600
ENDCHAR
STARTCHAR uni0320
ENCODING 800
SWIDTH 0 0
DWIDTH 0 0
BBX 3 1 -4 -2
BITMAP
4740
ENDCHAR
STARTCHAR uni0321
ENCODING 801
SWIDTH 0 0
DWIDTH 0 0
BBX 4 4 -5 -3
BITMAP
0064
0094
62A1
5950
ENDCHAR
STARTCHAR uni0322
ENCODING 802
SWIDTH 0 0
DWIDTH 0 0
BBX 4 4 -3 -3
BITMAP
6400
8500
5643
07A3
ENDCHAR
STARTCHAR uni0323
ENCODING 803
SWIDTH 0 0
DWIDTH 0 0
BBX 2 2 -4 -3
BITMAP
1D
01
ENDCHAR
STARTCHAR uni0324
ENCODING 804
SWIDTH 0 0
DWIDTH 0 0
BBX 5 2 -5 -3
BITMAP
3B0C30
010100
ENDCHAR
STARTCHAR uni0325
ENCODING 805
SWIDTH 0 0
DWIDTH 0 0
BBX 3 3 -4 -3
BITMAP
3830
8080
3830
ENDCHAR
STARTCHAR uni0326
ENCODING 806
SWIDTH 0 0
DWIDTH 0 0
BBX 3 3 -4 -4
BITMAP
2E10
0810
1400
ENDCHAR
STARTCHAR uni0327
ENCODING 807
SWIDTH 0 0
DWIDTH 0 0
BBX 3 4 -4 -3
BITMAP
0200
0930
0280
3820
ENDCHAR
STARTCHAR uni0328
ENCODING 808
SWIDTH 0 0
DWIDTH 0 0
BBX 3 3 -4 -3
BITMAP
0500
7300
5A40
ENDCHAR
STARTCHAR uni0329
ENCODING 809
SWIDTH 0 0
DWIDTH 0 0
BBX 1 3 -3 -3
BITMAP
10
90
90
ENDCHAR
STARTCHAR uni032A
ENCODING 810
SWIDTH 0 0
DWIDTH 0 0
BBX 3 2 -4 -2
BITMAP
8780
5050
ENDCHAR
STARTCHAR uni032B
ENCODING 811
SWIDTH 0 0
DWIDTH 0 0
BBX 5 2 -5 -2
BITMAP
325320
188800
ENDCHAR
STARTCHAR uni032C
ENCODING 812
SWIDTH 0 0
DWIDTH 0 0
BBX 3 2 -4 -2
BITMAP
8180
3D20
ENDCHAR
STARTCHAR uni032D
ENCODING 813
SWIDTH 0 0
DWIDTH 0 0
BBX 3 2 -4 -2
BITMAP
3E20
8180
ENDCHAR
STARTCHAR uni032E
ENCODING 814
SWIDTH 0 0
DWIDTH 0 0
BBX 4 2 -5 -3
BITMAP
1607
07B6
ENDCHAR
STARTCHAR uni032F
ENCODING 815
SWIDTH 0 0
DWIDTH 0 0
BBX 4 2 -5 -2
BITMAP
08B7
1506
ENDCHAR
STARTCHAR uni0330
ENCODING 816
SWIDTH 0 0
DWIDTH 0 0
BBX 5 2 -5 -2
BITMAP
0A8510
318900
ENDCHAR
STARTCHAR uni0331
ENCODING 817
SWIDTH 0 0
DWIDTH 0 0
BBX 5 1 -5 -2
BITMAP
1BBB10
ENDCHAR
STARTCHAR uni0332
ENCODING 818
SWIDTH 0 0
DWIDTH 0 0
BBX 7 1 -6 -2
BITMAP
39999930
ENDCHAR
STARTCHAR uni0333
ENCODING 819
SWIDTH 0 0
DWIDTH 0 0
BBX 7 2 -6 -3
BITMAP
4BBBBB30
4BBBBB30
ENDCHAR
STARTCHAR uni0334
ENCODING 820
SWIDTH 0 0
DWIDTH 0 0
BBX 5 2 -5 2
BITMAP
0B8530
418B00
ENDCHAR
STARTCHAR uni0335
ENCODING 821
SWIDTH 0 0
DWIDTH 0 0
BBX 5 1 -5 3
BITMAP
288820
ENDCHAR
STARTCHAR uni0336
ENCODING 822
SWIDTH 0 0
DWIDTH 0 0
BBX 7 1 -6 3
BITMAP
38888820
ENDCHAR
STARTCHAR uni0337
ENCODING 823
SWIDTH 0 0
DWIDTH 0 0
BBX 3 3 -4 3
BITMAP
0010
0550
7300
ENDCHAR
STARTCHAR uni0338
ENCODING 824
SWIDTH 0 0
DWIDTH 0 0
BBX 5 11 -5 -2
BITMAP
000040
000270
000720
000900
004500
008000
018000
063000
090000
260000
810000
ENDCHAR
STARTCHAR uni0339
ENCODING 825
SWIDTH 0 0
DWIDTH 0 0
BBX 3 3 -4 -3
BITMAP
1810
0440
1800
ENDCHAR
STARTCHAR uni033A
ENCODING 826
SWIDTH 0 0
DWIDTH 0 0
BBX 3 2 -4 -2
BITMAP
5050
8780
ENDCHAR
STARTCHAR uni033B
ENCODING 827
SWIDTH 0 0
DWIDTH 0 0
BBX 3 3 -4 -3
BITMAP
5750
7070
5750
ENDCHAR
STARTCHAR uni033C
ENCODING 828
SWIDTH 0 0
DWIDTH 0 0
BBX 5 2 -5 -2
BITMAP
2B7B10
007000
ENDCHAR
STARTCHAR uni033D
ENCODING 829
SWIDTH 0 0
DWIDTH 0 0
BBX 3 2 -4 6
BITMAP
4840
4840
ENDCHAR
STARTCHAR uni033E
ENCODING 830
SWIDTH 0 0
DWIDTH 0 0
BBX 2 5 -4 5
BITMAP
01
09
0B
09
12
ENDCHAR
STARTCHAR uni033F
ENCODING 831
SWIDTH 0 0
DWIDTH 0 0
BBX 5 2 -5 6
BITMAP
8BBB70
8BBB70
ENDCHAR
STARTCHAR uni0346
ENCODING 838
SWIDTH 0 0
DWIDTH 0 0
BBX 5 2 -5 6
BITMAP
2CBC10
280810
ENDCHAR
STARTCHAR uni0347
ENCODING 839
SWIDTH 0 0
DWIDTH 0 0
BBX 5 2 -5 -3
BITMAP
3BBB30
3BBB30
ENDCHAR
STARTCHAR uni034C
ENCODING 844
SWIDTH 0 0
DWIDTH 0 0
BBX 5 3 -5 6
BITMAP
1ABA10
0A9420
227A00
ENDCHAR
STARTCHAR uni034D
ENCODING 845
SWIDTH 0 0
DWIDTH 0 0
BBX 6 3 -6 -4
BITMAP
032022
1ECBCD
032023
ENDCHAR
STARTCHAR uni0359
ENCODING 857
SWIDTH 0 0
DWIDTH 0 0
BBX 4 4 -5 -5
BITMAP
0181
1888
1889
0080
ENDCHAR
STARTCHAR uni035C
ENCODING 860
SWIDTH 0 0
DWIDTH 0 0
BBX 8 3 -4 -3
BITMAP
10000001
84000047
07BBBB70
ENDCHAR
STARTCHAR uni0360
ENCODING 864
SWIDTH 0 0
DWIDTH 0 0
BBX 6 2 -3 6
BITMAP
4CA204
403AC4
ENDCHAR
STARTCHAR uni0361
ENCODING 865
SWIDTH 0 0
DWIDTH 0 0
BBX 6 2 -3 7
BITMAP
19BB91
620026
ENDCHAR
STARTCHAR uni0362
ENCODING 866
SWIDTH 0 0
DWIDTH 0 0
BBX 10 3 -5 -4
BITMAP
0000000040
1BBBBBBBE2
0000000040
ENDCHAR
STARTCHAR uni037E
ENCODING 894
SWIDTH 261 0
DWIDTH 3 0
BBX 3 8 0 -2
BITMAP
1D00
0000
0000
0000
0000
2E30
0630
1500
ENDCHAR
STARTCHAR tonos
ENCODING 900
SWIDTH 165 0
DWIDTH 2 0
BBX 2 3 0 7
BITMAP
11
95
80
ENDCHAR
STARTCHAR dieresistonos
ENCODING 901
SWIDTH 426 0
DWIDTH 5 0
BBX 5 3 0 7
BITMAP
002000
86C930
027000
ENDCHAR
STARTCHAR Alphatonos
ENCODING 902
SWIDTH 718 0
DWIDTH 8 0
BBX 8 10 0 0
BITMAP
12000000
58000000
62085000
000DB000
0056F200
00A1B800
01906D00
07A78F40
0B0009B0
8C201AF7
ENDCHAR
STARTCHAR anoteleia
ENCODING 903
SWIDTH 261 0
DWIDTH 3 0
BBX 2 1 0 5
BITMAP
1D
ENDCHAR
STARTCHAR Epsilontonos
ENCODING 904
SWIDTH 745 0
DWIDTH 8 0
BBX 9 10 -1 0
BITMAP
0200000000
0D00000000
272AD88B80
0004C00040
0003C00600
0003D79A00
0003C00500
0003C00030
0003C00090
002AD88BA0
ENDCHAR
STARTCHAR Etatonos
ENCODING 905
SWIDTH 896 0
DWIDTH 10 0
BBX 11 10 -1 0
BITMAP
020000000000
0D0000000000
272AE504DB30
0004C0009600
0004C0009600
0004D777C600
0004C0009600
0004C0009600
0004C0009600
002AE604DB30
ENDCHAR
STARTCHAR Iotatonos
ENCODING 906
SWIDTH 478 0
DWIDTH 5 0
BBX 6 10 -1 0
BITMAP
020000
0D0000
272AE5
0003C0
0003C0
0003C0
0003C0
0003C0
0003C0
002AE6
ENDCHAR
STARTCHAR Omicrontonos
ENCODING 908
SWIDTH 806 0
DWIDTH 9 0
BBX 10 10 -1 0
BITMAP
0200000000
0D00000000
2703A89910
001D2008A0
007A0001F2
00A80000D4
00A80000D4
007A0001F1
001D200690
0003A88800
ENDCHAR
STARTCHAR Upsilontonos
ENCODING 910
SWIDTH 787 0
DWIDTH 9 0
BBX 10 10 -1 0
BITMAP
0200000000
4A00000000
543DD304E5
0003E20450
00009A0900
00001E8300
000007B000
000006A000
000006A000
00003BE500
ENDCHAR
STARTCHAR Omegatonos
ENCODING 911
SWIDTH 830 0
DWIDTH 9 0
BBX 10 10 -1 0
BITMAP
0200000000
0D00000000
2703BEE910
001E923BB0
006D0002F3
008A0000E4
005B0001F1
002D100591
0083901A27
00BFF37FF6
ENDCHAR
STARTCHAR iotadieresistonos
ENCODING 912
SWIDTH 259 0
DWIDTH 3 0
BBX 5 9 -1 0
BITMAP
00E100
779A30
001000
03B000
049000
048000
046000
047100
01D700
ENDCHAR
STARTCHAR Alpha
ENCODING 913
SWIDTH 718 0
DWIDTH 8 0
BBX 8 8 0 0
BITMAP
00085000
000DB000
0056F200
00A1B800
01906D00
07A78F40
0B0009B0
8C201AF7
ENDCHAR
STARTCHAR Beta
ENCODING 914
SWIDTH 618 0
DWIDTH 7 0
BBX 7 8 0 0
BITMAP
4DB8B600
08702F00
08703E00
08B9C300
08702B10
08700C50
08700D40
4DB69800
ENDCHAR
STARTCHAR Gamma
ENCODING 915
SWIDTH 569 0
DWIDTH 6 0
BBX 6 8 0 0
BITMAP
8FFFFF
1A711B
087003
087000
087000
087000
1A9100
8FF900
ENDCHAR
STARTCHAR Delta
ENCODING 916
SWIDTH 667 0
DWIDTH 7 0
BBX 7 8 0 0
BITMAP
000B2000
002D7000
0084D000
0180D400
06307A00
09002F10
36000B70
9FFFFFD0
ENDCHAR
STARTCHAR Epsilon
ENCODING 917
SWIDTH 626 0
DWIDTH 7 0
BBX 7 8 0 0
BITMAP
4DB88D30
08700220
08701500
08B7B500
08701400
08700030
08700270
4CB89D50
ENDCHAR
STARTCHAR Zeta
ENCODING 918
SWIDTH 594 0
DWIDTH 7 0
BBX 7 8 0 0
BITMAP
4E99BE10
5300C600
1006C000
002E3000
00A80000
05D10110
1D400620
8E999E00
ENDCHAR
STARTCHAR Eta
ENCODING 919
SWIDTH 777 0
DWIDTH 9 0
BBX 9 8 0 0
BITMAP
3DC307F810
087000E100
087000E100
08B777E100
087000E100
087000E100
087000E100
3CC307F810
ENDCHAR
STARTCHAR Theta
ENCODING 920
SWIDTH 738 0
DWIDTH 8 0
BBX 8 8 0 0
BITMAP
01AEEA10
0CB22AC0
3E2001D5
6C4EE6A8
6C4325A8
3E1000D5
0CB229D1
01AEEA20
ENDCHAR
STARTCHAR Iota
ENCODING 921
SWIDTH 357 0
DWIDTH 4 0
BBX 4 8 0 0
BITMAP
4DC3
0870
0870
0870
0870
0870
0870
4DC3
ENDCHAR
STARTCHAR Kappa
ENCODING 922
SWIDTH 702 0
DWIDTH 8 0
BBX 8 8 0 0
BITMAP
4DC33F91
08705700
08737000
08A80000
08AD3000
0874D200
08706D10
4CC33ED4
ENDCHAR
STARTCHAR Lambda
ENCODING 923
SWIDTH 710 0
DWIDTH 8 0
BBX 8 8 0 0
BITMAP
00094000
001CA000
0062E200
00809800
04503E10
09000C60
4A0008D2
EF503FFC
ENDCHAR
STARTCHAR Mu
ENCODING 924
SWIDTH 895 0
DWIDTH 10 0
BBX 10 8 0 0
BITMAP
4DC0000EB2
09E2005D60
0898009960
083D017960
080C472960
0807A90960
0801E60960
4D60913DB2
ENDCHAR
STARTCHAR Nu
ENCODING 925
SWIDTH 742 0
DWIDTH 8 0
BBX 8 8 0 0
BITMAP
5E8005E6
09E40090
086D1080
080A9080
0801E580
08004E90
080008D0
4E6000A0
ENDCHAR
STARTCHAR Xi
ENCODING 926
SWIDTH 648 0
DWIDTH 7 0
BBX 7 8 0 0
BITMAP
4FFFFF60
44111260
04301500
04FEF600
03423500
10000010
63111270
6FFFFF80
ENDCHAR
STARTCHAR Omicron
ENCODING 927
SWIDTH 738 0
DWIDTH 8 0
BBX 8 8 0 0
BITMAP
01999A20
0B6004D1
3E0000C5
6C000098
6C0000A8
3E0000C5
0C5003C0
01988920
ENDCHAR
STARTCHAR Pi
ENCODING 928
SWIDTH 759 0
DWIDTH 8 0
BBX 8 8 0 0
BITMAP
9FFFFFFF
1A7112E2
087002D0
087002D0
087002D0
087002D0
1A9004E2
9FF82FFF
ENDCHAR
STARTCHAR Rho
ENCODING 929
SWIDTH 569 0
DWIDTH 6 0
BBX 6 8 0 0
BITMAP
3CB8B4
08704D
08702E
087069
08B870
087000
087000
3CC300
ENDCHAR
STARTCHAR Sigma
ENCODING 931
SWIDTH 604 0
DWIDTH 7 0
BBX 7 8 0 0
BITMAP
9FFFFE00
1D412A00
03D20300
006C0000
00370000
01900120
09111730
8FFFFF10
ENDCHAR
STARTCHAR Tau
ENCODING 932
SWIDTH 603 0
DWIDTH 7 0
BBX 7 8 0 0
BITMAP
BAAE9C60
703C0160
103C0010
003C0000
003C0000
003C0000
003D0000
019F6000
ENDCHAR
STARTCHAR Upsilon
ENCODING 933
SWIDTH 647 0
DWIDTH 7 0
BBX 8 8 0 0
BITMAP
9F701B91
0A800900
02E25300
008A8000
001F3000
000E1000
000E2000
007F9100
ENDCHAR
STARTCHAR Phi
ENCODING 934
SWIDTH 718 0
DWIDTH 8 0
BBX 8 8 0 0
BITMAP
00AFF800
003CA300
1B6A98B1
790870B6
880870A7
4D1871D3
049CC930
00AFF800
ENDCHAR
STARTCHAR Chi
ENCODING 935
SWIDTH 664 0
DWIDTH 7 0
BBX 8 8 0 0
BITMAP
5EB12D81
05D02800
00B68100
002E4000
003C9000
0091E400
08206D00
7D206FA1
ENDCHAR
STARTCHAR Psi
ENCODING 936
SWIDTH 720 0
DWIDTH 8 0
BBX 8 8 0 0
BITMAP
D59FF86C
6B1A90C5
4B0870C3
4C0870E3
1F4876E1
05EFFE40
001A9100
00AFF800
ENDCHAR
STARTCHAR Omega
ENCODING 937
SWIDTH 777 0
DWIDTH 9 0
BBX 8 8 0 0
BITMAP
008DFC40
09D427F3
0F4000B9
1F10008A
0E300097
187000D3
62920848
5FFA1FFD
ENDCHAR
STARTCHAR Iotadieresis
ENCODING 938
SWIDTH 357 0
DWIDTH 4 0
BBX 4 10 0 0
BITMAP
B45B
2002
4DC3
0870
0870
0870
0870
0870
0870
4DC3
ENDCHAR
STARTCHAR Upsilondieresis
ENCODING 939
SWIDTH 647 0
DWIDTH 7 0
BBX 8 10 0 0
BITMAP
00E19700
00201100
9F701B91
0A800900
02E25300
008A8000
001F3000
000E1000
000E2000
007F9100
ENDCHAR
STARTCHAR alphatonos
ENCODING 940
SWIDTH 561 0
DWIDTH 6 0
BBX 6 10 0 0
BITMAP
001200
004900
005300
000000
09E979
4817D2
8002A0
700480
7417A1
1DC1CA
ENDCHAR
STARTCHAR epsilontonos
ENCODING 941
SWIDTH 381 0
DWIDTH 4 0
BBX 4 10 0 0
BITMAP
0011
0086
0081
0000
1AEB
6713
2870
3540
7616
2CE8
ENDCHAR
STARTCHAR etatonos
ENCODING 942
SWIDTH 510 0
DWIDTH 6 0
BBX 5 13 0 -3
BITMAP
000200
000D00
001800
000000
9A3E60
4B82A0
0A4090
0B1090
0D0090
1E00B0
0000C0
0002C0
000370
ENDCHAR
STARTCHAR iotatonos
ENCODING 943
SWIDTH 259 0
DWIDTH 3 0
BBX 3 10 0 0
BITMAP
0210
0C10
0900
0000
3B00
4900
4800
4600
4710
1D70
ENDCHAR
STARTCHAR upsilondieresistonos
ENCODING 944
SWIDTH 491 0
DWIDTH 5 0
BBX 5 9 0 0
BITMAP
00D200
67A950
001000
AB0620
3C00A0
0A00B0
1800C0
0A1880
09FB10
ENDCHAR
STARTCHAR alpha
ENCODING 945
SWIDTH 561 0
DWIDTH 6 0
BBX 6 6 0 0
BITMAP
09E979
4817D2
8002A0
700480
7417A1
1DC1CA
ENDCHAR
STARTCHAR beta
ENCODING 946
SWIDTH 530 0
DWIDTH 6 0
BBX 6 12 0 -3
BITMAP
009E90
0661A1
080071
090260
189A30
370081
480055
5C2194
58BE90
680000
780000
430000
ENDCHAR
STARTCHAR gamma
ENCODING 947
SWIDTH 466 0
DWIDTH 5 0
BBX 5 9 0 -3
BITMAP
9C05C0
393960
045C10
028800
00D200
00B000
039000
078000
076000
ENDCHAR
STARTCHAR delta
ENCODING 948
SWIDTH 479 0
DWIDTH 5 0
BBX 5 9 0 0
BITMAP
06EB10
091880
039100
02BC10
2B5880
7101B0
7000B0
761780
1CEA10
ENDCHAR
STARTCHAR epsilon
ENCODING 949
SWIDTH 381 0
DWIDTH 4 0
BBX 4 6 0 0
BITMAP
1AEB
6713
2870
3540
7616
2CE8
ENDCHAR
STARTCHAR zeta
ENCODING 950
SWIDTH 386 0
DWIDTH 4 0
BBX 5 13 0 -4
BITMAP
024000
074770
01CA20
068000
1A0000
630000
700000
810000
5D8300
06BE20
000530
038800
026000
ENDCHAR
STARTCHAR eta
ENCODING 951
SWIDTH 510 0
DWIDTH 6 0
BBX 5 9 0 -3
BITMAP
9A3E60
4B82A0
0A4090
0B1090
0D0090
1E00B0
0000C0
0002C0
000370
ENDCHAR
STARTCHAR theta
ENCODING 952
SWIDTH 514 0
DWIDTH 6 0
BBX 6 9 0 0
BITMAP
04DD10
0B3490
360090
630071
7EEEF2
632281
450080
0B2490
05EC20
ENDCHAR
STARTCHAR iota
ENCODING 953
SWIDTH 259 0
DWIDTH 3 0
BBX 3 6 0 0
BITMAP
3B00
4900
4800
4600
4710
1D70
ENDCHAR
STARTCHAR kappa
ENCODING 954
SWIDTH 495 0
DWIDTH 5 0
BBX 6 6 0 0
BITMAP
9C03D0
4C2D50
09A200
0AA200
0C2912
0E08D2
ENDCHAR
STARTCHAR lambda
ENCODING 955
SWIDTH 506 0
DWIDTH 6 0
BBX 6 9 0 0
BITMAP
08B000
04A200
004400
005700
00A700
048800
0B2900
3C0943
A704E4
ENDCHAR
STARTCHAR mu
ENCODING 956
SWIDTH 552 0
DWIDTH 6 0
BBX 6 9 0 -3
BITMAP
3C00E0
3A00C0
3801A0
370480
4B08A1
6AD4BA
750000
760000
430000
ENDCHAR
STARTCHAR nu
ENCODING 957
SWIDTH 453 0
DWIDTH 5 0
BBX 6 7 -1 -1
BITMAP
0BB066
13C14B
007269
0062B3
0055A0
006C10
001100
ENDCHAR
STARTCHAR xi
ENCODING 958
SWIDTH 390 0
DWIDTH 4 0
BBX 5 12 0 -3
BITMAP
070000
0A7D30
0A6100
280000
08BA00
351100
700000
893000
1CFC10
002950
001530
02D600
ENDCHAR
STARTCHAR omicron
ENCODING 959
SWIDTH 475 0
DWIDTH 5 0
BBX 5 6 0 0
BITMAP
08EC20
491590
800080
800080
672680
1BEA10
ENDCHAR
STARTCHAR pi
ENCODING 960
SWIDTH 591 0
DWIDTH 7 0
BBX 7 6 0 0
BITMAP
3DFFFF30
41718100
00708000
04619000
0A31C200
2E00DA00
ENDCHAR
STARTCHAR rho
ENCODING 961
SWIDTH 515 0
DWIDTH 6 0
BBX 6 9 0 -3
BITMAP
03CE70
0B42B1
280054
380063
4C33B0
58CD40
580000
590000
350000
ENDCHAR
STARTCHAR uni03C2
ENCODING 962
SWIDTH 377 0
DWIDTH 4 0
BBX 5 9 0 -3
BITMAP
08ED00
571200
700000
810000
5C4000
08FA00
002A20
001800
03D400
ENDCHAR
STARTCHAR sigma
ENCODING 963
SWIDTH 545 0
DWIDTH 6 0
BBX 6 6 0 0
BITMAP
07EFFE
4A2261
710090
8000B0
6815B0
1BFC20
ENDCHAR
STARTCHAR tau
ENCODING 964
SWIDTH 392 0
DWIDTH 4 0
BBX 5 6 0 0
BITMAP
6EFF50
518100
026000
055000
068200
03E600
ENDCHAR
STARTCHAR upsilon
ENCODING 965
SWIDTH 491 0
DWIDTH 5 0
BBX 5 6 0 0
BITMAP
AB0620
3C00A0
0A00B0
1800C0
0A1880
09FB10
ENDCHAR
STARTCHAR phi
ENCODING 966
SWIDTH 603 0
DWIDTH 7 0
BBX 7 10 0 -3
BITMAP
00200000
0AC4E800
580B2910
70090530
70270620
58373B00
08EEA200
00480000
00590000
00450000
ENDCHAR
STARTCHAR chi
ENCODING 967
SWIDTH 462 0
DWIDTH 5 0
BBX 7 9 -1 -3
BITMAP
0BA01E30
12827900
0027C100
000C6000
001D0000
009B1000
03C45000
0B51B110
5C009C00
ENDCHAR
STARTCHAR psi
ENCODING 968
SWIDTH 620 0
DWIDTH 7 0
BBX 7 12 0 -3
BITMAP
000D1000
000C0000
000B0000
9B0A1700
3C0A0820
0A0A0750
080A0930
0B2A6D00
05EFB300
000C0000
001D0000
00160000
ENDCHAR
STARTCHAR omega
ENCODING 969
SWIDTH 660 0
DWIDTH 7 0
BBX 7 6 0 0
BITMAP
07700700
4A151370
810D20B0
700B00B0
662A25A0
1CD3DD20
ENDCHAR
STARTCHAR iotadieresis
ENCODING 970
SWIDTH 259 0
DWIDTH 3 0
BBX 5 8 -1 0
BITMAP
490D10
000000
03B000
049000
048000
046000
047100
01D700
ENDCHAR
STARTCHAR upsilondieresis
ENCODING 971
SWIDTH 491 0
DWIDTH 5 0
BBX 5 8 0 0
BITMAP
3B0C20
000000
AB0620
3C00A0
0A00B0
1800C0
0A1880
09FB10
ENDCHAR
STARTCHAR omicrontonos
ENCODING 972
SWIDTH 475 0
DWIDTH 5 0
BBX 5 10 0 0
BITMAP
000200
004A00
005400
000000
08EC20
491590
800080
800080
672680
1BEA10
ENDCHAR
STARTCHAR upsilontonos
ENCODING 973
SWIDTH 491 0
DWIDTH 5 0
BBX 5 10 0 0
BITMAP
001100
008600
008100
000000
AB0620
3C00A0
0A00B0
1800C0
0A1880
09FB10
ENDCHAR
STARTCHAR omegatonos
ENCODING 974
SWIDTH 660 0
DWIDTH 7 0
BBX 7 10 0 0
BITMAP
00011000
00085000
00080000
00000000
07700700
4A151370
810D20B0
700B00B0
662A25A0
1CD3DD20
ENDCHAR
STARTCHAR uni03D0
ENCODING 976
SWIDTH 438 0
DWIDTH 5 0
BBX 5 9 0 0
BITMAP
00AE30
075270
0B3260
36CE20
5ADA00
6B3540
590050
1E2550
06EB00
ENDCHAR
STARTCHAR uni03D1
ENCODING 977
SWIDTH 541 0
DWIDTH 6 0
BBX 6 9 0 0
BITMAP
02DD10
082480
070080
053071
008EF8
5D2072
4A3081
0643B0
02DE30
ENDCHAR
STARTCHAR uni03D2
ENCODING 978
SWIDTH 616 0
DWIDTH 7 0
BBX 7 8 0 0
BITMAP
6EB05E80
23D4B5A0
006B4000
003F1000
002D0000
002D0000
005E2000
04FFF000
ENDCHAR
STARTCHAR uni03D5
ENCODING 981
SWIDTH 575 0
DWIDTH 6 0
BBX 6 12 0 -3
BITMAP
000700
000E00
001C00
03BE80
2C7B98
722909
803807
743729
1DCDD2
018910
007600
009500
ENDCHAR
STARTCHAR uni03D6
ENCODING 982
SWIDTH 821 0
DWIDTH 9 0
BBX 9 6 0 0
BITMAP
6EFFFFFFF0
53A1212910
0620B40B00
0710B10B00
0472A24B00
00BD3CE300
ENDCHAR
STARTCHAR uni03D8
ENCODING 984
SWIDTH 627 0
DWIDTH 7 0
BBX 7 8 0 0
BITMAP
05DFC500
4E416F30
8A000B70
89000A60
4C000D20
06978500
001E0000
018F7000
ENDCHAR
STARTCHAR uni03D9
ENCODING 985
SWIDTH 475 0
DWIDTH 5 0
BBX 5 9 0 -3
BITMAP
08EC20
491590
810080
800080
760480
1BFB10
00A000
00D000
019000
ENDCHAR
STARTCHAR uni03DA
ENCODING 986
SWIDTH 578 0
DWIDTH 6 0
BBX 6 8 0 0
BITMAP
05DFFC
3E415C
890007
990000
5E5000
07EF70
000970
004CC3
ENDCHAR
STARTCHAR uni03DB
ENCODING 987
SWIDTH 490 0
DWIDTH 5 0
BBX 6 9 0 -3
BITMAP
05CFF5
382111
700000
810000
5C3000
09F700
002B00
001700
06C200
ENDCHAR
STARTCHAR uni03DC
ENCODING 988
SWIDTH 588 0
DWIDTH 6 0
BBX 7 8 0 0
BITMAP
4DC89C40
08700130
08702500
08B7C500
08702400
08700000
08700000
4CC40000
ENDCHAR
STARTCHAR uni03DD
ENCODING 989
SWIDTH 386 0
DWIDTH 4 0
BBX 7 10 -2 -4
BITMAP
002FFF20
00291100
00190000
001DD600
00181000
00260000
00340000
10810000
1E900000
01000000
ENDCHAR
STARTCHAR uni03DE
ENCODING 990
SWIDTH 525 0
DWIDTH 6 0
BBX 6 8 0 0
BITMAP
09FC00
02A100
060000
7EEEE5
122290
000440
003B00
00EF70
ENDCHAR
STARTCHAR uni03DF
ENCODING 991
SWIDTH 434 0
DWIDTH 5 0
BBX 6 8 -1 0
BITMAP
1D7000
12A000
007000
0267A0
06C880
000160
000473
0002E5
ENDCHAR
STARTCHAR uni03E0
ENCODING 992
SWIDTH 697 0
DWIDTH 8 0
BBX 8 8 0 0
BITMAP
004D0000
000D5000
001CD000
0072D500
0183BC00
08291D50
192709D1
82914FFB
ENDCHAR
STARTCHAR uni03E1
ENCODING 993
SWIDTH 458 0
DWIDTH 5 0
BBX 6 12 -1 -4
BITMAP
2D4000
05E500
003D10
000890
06D5A1
021075
004C97
003318
000018
000027
000042
000010
ENDCHAR
STARTCHAR uni03F0
ENCODING 1008
SWIDTH 504 0
DWIDTH 6 0
BBX 6 6 0 0
BITMAP
8B00D5
3A1790
063D10
06B800
0B8812
5D05E5
ENDCHAR
STARTCHAR uni03F1
ENCODING 1009
SWIDTH 467 0
DWIDTH 5 0
BBX 5 9 0 -3
BITMAP
05ED20
1A2480
440080
680390
6AFE30
2B2000
07E400
003800
07B200
ENDCHAR
STARTCHAR uni03F4
ENCODING 1012
SWIDTH 737 0
DWIDTH 8 0
BBX 8 8 0 0
BITMAP
01AEEA20
0B8228D1
3D0000B5
6FEEEEF8
6C2222B8
4E1000D5
0CA229C0
01AEEA10
ENDCHAR
STARTCHAR uni03F5
ENCODING 1013
SWIDTH 380 0
DWIDTH 4 0
BBX 4 6 0 0
BITMAP
09FB
4412
8EE3
8210
5726
0AE8
ENDCHAR
STARTCHAR uni03F6
ENCODING 1014
SWIDTH 382 0
DWIDTH 4 0
BBX 4 6 0 0
BITMAP
8EB1
1136
0EEB
0129
5258
6EC1
ENDCHAR
STARTCHAR uni0400
ENCODING 1024
SWIDTH 626 0
DWIDTH 7 0
BBX 7 11 0 0
BITMAP
00450000
00093000
00000000
4DB88D30
08700220
08701500
08B7B500
08701400
08700030
08700270
4CB89D50
ENDCHAR
STARTCHAR uni0401
ENCODING 1025
SWIDTH 626 0
DWIDTH 7 0
BBX 7 10 0 0
BITMAP
03C0C400
00202000
4DB88D30
08700220
08701500
08B7B500
08701400
08700030
08700270
4CB89D50
ENDCHAR
STARTCHAR uni0402
ENCODING 1026
SWIDTH 731 0
DWIDTH 8 0
BBX 8 8 0 0
BITMAP
AAAE9B80
703C0070
003C0000
003D8A91
003C00A8
003C006A
003C2169
019C6982
ENDCHAR
STARTCHAR uni0403
ENCODING 1027
SWIDTH 548 0
DWIDTH 6 0
BBX 6 11 0 0
BITMAP
000540
004800
000000
3DC8AB
087008
087003
087000
087000
087000
087000
3DC400
ENDCHAR
STARTCHAR uni0404
ENCODING 1028
SWIDTH 668 0
DWIDTH 7 0
BBX 7 8 0 0
BITMAP
01999EA0
0C3003A0
4C000060
6D888200
6B000000
4E000000
0C700270
02ACB910
ENDCHAR
STARTCHAR uni0405
ENCODING 1029
SWIDTH 504 0
DWIDTH 6 0
BBX 6 8 0 0
BITMAP
198BC0
6800A0
5D1030
0AE500
005E90
4002F2
8200E1
8D8960
ENDCHAR
STARTCHAR uni0406
ENCODING 1030
SWIDTH 357 0
DWIDTH 4 0
BBX 4 8 0 0
BITMAP
4DC3
0870
0870
0870
0870
0870
0870
4DC3
ENDCHAR
STARTCHAR uni0407
ENCODING 1031
SWIDTH 357 0
DWIDTH 4 0
BBX 4 10 0 0
BITMAP
B45B
2002
4DC3
0870
0870
0870
0870
0870
0870
4DC3
ENDCHAR
STARTCHAR uni0408
ENCODING 1032
SWIDTH 396 0
DWIDTH 4 0
BBX 5 8 0 0
BITMAP
07F910
00E200
00E200
00E200
00E200
00E200
60E100
B88000
ENDCHAR
STARTCHAR uni0409
ENCODING 1033
SWIDTH 924 0
DWIDTH 10 0
BBX 11 8 -1 0
BITMAP
003B98F70000
000620F00000
000700F00000
000800F89700
000800F00A80
001700F005C0
047301F00890
1E9008F88A10
ENDCHAR
STARTCHAR uni040A
ENCODING 1034
SWIDTH 1013 0
DWIDTH 11 0
BBX 11 8 0 0
BITMAP
3DC318F70000
087001F00000
087001F00000
08C999F9A810
087001F00A80
087001F005C0
087001F00890
3CC308F88A10
ENDCHAR
STARTCHAR uni040B
ENCODING 1035
SWIDTH 761 0
DWIDTH 8 0
BBX 9 8 0 0
BITMAP
AAAE8B8000
703C007000
003C000000
003D798000
003C00C400
003C00A600
003C00A600
019E53DB10
ENDCHAR
STARTCHAR uni040C
ENCODING 1036
SWIDTH 658 0
DWIDTH 7 0
BBX 8 11 0 0
BITMAP
00017100
00084000
00000000
3CC30AE1
08703640
08708000
08BA8000
0872E100
08709700
08702E10
3CC30BA2
ENDCHAR
STARTCHAR uni040D
ENCODING 1037
SWIDTH 780 0
DWIDTH 9 0
BBX 9 11 0 0
BITMAP
0045000000
0008400000
0000000000
3DC306F910
087002F200
087008D200
087071D200
087540D200
089600D200
08B000E200
3CC306F910
ENDCHAR
STARTCHAR uni040E
ENCODING 1038
SWIDTH 625 0
DWIDTH 7 0
BBX 7 11 0 0
BITMAP
01C07600
00667200
00000000
9F602CA0
0C400900
04B02600
00C47100
005B7000
000C2000
05280000
0DC10000
ENDCHAR
STARTCHAR uni040F
ENCODING 1039
SWIDTH 759 0
DWIDTH 8 0
BBX 8 11 0 -3
BITMAP
4DC319F7
087002E0
087002D0
087002D0
087002D0
087002D0
087002D0
4CB889F6
00027000
0004A000
00049000
ENDCHAR
STARTCHAR uni0410
ENCODING 1040
SWIDTH 718 0
DWIDTH 8 0
BBX 8 8 0 0
BITMAP
00085000
000DB000
0056F200
00A1B800
01906D00
07A78F40
0B0009B0
8C201AF7
ENDCHAR
STARTCHAR uni0411
ENCODING 1041
SWIDTH 617 0
DWIDTH 7 0
BBX 7 8 0 0
BITMAP
3DC8AD00
08700700
08700000
08B89300
08703E20
08700D40
08701E20
3DB7A500
ENDCHAR
STARTCHAR uni0412
ENCODING 1042
SWIDTH 618 0
DWIDTH 7 0
BBX 7 8 0 0
BITMAP
4DB8B600
08702F00
08703E00
08B9C300
08702B10
08700C50
08700D40
4DB69800
ENDCHAR
STARTCHAR uni0413
ENCODING 1043
SWIDTH 548 0
DWIDTH 6 0
BBX 6 8 0 0
BITMAP
3DC8AB
087008
087003
087000
087000
087000
087000
3DC400
ENDCHAR
STARTCHAR uni0414
ENCODING 1044
SWIDTH 663 0
DWIDTH 7 0
BBX 7 11 0 -3
BITMAP
05D8AE60
00803C00
00803C00
00803C00
03503C00
07103C00
09003C00
BA779E70
D10002C0
80000080
20000020
ENDCHAR
STARTCHAR uni0415
ENCODING 1045
SWIDTH 626 0
DWIDTH 7 0
BBX 7 8 0 0
BITMAP
4DB88D30
08700220
08701500
08B7B500
08701400
08700030
08700270
4CB89D50
ENDCHAR
STARTCHAR uni0416
ENCODING 1046
SWIDTH 937 0
DWIDTH 10 0
BBX 11 8 0 0
BITMAP
9D12AD40AD00
337059036400
008059071000
003CAC980000
00B5591D1000
03D059088000
0A605A02E100
7E12BD40AA20
ENDCHAR
STARTCHAR uni0417
ENCODING 1047
SWIDTH 545 0
DWIDTH 6 0
BBX 6 8 0 0
BITMAP
4A7880
4600D4
3102E2
009D40
0001B3
000099
5200C7
08BC90
ENDCHAR
STARTCHAR uni0418
ENCODING 1048
SWIDTH 780 0
DWIDTH 9 0
BBX 9 8 0 0
BITMAP
3DC306F910
087002F200
087008D200
087071D200
087540D200
089600D200
08B000E200
3CC306F910
ENDCHAR
STARTCHAR uni0419
ENCODING 1049
SWIDTH 780 0
DWIDTH 9 0
BBX 9 11 0 0
BITMAP
00670D1000
00760C1000
0006640000
3DC306F910
087002F200
087008D200
087071D200
087540D200
089600D200
08B000E200
3CC306F910
ENDCHAR
STARTCHAR uni041A
ENCODING 1050
SWIDTH 658 0
DWIDTH 7 0
BBX 8 8 0 0
BITMAP
3CC30AE1
08703640
08708000
08BA8000
0872E100
08709700
08702E10
3CC30BA2
ENDCHAR
STARTCHAR uni041B
ENCODING 1051
SWIDTH 684 0
DWIDTH 8 0
BBX 9 8 -1 0
BITMAP
003B98F810
000620F100
000710F100
000800F100
000800F100
001800F100
047400F100
1E9007F810
ENDCHAR
STARTCHAR uni041C
ENCODING 1052
SWIDTH 895 0
DWIDTH 10 0
BBX 10 8 0 0
BITMAP
4DC0000EB2
09E2005D60
0898009960
083D017960
080C472960
0807A90960
0801E60960
4D60913DB2
ENDCHAR
STARTCHAR uni041D
ENCODING 1053
SWIDTH 777 0
DWIDTH 9 0
BBX 9 8 0 0
BITMAP
3DC307F810
087000E100
087000E100
08B777E100
087000E100
087000E100
087000E100
3CC307F810
ENDCHAR
STARTCHAR uni041E
ENCODING 1054
SWIDTH 738 0
DWIDTH 8 0
BBX 8 8 0 0
BITMAP
01999A20
0B6004D1
3E0000C5
6C000098
6C0000A8
3E0000C5
0C5003C0
01988920
ENDCHAR
STARTCHAR uni041F
ENCODING 1055
SWIDTH 759 0
DWIDTH 8 0
BBX 8 8 0 0
BITMAP
9FFFFFFF
1A7112E2
087002D0
087002D0
087002D0
087002D0
1A9004E2
9FF82FFF
ENDCHAR
STARTCHAR uni0420
ENCODING 1056
SWIDTH 569 0
DWIDTH 6 0
BBX 6 8 0 0
BITMAP
3CB8B4
08704D
08702E
087069
08B870
087000
087000
3CC300
ENDCHAR
STARTCHAR uni0421
ENCODING 1057
SWIDTH 670 0
DWIDTH 7 0
BBX 7 8 0 0
BITMAP
01999EB0
0B5003A0
3D000060
6B000000
6B000000
3E000000
0C800170
01ACB910
ENDCHAR
STARTCHAR uni0422
ENCODING 1058
SWIDTH 603 0
DWIDTH 7 0
BBX 7 8 0 0
BITMAP
BAAE9C60
703C0160
103C0010
003C0000
003C0000
003C0000
003D0000
019F6000
ENDCHAR
STARTCHAR uni0423
ENCODING 1059
SWIDTH 625 0
DWIDTH 7 0
BBX 7 8 0 0
BITMAP
9F602CA0
0C400900
04B02600
00C47100
005B7000
000C2000
05280000
0DC10000
ENDCHAR
STARTCHAR uni0424
ENCODING 1060
SWIDTH 725 0
DWIDTH 8 0
BBX 8 8 0 0
BITMAP
003CB300
049BB940
3C1771D3
87077088
88077087
2D1771C2
038BA720
003CC300
ENDCHAR
STARTCHAR uni0425
ENCODING 1061
SWIDTH 664 0
DWIDTH 7 0
BBX 8 8 0 0
BITMAP
5EB12D81
05D02800
00B68100
002E4000
003C9000
0091E400
08206D00
7D206FA1
ENDCHAR
STARTCHAR uni0426
ENCODING 1062
SWIDTH 756 0
DWIDTH 8 0
BBX 8 11 0 -3
BITMAP
4DC31AF6
087003D0
087003C0
087003C0
087003C0
087003C0
087003C0
4CB779E7
0000002C
00000008
00000002
ENDCHAR
STARTCHAR uni0427
ENCODING 1063
SWIDTH 650 0
DWIDTH 7 0
BBX 7 8 0 0
BITMAP
7F62AE50
1E005A00
1E005A00
0E205A00
05B9AA00
00005A00
00005B00
0003BE50
ENDCHAR
STARTCHAR uni0428
ENCODING 1064
SWIDTH 1053 0
DWIDTH 12 0
BBX 12 8 0 0
BITMAP
4DC24EA16F91
08700B400D20
08700B400D20
08700B400D20
08700B400D20
08700B400D20
08700B400D20
3CB88DA88E91
ENDCHAR
STARTCHAR uni0429
ENCODING 1065
SWIDTH 1044 0
DWIDTH 11 0
BBX 11 11 0 -3
BITMAP
4DC25EA17F80
08700C300F00
08700C300F00
08700C300F00
08700C300F00
08700C300F00
08700C300F00
3CB88D988F90
0000000001C0
000000000080
000000000020
ENDCHAR
STARTCHAR uni042A
ENCODING 1066
SWIDTH 723 0
DWIDTH 8 0
BBX 8 8 0 0
BITMAP
BA9F7000
702D0000
002D0000
002E8960
002D01C6
002D0089
002D00B6
019E8980
ENDCHAR
STARTCHAR uni042B
ENCODING 1067
SWIDTH 887 0
DWIDTH 10 0
BBX 10 8 0 0
BITMAP
4CC3005EA2
0870000B50
0870000B40
08B8920B40
08705D0B40
08700F1B40
08703E0B50
3DB8A45EA2
ENDCHAR
STARTCHAR uni042C
ENCODING 1068
SWIDTH 606 0
DWIDTH 7 0
BBX 7 8 0 0
BITMAP
4DC40000
08700000
08700000
08B89400
08703E20
08700D50
08701E20
3DB8A500
ENDCHAR
STARTCHAR uni042D
ENCODING 1069
SWIDTH 667 0
DWIDTH 7 0
BBX 7 8 0 0
BITMAP
5FA8A500
58001D30
42000790
00788AB0
000006B0
00000980
44002D20
06BBB300
ENDCHAR
STARTCHAR uni042E
ENCODING 1070
SWIDTH 1042 0
DWIDTH 11 0
BBX 11 8 0 0
BITMAP
5ED406A8A500
08705D101C40
0870B60006B0
08B7E40004D0
0870C40004D0
0870960005A0
08703B000A30
3CC304867500
ENDCHAR
STARTCHAR uni042F
ENCODING 1071
SWIDTH 654 0
DWIDTH 7 0
BBX 7 8 0 0
BITMAP
03A7AE50
0C504B00
0D304B00
09904B00
00ACAB00
01E34B00
09905B00
8E22AE40
ENDCHAR
STARTCHAR uni0430
ENCODING 1072
SWIDTH 480 0
DWIDTH 5 0
BBX 6 6 0 0
BITMAP
186A00
470B30
005C30
2A2A30
870B30
4D99A1
ENDCHAR
STARTCHAR uni0431
ENCODING 1073
SWIDTH 520 0
DWIDTH 6 0
BBX 6 9 0 0
BITMAP
0004A1
04DC50
2A1000
667960
8900D2
8800B4
7800A4
3B00C1
078850
ENDCHAR
STARTCHAR uni0432
ENCODING 1074
SWIDTH 505 0
DWIDTH 6 0
BBX 6 6 0 0
BITMAP
4F8960
0D11E0
0D12C0
0D8B50
0D10E1
4E78A0
ENDCHAR
STARTCHAR uni0433
ENCODING 1075
SWIDTH 429 0
DWIDTH 5 0
BBX 5 6 0 0
BITMAP
4E7A70
0D1070
0D1010
0D1000
0D1000
4F7000
ENDCHAR
STARTCHAR uni0434
ENCODING 1076
SWIDTH 530 0
DWIDTH 6 0
BBX 6 9 0 -3
BITMAP
0899C2
0334A0
0524A0
0704A0
0804A0
A969D4
C10048
700007
100001
ENDCHAR
STARTCHAR uni0435
ENCODING 1077
SWIDTH 464 0
DWIDTH 5 0
BBX 5 6 0 0
BITMAP
088A10
560770
9A8980
950000
5C1050
09EB20
ENDCHAR
STARTCHAR uni0436
ENCODING 1078
SWIDTH 754 0
DWIDTH 8 0
BBX 9 6 0 0
BITMAP
A90AC25E00
2515906200
0154915000
00C9BB3000
087493C000
7C09C28A20
ENDCHAR
STARTCHAR uni0437
ENCODING 1079
SWIDTH 435 0
DWIDTH 5 0
BBX 5 6 0 0
BITMAP
787A00
600D20
04C800
000B10
300C40
49AA00
ENDCHAR
STARTCHAR uni0438
ENCODING 1080
SWIDTH 609 0
DWIDTH 7 0
BBX 7 6 0 0
BITMAP
4F60AC20
0D10A900
0D168900
0D545900
0D605900
4F60AC20
ENDCHAR
STARTCHAR uni0439
ENCODING 1081
SWIDTH 609 0
DWIDTH 7 0
BBX 7 9 0 0
BITMAP
02405000
0770C200
01765000
4F60AC20
0D10A900
0D168900
0D545900
0D605900
4F60AC20
ENDCHAR
STARTCHAR uni043A
ENCODING 1082
SWIDTH 521 0
DWIDTH 6 0
BBX 6 6 0 0
BITMAP
4F61D7
0D1521
0D1700
0D8A00
0D1B50
4F62D5
ENDCHAR
STARTCHAR uni043B
ENCODING 1083
SWIDTH 553 0
DWIDTH 6 0
BBX 7 6 -1 0
BITMAP
004C7F50
00070E00
00070E00
00350E00
02710E00
1E805F50
ENDCHAR
STARTCHAR uni043C
ENCODING 1084
SWIDTH 697 0
DWIDTH 8 0
BBX 8 6 0 0
BITMAP
5F500AC2
0CB01C80
08D26780
07877680
072E4680
5B291AC2
ENDCHAR
STARTCHAR uni043D
ENCODING 1085
SWIDTH 605 0
DWIDTH 7 0
BBX 7 6 0 0
BITMAP
4F61AC20
0D106800
0D77A800
0D106800
0D106800
4F61AC20
ENDCHAR
STARTCHAR uni043E
ENCODING 1086
SWIDTH 514 0
DWIDTH 6 0
BBX 6 6 0 0
BITMAP
087940
5901D1
9600C3
8700B3
5A00D1
087840
ENDCHAR
STARTCHAR uni043F
ENCODING 1087
SWIDTH 591 0
DWIDTH 7 0
BBX 7 6 0 0
BITMAP
4F77BA10
0D108600
0D108600
0D108600
0D108600
4F62CA10
ENDCHAR
STARTCHAR uni0440
ENCODING 1088
SWIDTH 537 0
DWIDTH 6 0
BBX 6 9 0 -3
BITMAP
5D6DA0
0E20C4
0E0087
0E0087
0E00A2
0E9860
0E0000
0E0000
5F8000
ENDCHAR
STARTCHAR uni0441
ENCODING 1089
SWIDTH 446 0
DWIDTH 5 0
BBX 5 6 0 0
BITMAP
077C30
560650
840000
950000
6B0150
0AEB10
ENDCHAR
STARTCHAR uni0442
ENCODING 1090
SWIDTH 456 0
DWIDTH 5 0
BBX 5 6 0 0
BITMAP
C8E7C0
60E060
00E000
00E000
00E000
05F500
ENDCHAR
STARTCHAR uni0443
ENCODING 1091
SWIDTH 483 0
DWIDTH 5 0
BBX 7 9 -1 -3
BITMAP
1BC13D30
03D01700
00C35300
00697000
001D6000
000A3000
00080000
01270000
0CB10000
ENDCHAR
STARTCHAR uni0444
ENCODING 1092
SWIDTH 710 0
DWIDTH 8 0
BBX 8 12 0 -3
BITMAP
00042000
003C5000
00085000
0A8CA880
590960C3
870850A5
86085095
590850B2
0A7CA770
00085000
00085000
002CA100
ENDCHAR
STARTCHAR uni0445
ENCODING 1093
SWIDTH 479 0
DWIDTH 5 0
BBX 6 6 0 0
BITMAP
7F37A1
0A5700
02D400
02B800
081D30
980BC2
ENDCHAR
STARTCHAR uni0446
ENCODING 1094
SWIDTH 590 0
DWIDTH 6 0
BBX 7 8 0 -2
BITMAP
4E62C900
0D109500
0D109500
0D109500
0D109500
6F87DB20
00000930
00000430
ENDCHAR
STARTCHAR uni0447
ENCODING 1095
SWIDTH 535 0
DWIDTH 6 0
BBX 6 6 0 0
BITMAP
9C28E3
4A03C0
3B03C0
0888C0
0003C0
0008E3
ENDCHAR
STARTCHAR uni0448
ENCODING 1096
SWIDTH 812 0
DWIDTH 9 0
BBX 9 6 0 0
BITMAP
5F55F46E40
0D00D01C00
0D00D01C00
0D00D01C00
0D00D01C00
4F77F68E40
ENDCHAR
STARTCHAR uni0449
ENCODING 1097
SWIDTH 814 0
DWIDTH 9 0
BBX 9 8 0 -2
BITMAP
4E54F46E30
0D00D02C00
0D00D02C00
0D00D02C00
0D00D02C00
6F78F79E50
00000002A0
0000000070
ENDCHAR
STARTCHAR uni044A
ENCODING 1098
SWIDTH 568 0
DWIDTH 6 0
BBX 6 6 0 0
BITMAP
B7F500
50E000
00E793
00E03D
00E02D
05F7A5
ENDCHAR
STARTCHAR uni044B
ENCODING 1099
SWIDTH 728 0
DWIDTH 8 0
BBX 8 6 0 0
BITMAP
4E6006F4
0D1000D0
0D7930D0
0D13D0D0
0D11D0D0
4F7A55F4
ENDCHAR
STARTCHAR uni044C
ENCODING 1100
SWIDTH 489 0
DWIDTH 5 0
BBX 6 6 0 0
BITMAP
4E6000
0D1000
0D7940
0D11E0
0D10E1
4F7A60
ENDCHAR
STARTCHAR uni044D
ENCODING 1101
SWIDTH 467 0
DWIDTH 5 0
BBX 5 6 0 0
BITMAP
786810
600670
038AA0
0005A0
300970
19AA10
ENDCHAR
STARTCHAR uni044E
ENCODING 1102
SWIDTH 774 0
DWIDTH 9 0
BBX 9 6 0 0
BITMAP
6F7098A300
0D06902D00
0D7C600E10
0D08600D10
0D14801C00
4F60767300
ENDCHAR
STARTCHAR uni044F
ENCODING 1103
SWIDTH 518 0
DWIDTH 6 0
BBX 6 6 0 0
BITMAP
0969C2
4B0590
2D0590
05DA90
097590
7D19C2
ENDCHAR
STARTCHAR uni0450
ENCODING 1104
SWIDTH 464 0
DWIDTH 5 0
BBX 5 8 0 0
BITMAP
05A000
008100
088A10
560770
9A8980
950000
5C1050
09EB20
ENDCHAR
STARTCHAR uni0451
ENCODING 1105
SWIDTH 464 0
DWIDTH 5 0
BBX 5 8 0 0
BITMAP
1D0950
010100
088A10
560770
9A8980
950000
5C1050
09EB20
ENDCHAR
STARTCHAR uni0452
ENCODING 1106
SWIDTH 563 0
DWIDTH 6 0
BBX 6 12 0 -3
BITMAP
160000
6F1000
6E9700
0D6CB0
0D40B3
0D1085
0D1086
0D1086
4E6085
000093
0040A0
00D940
ENDCHAR
STARTCHAR uni0453
ENCODING 1107
SWIDTH 429 0
DWIDTH 5 0
BBX 5 8 0 0
BITMAP
00A500
018000
4E7A70
0D1070
0D1010
0D1000
0D1000
4F7000
ENDCHAR
STARTCHAR uni0454
ENCODING 1108
SWIDTH 460 0
DWIDTH 5 0
BBX 5 6 0 0
BITMAP
077B50
580240
8B8500
970000
5B0040
09CA30
ENDCHAR
STARTCHAR uni0455
ENCODING 1109
SWIDTH 394 0
DWIDTH 4 0
BBX 4 6 0 0
BITMAP
3979
8506
4E70
13CA
700E
7878
ENDCHAR
STARTCHAR uni0456
ENCODING 1110
SWIDTH 285 0
DWIDTH 3 0
BBX 3 8 0 0
BITMAP
0D20
0400
4E00
0D00
0D00
0D00
0D00
4F60
ENDCHAR
STARTCHAR uni0457
ENCODING 1111
SWIDTH 285 0
DWIDTH 3 0
BBX 4 8 -1 0
BITMAP
3B1D
1304
04E0
00D0
00D0
00D0
00D0
04F6
ENDCHAR
STARTCHAR uni0458
ENCODING 1112
SWIDTH 263 0
DWIDTH 3 0
BBX 4 11 -1 -3
BITMAP
00D1
0040
05E0
00E0
00E0
00E0
00E0
00E0
00D0
40C0
C950
ENDCHAR
STARTCHAR uni0459
ENCODING 1113
SWIDTH 742 0
DWIDTH 8 0
BBX 9 6 -1 0
BITMAP
004B7F3000
00071D0000
00071E6820
00351D04B0
02711D03C0
1E806E7A40
ENDCHAR
STARTCHAR uni045A
ENCODING 1114
SWIDTH 790 0
DWIDTH 9 0
BBX 9 6 0 0
BITMAP
4F61BB1000
0D00770000
0D77BB8700
0D00770A50
0D10770960
4F61BB8A10
ENDCHAR
STARTCHAR uni045B
ENCODING 1115
SWIDTH 579 0
DWIDTH 6 0
BBX 7 9 0 0
BITMAP
6D000000
1E000000
6E860000
0D6CB000
0D30C400
0D009500
0D009500
0D009500
4E62CA10
ENDCHAR
STARTCHAR uni045C
ENCODING 1116
SWIDTH 521 0
DWIDTH 6 0
BBX 6 8 0 0
BITMAP
003C00
008200
4F61D7
0D1521
0D1700
0D8A00
0D1B50
4F62D5
ENDCHAR
STARTCHAR uni045D
ENCODING 1117
SWIDTH 609 0
DWIDTH 7 0
BBX 7 8 0 0
BITMAP
00C30000
00270000
4F60AC20
0D10A900
0D168900
0D545900
0D605900
4F60AC20
ENDCHAR
STARTCHAR uni045E
ENCODING 1118
SWIDTH 483 0
DWIDTH 5 0
BBX 7 12 -1 -3
BITMAP
00502300
00D15A00
00467200
1BC13D30
03C01700
00C34300
00787000
001D6000
000A4000
00080000
01270000
0BB10000
ENDCHAR
STARTCHAR uni045F
ENCODING 1119
SWIDTH 587 0
DWIDTH 6 0
BBX 7 9 0 -3
BITMAP
4E62CA10
0D109500
0D109500
0D109500
0D109500
4F87DA10
00180000
004B0000
00140000
ENDCHAR
STARTCHAR uni0462
ENCODING 1122
SWIDTH 727 0
DWIDTH 8 0
BBX 8 9 0 0
BITMAP
028A5000
9ABD89B0
805B0090
205B0020
005D8950
005B01D4
005B00A8
005B00C5
02BD8970
ENDCHAR
STARTCHAR uni0463
ENCODING 1123
SWIDTH 561 0
DWIDTH 6 0
BBX 6 9 0 0
BITMAP
036000
01D000
00D000
B8E7C0
40D040
00E793
00D04C
00D02D
05E7A4
ENDCHAR
STARTCHAR uni046A
ENCODING 1130
SWIDTH 881 0
DWIDTH 10 0
BBX 11 8 -1 0
BITMAP
002FB99AA000
000990072000
0001D3280000
00005C910000
00049DB81000
002E2A56C000
00A80A50C500
18E13DA15E50
ENDCHAR
STARTCHAR uni046B
ENCODING 1131
SWIDTH 667 0
DWIDTH 7 0
BBX 9 6 -1 0
BITMAP
00AC77B000
001D253000
0004C80000
004AD89000
00D2C2C300
19B2E66C30
ENDCHAR
STARTCHAR uni0472
ENCODING 1138
SWIDTH 737 0
DWIDTH 8 0
BBX 8 8 0 0
BITMAP
01988A20
0B5003D1
3D0000C5
6B9D60A8
6C05DBA8
4D0000B5
0C4003C0
01987910
ENDCHAR
STARTCHAR uni0473
ENCODING 1139
SWIDTH 514 0
DWIDTH 6 0
BBX 6 6 0 0
BITMAP
088950
5901D1
99B1C3
874AC3
5900D1
087840
ENDCHAR
STARTCHAR uni0474
ENCODING 1140
SWIDTH 705 0
DWIDTH 8 0
BBX 9 8 -1 0
BITMAP
1AF7000BD0
01E5006640
008B00A000
003F229000
000C873000
0006DA0000
0001E80000
0000930000
ENDCHAR
STARTCHAR uni0475
ENCODING 1141
SWIDTH 520 0
DWIDTH 6 0
BBX 7 6 -1 0
BITMAP
1CC109D0
03C02620
00D26100
00777000
002C6000
000C1000
ENDCHAR
STARTCHAR uni0490
ENCODING 1168
SWIDTH 525 0
DWIDTH 6 0
BBX 6 10 0 0
BITMAP
000006
000029
3DC885
087000
087000
087000
087000
087000
087000
3DC400
ENDCHAR
STARTCHAR uni0491
ENCODING 1169
SWIDTH 404 0
DWIDTH 4 0
BBX 5 8 0 0
BITMAP
000030
000560
4E7720
0D1000
0D1000
0D1000
0D1000
4F7000
ENDCHAR
STARTCHAR uni1D00
ENCODING 7424
SWIDTH 511 0
DWIDTH 6 0
BBX 7 6 -1 0
BITMAP
000B4000
0019A000
0050D100
0085B600
03304B00
1B405F60
ENDCHAR
STARTCHAR uni1D07
ENCODING 7431
SWIDTH 495 0
DWIDTH 5 0
BBX 5 6 0 0
BITMAP
4F77A0
0D0030
0D0420
0D7A20
0D0040
4F77C0
ENDCHAR
STARTCHAR uni1D1C
ENCODING 7452
SWIDTH 584 0
DWIDTH 6 0
BBX 7 6 0 0
BITMAP
6F406B10
0E001700
0E000700
0E001700
0D103500
05B98000
ENDCHAR
STARTCHAR uni1D81
ENCODING 7553
SWIDTH 539 0
DWIDTH 6 0
BBX 6 12 0 -3
BITMAP
0007C0
0001D0
0001D0
078AD0
4802D0
8501D0
9601D0
6A02D0
0CD7E6
000007
000207
000783
ENDCHAR
STARTCHAR uni1D84
ENCODING 7556
SWIDTH 542 0
DWIDTH 6 0
BBX 6 12 0 -3
BITMAP
5E0000
0E0000
0E0000
0E08B3
0E1800
0EB100
0E8A00
0E0B70
4F64F7
000007
000117
0003A5
ENDCHAR
STARTCHAR uni1D85
ENCODING 7557
SWIDTH 283 0
DWIDTH 3 0
BBX 3 12 0 -3
BITMAP
5E00
0E00
0E00
0E00
0E00
0E00
0E00
0E00
4F60
0070
1170
4A50
ENDCHAR
STARTCHAR uni1D8A
ENCODING 7562
SWIDTH 395 0
DWIDTH 4 0
BBX 4 9 0 -3
BITMAP
3979
8506
4E70
12CA
700E
788B
0007
0207
0694
ENDCHAR
STARTCHAR uni1D8D
ENCODING 7565
SWIDTH 479 0
DWIDTH 5 0
BBX 6 9 0 -3
BITMAP
7F37A1
0A5700
02D400
02B800
081D30
980BC2
000034
000233
000B80
ENDCHAR
STARTCHAR uni1D8E
ENCODING 7566
SWIDTH 458 0
DWIDTH 5 0
BBX 5 9 0 -3
BITMAP
7A8D70
503D10
00B500
05B000
1D2070
8D8A90
000070
002070
008820
ENDCHAR
STARTCHAR uni1D98
ENCODING 7576
SWIDTH 368 0
DWIDTH 4 0
BBX 6 12 0 -3
BITMAP
0037C2
00A231
00C200
00C200
00C200
00C200
00C200
30C100
C98000
700000
711000
5A4000
ENDCHAR
STARTCHAR uni1D9B
ENCODING 7579
SWIDTH 462 0
DWIDTH 5 0
BBX 5 4 0 3
BITMAP
7B8C30
390490
390390
3B6810
ENDCHAR
STARTCHAR uni1DA3
ENCODING 7587
SWIDTH 488 0
DWIDTH 5 0
BBX 6 6 0 1
BITMAP
5D29A0
1B0670
1B0670
0B9970
000670
0006A1
ENDCHAR
STARTCHAR uni1E00
ENCODING 7680
SWIDTH 718 0
DWIDTH 8 0
BBX 8 11 0 -3
BITMAP
00085000
000DB000
0056F200
00A1B800
01906D00
07A78F40
0B0009B0
8C201AF7
00184000
00628000
00285000
ENDCHAR
STARTCHAR uni1E01
ENCODING 7681
SWIDTH 480 0
DWIDTH 5 0
BBX 6 9 0 -3
BITMAP
186A00
470B30
005C30
2A2A30
870B30
4D99A1
038300
080800
038300
ENDCHAR
STARTCHAR uni1E02
ENCODING 7682
SWIDTH 618 0
DWIDTH 7 0
BBX 7 10 0 0
BITMAP
004C0000
00020000
4DB8B600
08702F00
08703E00
08B9C300
08702B10
08700C50
08700D40
4DB69800
ENDCHAR
STARTCHAR uni1E03
ENCODING 7683
SWIDTH 522 0
DWIDTH 6 0
BBX 6 10 0 0
BITMAP
00B500
8B2000
2C0000
2C0000
2C8D80
2D11E2
2C00B5
2C00A4
2C00C1
1C8840
ENDCHAR
STARTCHAR uni1E04
ENCODING 7684
SWIDTH 618 0
DWIDTH 7 0
BBX 7 11 0 -3
BITMAP
4DB8B600
08702F00
08703E00
08B9C300
08702B10
08700C50
08700D40
4DB69800
00000000
004B0000
00010000
ENDCHAR
STARTCHAR uni1E05
ENCODING 7685
SWIDTH 522 0
DWIDTH 6 0
BBX 6 12 0 -3
BITMAP
8B0000
2C0000
2C0000
2C8D80
2D11E2
2C00B5
2C00A4
2C00C1
1C8840
000000
00A400
001000
ENDCHAR
STARTCHAR uni1E06
ENCODING 7686
SWIDTH 618 0
DWIDTH 7 0
BBX 7 10 0 -2
BITMAP
4DB8B600
08702F00
08703E00
08B9C300
08702B10
08700C50
08700D40
4DB69800
00000000
04BBA000
ENDCHAR
STARTCHAR uni1E07
ENCODING 7687
SWIDTH 522 0
DWIDTH 6 0
BBX 6 11 0 -2
BITMAP
8B0000
2C0000
2C0000
2C8D80
2D11E2
2C00B5
2C00A4
2C00C1
1C8840
000000
09BB40
ENDCHAR
STARTCHAR uni1E08
ENCODING 7688
SWIDTH 670 0
DWIDTH 7 0
BBX 7 14 0 -3
BITMAP
00007200
00075000
00000000
01999EB0
0B5003A0
3D000060
6B000000
6B000000
3E000000
0C800170
01AFB910
00067000
0000A000
00076000
ENDCHAR
STARTCHAR uni1E09
ENCODING 7689
SWIDTH 446 0
DWIDTH 5 0
BBX 5 11 0 -3
BITMAP
006900
009100
077C30
460650
840000
950000
6B0150
1AEB10
005000
007600
017800
ENDCHAR
STARTCHAR uni1E0A
ENCODING 7690
SWIDTH 730 0
DWIDTH 8 0
BBX 8 10 0 0
BITMAP
000B4000
00020000
3CB89910
087007C0
087000E4
087000B7
087000B6
087000D4
087005C0
3CB79910
ENDCHAR
STARTCHAR uni1E0B
ENCODING 7691
SWIDTH 539 0
DWIDTH 6 0
BBX 6 10 0 0
BITMAP
009700
0018C0
0001D0
0001D0
078AD0
4802D0
8501D0
9601D0
6A02D0
0CD7E4
ENDCHAR
STARTCHAR uni1E0C
ENCODING 7692
SWIDTH 730 0
DWIDTH 8 0
BBX 8 11 0 -3
BITMAP
3CB89910
087007C0
087000E4
087000B7
087000B6
087000D4
087005C0
3CB79910
00000000
000D1000
00010000
ENDCHAR
STARTCHAR uni1E0D
ENCODING 7693
SWIDTH 539 0
DWIDTH 6 0
BBX 6 12 0 -3
BITMAP
0007C0
0001D0
0001D0
078AD0
4802D0
8501D0
9601D0
6A02D0
0CD7E4
000000
008600
001000
ENDCHAR
STARTCHAR uni1E0E
ENCODING 7694
SWIDTH 730 0
DWIDTH 8 0
BBX 8 10 0 -2
BITMAP
3CB89910
087007C0
087000E4
087000B7
087000B6
087000D4
087005C0
3CB79910
00000000
01BBB200
ENDCHAR
STARTCHAR uni1E0F
ENCODING 7695
SWIDTH 539 0
DWIDTH 6 0
BBX 6 11 0 -2
BITMAP
0007C0
0001D0
0001D0
078AD0
4802D0
8501D0
9601D0
6A02D0
0CD7E4
000000
07BB60
ENDCHAR
STARTCHAR uni1E10
ENCODING 7696
SWIDTH 730 0
DWIDTH 8 0
BBX 8 12 0 -4
BITMAP
3CB89910
087007C0
087000E4
087000B7
087000B6
087000D4
087005C0
3CB79910
00000000
001E2000
00072000
00040000
ENDCHAR
STARTCHAR uni1E11
ENCODING 7697
SWIDTH 539 0
DWIDTH 6 0
BBX 6 13 0 -4
BITMAP
0007C0
0001D0
0001D0
078AD0
4802D0
8501D0
9601D0
6A02D0
0CD7E4
000000
009800
001700
004100
ENDCHAR
STARTCHAR uni1E12
ENCODING 7698
SWIDTH 730 0
DWIDTH 8 0
BBX 8 10 0 -2
BITMAP
3CB89910
087007C0
087000E4
087000B7
087000B6
087000D4
087005C0
3CB79910
002E3000
00818000
ENDCHAR
STARTCHAR uni1E13
ENCODING 7699
SWIDTH 539 0
DWIDTH 6 0
BBX 6 11 0 -2
BITMAP
0007C0
0001D0
0001D0
078AD0
4802D0
8501D0
9601D0
6A02D0
0CD7E4
00A900
044530
ENDCHAR
STARTCHAR uni1E14
ENCODING 7700
SWIDTH 626 0
DWIDTH 7 0
BBX 7 12 0 0
BITMAP
00450000
00093000
01AAA100
00000000
4DB88D30
08700220
08701500
08B7B500
08701400
08700030
08700270
4CB89D50
ENDCHAR
STARTCHAR uni1E15
ENCODING 7701
SWIDTH 464 0
DWIDTH 5 0
BBX 5 10 0 0
BITMAP
05A000
008100
0BBB30
000000
088A10
560770
9A8980
950000
5C1050
09EB20
ENDCHAR
STARTCHAR uni1E16
ENCODING 7702
SWIDTH 626 0
DWIDTH 7 0
BBX 7 12 0 0
BITMAP
00045000
00391000
01AAA100
00000000
4DB88D30
08700220
08701500
08B7B500
08701400
08700030
08700270
4CB89D50
ENDCHAR
STARTCHAR uni1E17
ENCODING 7703
SWIDTH 464 0
DWIDTH 5 0
BBX 5 10 0 0
BITMAP
005900
009100
0BBB30
000000
088A10
560770
9A8980
950000
5C1050
09EB20
ENDCHAR
STARTCHAR uni1E18
ENCODING 7704
SWIDTH 626 0
DWIDTH 7 0
BBX 7 10 0 -2
BITMAP
4DB88D30
08700220
08701500
08B7B500
08701400
08700030
08700270
4CB89D50
002E3000
00818000
ENDCHAR
STARTCHAR uni1E19
ENCODING 7705
SWIDTH 464 0
DWIDTH 5 0
BBX 5 8 0 -2
BITMAP
088A10
560770
9A8980
950000
5C1050
09EB20
01D500
072800
ENDCHAR
STARTCHAR uni1E1A
ENCODING 7706
SWIDTH 626 0
DWIDTH 7 0
BBX 7 10 0 -2
BITMAP
4DB88D30
08700220
08701500
08B7B500
08701400
08700030
08700270
4CB89D50
00A85200
0318A000
ENDCHAR
STARTCHAR uni1E1B
ENCODING 7707
SWIDTH 464 0
DWIDTH 5 0
BBX 5 8 0 -2
BITMAP
088A10
560770
9A8980
950000
5C1050
09EB20
099430
136B00
ENDCHAR
STARTCHAR uni1E1C
ENCODING 7708
SWIDTH 626 0
DWIDTH 7 0
BBX 7 14 0 -3
BITMAP
00707100
007C7000
00000000
4DB88D30
08700220
08701500
08B7B500
08701400
08700030
08700270
4CBA9D50
00094000
00018000
00383000
ENDCHAR
STARTCHAR uni1E1D
ENCODING 7709
SWIDTH 464 0
DWIDTH 5 0
BBX 5 12 0 -3
BITMAP
010000
070520
05B800
088A10
560770
9A8980
950000
5C1050
09FB20
008500
000900
028400
ENDCHAR
STARTCHAR uni1E1E
ENCODING 7710
SWIDTH 588 0
DWIDTH 6 0
BBX 7 10 0 0
BITMAP
000E2000
00020000
4DC89C40
08700130
08702500
08B7C500
08702400
08700000
08700000
4CC40000
ENDCHAR
STARTCHAR uni1E1F
ENCODING 7711
SWIDTH 307 0
DWIDTH 3 0
BBX 5 10 0 0
BITMAP
0D3000
068C10
0B1300
0D0000
6E8300
0D0000
0D0000
0D0000
0D1000
5F8100
ENDCHAR
STARTCHAR uni1E20
ENCODING 7712
SWIDTH 720 0
DWIDTH 8 0
BBX 8 10 0 0
BITMAP
005AA800
00000000
01999EB0
0B5002A0
3D000060
6B000000
6B0018A3
4D0004C0
0C6003C0
02AA8A50
ENDCHAR
STARTCHAR uni1E21
ENCODING 7713
SWIDTH 484 0
DWIDTH 5 0
BBX 6 11 0 -3
BITMAP
0BBB30
000000
097EA2
590770
5A0860
097700
470000
4FED80
4301A1
A30090
5DA830
ENDCHAR
STARTCHAR uni1E22
ENCODING 7714
SWIDTH 777 0
DWIDTH 9 0
BBX 9 10 0 0
BITMAP
0004C00000
0000200000
3DC307F810
087000E100
087000E100
08B777E100
087000E100
087000E100
087000E100
3CC307F810
ENDCHAR
STARTCHAR uni1E23
ENCODING 7715
SWIDTH 577 0
DWIDTH 6 0
BBX 7 10 0 0
BITMAP
005B0000
6E120000
0E000000
0E000000
0E6CB000
0E30C300
0E009400
0E009400
0E009400
4F62C910
ENDCHAR
STARTCHAR uni1E24
ENCODING 7716
SWIDTH 777 0
DWIDTH 9 0
BBX 9 11 0 -3
BITMAP
3DC307F810
087000E100
087000E100
08B777E100
087000E100
087000E100
087000E100
3CC307F810
0000000000
0003B00000
0000100000
ENDCHAR
STARTCHAR uni1E25
ENCODING 7717
SWIDTH 577 0
DWIDTH 6 0
BBX 7 12 0 -3
BITMAP
6E000000
0E000000
0E000000
0E6CB000
0E30C300
0E009400
0E009400
0E009400
4F62C910
00000000
004A0000
00010000
ENDCHAR
STARTCHAR uni1E26
ENCODING 7718
SWIDTH 777 0
DWIDTH 9 0
BBX 9 10 0 0
BITMAP
00791E1000
0011020000
3DC307F810
087000E100
087000E100
08B777E100
087000E100
087000E100
087000E100
3CC307F810
ENDCHAR
STARTCHAR uni1E27
ENCODING 7719
SWIDTH 577 0
DWIDTH 6 0
BBX 7 10 0 0
BITMAP
0881E000
6F102000
0E000000
0E000000
0E6CB000
0E30C300
0E009400
0E009400
0E009400
4F62C910
ENDCHAR
STARTCHAR uni1E28
ENCODING 7720
SWIDTH 777 0
DWIDTH 9 0
BBX 9 11 0 -3
BITMAP
3DC307F810
087000E100
087000E100
08B777E100
087000E100
087000E100
087000E100
3FC307F810
0570000000
00A0000000
0760000000
ENDCHAR
STARTCHAR uni1E29
ENCODING 7721
SWIDTH 577 0
DWIDTH 6 0
BBX 7 12 0 -3
BITMAP
6E000000
0E000000
0E000000
0E6CB000
0E30C300
0E009400
0E009400
0E009400
4F62C910
09300000
02800000
38200000
ENDCHAR
STARTCHAR uni1E2A
ENCODING 7722
SWIDTH 777 0
DWIDTH 9 0
BBX 9 11 0 -3
BITMAP
3DC307F810
087000E100
087000E100
08B777E100
087000E100
087000E100
087000E100
3CC307F810
0010010000
0034070000
0009B40000
ENDCHAR
STARTCHAR uni1E2B
ENCODING 7723
SWIDTH 577 0
DWIDTH 6 0
BBX 7 12 0 -3
BITMAP
6E000000
0E000000
0E000000
0E6CB000
0E30C300
0E009400
0E009400
0E009400
4F62C910
01001000
04307000
00AB3000
ENDCHAR
STARTCHAR uni1E2C
ENCODING 7724
SWIDTH 357 0
DWIDTH 4 0
BBX 4 10 0 -2
BITMAP
4DC3
0870
0870
0870
0870
0870
0870
4DC3
5B45
43C3
ENDCHAR
STARTCHAR uni1E2D
ENCODING 7725
SWIDTH 285 0
DWIDTH 3 0
BBX 5 10 -1 -2
BITMAP
00D200
004000
04E000
00D000
00D000
00D000
00D000
04F600
099430
227B00
ENDCHAR
STARTCHAR uni1E2E
ENCODING 7726
SWIDTH 357 0
DWIDTH 4 0
BBX 4 13 0 0
BITMAP
0171
0940
0000
B45B
2002
4DC3
0870
0870
0870
0870
0870
0870
4DC3
ENDCHAR
STARTCHAR uni1E2F
ENCODING 7727
SWIDTH 285 0
DWIDTH 3 0
BBX 4 10 -1 0
BITMAP
00A5
0180
3B1D
1304
04E0
00D0
00D0
00D0
00D0
04F6
ENDCHAR
STARTCHAR uni1E30
ENCODING 7728
SWIDTH 702 0
DWIDTH 8 0
BBX 8 11 0 0
BITMAP
00027000
00093000
00000000
4DC33F91
08705700
08737000
08A80000
08AD3000
0874D200
08706D10
4CC33ED4
ENDCHAR
STARTCHAR uni1E31
ENCODING 7729
SWIDTH 542 0
DWIDTH 6 0
BBX 6 11 0 0
BITMAP
001710
008400
5E0000
0E0000
0E0000
0E08B3
0E1800
0EB100
0E8A00
0E0B70
4F64F7
ENDCHAR
STARTCHAR uni1E32
ENCODING 7730
SWIDTH 702 0
DWIDTH 8 0
BBX 8 11 0 -3
BITMAP
4DC33F91
08705700
08737000
08A80000
08AD3000
0874D200
08706D10
4CC33ED4
00000000
00095000
00010000
ENDCHAR
STARTCHAR uni1E33
ENCODING 7731
SWIDTH 542 0
DWIDTH 6 0
BBX 6 12 0 -3
BITMAP
5E0000
0E0000
0E0000
0E08B3
0E1800
0EB100
0E8A00
0E0B70
4F64F7
000000
007700
001100
ENDCHAR
STARTCHAR uni1E34
ENCODING 7732
SWIDTH 702 0
DWIDTH 8 0
BBX 8 10 0 -2
BITMAP
4DC33F91
08705700
08737000
08A80000
08AD3000
0874D200
08706D10
4CC33ED4
00000000
008BB500
ENDCHAR
STARTCHAR uni1E35
ENCODING 7733
SWIDTH 542 0
DWIDTH 6 0
BBX 6 11 0 -2
BITMAP
5E0000
0E0000
0E0000
0E08B3
0E1800
0EB100
0E8A00
0E0B70
4F64F7
000000
07BB70
ENDCHAR
STARTCHAR uni1E36
ENCODING 7734
SWIDTH 585 0
DWIDTH 6 0
BBX 7 11 0 -3
BITMAP
3DC40000
08700000
08700000
08700000
08700000
08700110
08700720
3CC89E00
00000000
004A0000
00010000
ENDCHAR
STARTCHAR uni1E37
ENCODING 7735
SWIDTH 283 0
DWIDTH 3 0
BBX 3 12 0 -3
BITMAP
5E00
0E00
0E00
0E00
0E00
0E00
0E00
0E00
4F60
0000
0D10
0100
ENDCHAR
STARTCHAR uni1E38
ENCODING 7736
SWIDTH 585 0
DWIDTH 6 0
BBX 7 13 0 -3
BITMAP
6AA60000
00000000
3DC40000
08700000
08700000
08700000
08700000
08700110
08700720
3CC89E00
00000000
004A0000
00010000
ENDCHAR
STARTCHAR uni1E39
ENCODING 7737
SWIDTH 283 0
DWIDTH 3 0
BBX 5 13 -1 -3
BITMAP
1AAA20
05E000
00E000
00E000
00E000
00E000
00E000
00E000
00E000
04F600
000000
00D100
001000
ENDCHAR
STARTCHAR uni1E3A
ENCODING 7738
SWIDTH 585 0
DWIDTH 6 0
BBX 7 10 0 -2
BITMAP
3DC40000
08700000
08700000
08700000
08700000
08700110
08700720
3CC89E00
00000000
04BB9000
ENDCHAR
STARTCHAR uni1E3B
ENCODING 7739
SWIDTH 283 0
DWIDTH 3 0
BBX 5 11 -1 -2
BITMAP
05E000
00E000
00E000
00E000
00E000
00E000
00E000
00E000
04F600
000000
1BBB10
ENDCHAR
STARTCHAR uni1E3C
ENCODING 7740
SWIDTH 585 0
DWIDTH 6 0
BBX 7 10 0 -2
BITMAP
3DC40000
08700000
08700000
08700000
08700000
08700110
08700720
3CC89E00
007C0000
01736000
ENDCHAR
STARTCHAR uni1E3D
ENCODING 7741
SWIDTH 283 0
DWIDTH 3 0
BBX 3 11 0 -2
BITMAP
5E00
0E00
0E00
0E00
0E00
0E00
0E00
0E00
4F60
2E30
8180
ENDCHAR
STARTCHAR uni1E3E
ENCODING 7742
SWIDTH 895 0
DWIDTH 10 0
BBX 10 11 0 0
BITMAP
0000270000
0001920000
0000000000
4DC0000EB2
09E2005D60
0898009960
083D017960
080C472960
0807A90960
0801E60960
4D60913DB2
ENDCHAR
STARTCHAR uni1E3F
ENCODING 7743
SWIDTH 852 0
DWIDTH 9 0
BBX 10 8 0 0
BITMAP
00004B0000
0000810000
4E4AB5AC10
0D30C50A40
0D00B30950
0D00B30950
0D00B30950
4F63D92CA1
ENDCHAR
STARTCHAR uni1E40
ENCODING 7744
SWIDTH 895 0
DWIDTH 10 0
BBX 10 10 0 0
BITMAP
0000B50000
0000200000
4DC0000EB2
09E2005D60
0898009960
083D017960
080C472960
0807A90960
0801E60960
4D60913DB2
ENDCHAR
STARTCHAR uni1E41
ENCODING 7745
SWIDTH 852 0
DWIDTH 9 0
BBX 10 8 0 0
BITMAP
0000B30000
0000100000
4E4AB5AC10
0D30C50A40
0D00B30950
0D00B30950
0D00B30950
4F63D92CA1
ENDCHAR
STARTCHAR uni1E42
ENCODING 7746
SWIDTH 895 0
DWIDTH 10 0
BBX 10 11 0 -3
BITMAP
4DC0000EB2
09E2005D60
0898009960
083D017960
080C472960
0807A90960
0801E60960
4D60913DB2
0000000000
0000C20000
0000100000
ENDCHAR
STARTCHAR uni1E43
ENCODING 7747
SWIDTH 852 0
DWIDTH 9 0
BBX 10 9 0 -3
BITMAP
4E4AB5AC10
0D30C50A40
0D00B30950
0D00B30950
0D00B30950
4F63D92CA1
0000000000
0000B30000
0000100000
ENDCHAR
STARTCHAR uni1E44
ENCODING 7748
SWIDTH 742 0
DWIDTH 8 0
BBX 8 10 0 0
BITMAP
0006A000
00012000
5E8005E6
09E40090
086D1080
080A9080
0801E580
08004E90
080008D0
4E6000A0
ENDCHAR
STARTCHAR uni1E45
ENCODING 7749
SWIDTH 576 0
DWIDTH 6 0
BBX 7 8 0 0
BITMAP
003C0000
00010000
5E5BB000
0D30C300
0D009400
0D009400
0D009400
4F62DA10
ENDCHAR
STARTCHAR uni1E46
ENCODING 7750
SWIDTH 742 0
DWIDTH 8 0
BBX 8 11 0 -3
BITMAP
5E8005E6
09E40090
086D1080
080A9080
0801E580
08004E90
080008D0
4E6000A0
00000000
00086000
00010000
ENDCHAR
STARTCHAR uni1E47
ENCODING 7751
SWIDTH 576 0
DWIDTH 6 0
BBX 7 9 0 -3
BITMAP
5E5BB000
0D30C300
0D009400
0D009400
0D009400
4F62DA10
00000000
004A0000
00010000
ENDCHAR
STARTCHAR uni1E48
ENCODING 7752
SWIDTH 742 0
DWIDTH 8 0
BBX 8 10 0 -2
BITMAP
5E8005E6
09E40090
086D1080
080A9080
0801E580
08004E90
080008D0
4E6000A0
00000000
008BB600
ENDCHAR
STARTCHAR uni1E49
ENCODING 7753
SWIDTH 576 0
DWIDTH 6 0
BBX 7 8 0 -2
BITMAP
5E5BB000
0D30C300
0D009400
0D009400
0D009400
4F62DA10
00000000
04BB9000
ENDCHAR
STARTCHAR uni1E4A
ENCODING 7754
SWIDTH 742 0
DWIDTH 8 0
BBX 8 10 0 -2
BITMAP
5E8005E6
09E40090
086D1080
080A9080
0801E580
08004E90
080008D0
4E6000A0
000A8000
00546300
ENDCHAR
STARTCHAR uni1E4B
ENCODING 7755
SWIDTH 576 0
DWIDTH 6 0
BBX 7 8 0 -2
BITMAP
5E5BB000
0D30C300
0D009400
0D009400
0D009400
4F62DA10
007C0000
01736000
ENDCHAR
STARTCHAR uni1E4C
ENCODING 7756
SWIDTH 738 0
DWIDTH 8 0
BBX 8 12 0 0
BITMAP
00007100
00084000
004BB600
00000000
01999A20
0B6004D1
3E0000C5
6C000098
6C0000A8
3E0000C5
0C5003C0
01988920
ENDCHAR
STARTCHAR uni1E4D
ENCODING 7757
SWIDTH 514 0
DWIDTH 6 0
BBX 6 10 0 0
BITMAP
002C00
007200
05B450
043C30
087940
5901D1
9600C3
8700B3
5A00D1
087840
ENDCHAR
STARTCHAR uni1E4E
ENCODING 7758
SWIDTH 738 0
DWIDTH 8 0
BBX 8 11 0 0
BITMAP
00A54C00
006BB800
00000000
01999A20
0B6004D1
3E0000C5
6C000098
6C0000A8
3E0000C5
0C5003C0
01988920
ENDCHAR
STARTCHAR uni1E4F
ENCODING 7759
SWIDTH 514 0
DWIDTH 6 0
BBX 6 9 0 0
BITMAP
0C3680
06B460
043C30
087940
5901D1
9600C3
8700B3
5A00D1
087840
ENDCHAR
STARTCHAR uni1E50
ENCODING 7760
SWIDTH 738 0
DWIDTH 8 0
BBX 8 12 0 0
BITMAP
00171000
00039000
005AA700
00000000
01999A20
0B6004D1
3E0000C5
6C000098
6C0000A8
3E0000C5
0C5003C0
01988920
ENDCHAR
STARTCHAR uni1E51
ENCODING 7761
SWIDTH 514 0
DWIDTH 6 0
BBX 6 10 0 0
BITMAP
02D000
005400
08BB50
000000
087940
5901D1
9600C3
8700B3
5A00D1
087840
ENDCHAR
STARTCHAR uni1E52
ENCODING 7762
SWIDTH 738 0
DWIDTH 8 0
BBX 8 12 0 0
BITMAP
00007100
00084000
005AA700
00000000
01999A20
0B6004D1
3E0000C5
6C000098
6C0000A8
3E0000C5
0C5003C0
01988920
ENDCHAR
STARTCHAR uni1E53
ENCODING 7763
SWIDTH 514 0
DWIDTH 6 0
BBX 6 10 0 0
BITMAP
002C00
007200
08BB50
000000
087940
5901D1
9600C3
8700B3
5A00D1
087840
ENDCHAR
STARTCHAR uni1E54
ENCODING 7764
SWIDTH 569 0
DWIDTH 6 0
BBX 6 11 0 0
BITMAP
000720
006600
000000
3CB8B4
08704D
08702E
087069
08B870
087000
087000
3CC300
ENDCHAR
STARTCHAR uni1E55
ENCODING 7765
SWIDTH 537 0
DWIDTH 6 0
BBX 6 11 0 -3
BITMAP
001D10
006300
5D6DA0
0E20C4
0E0087
0E0087
0E00A2
0E9860
0E0000
0E0000
5F8000
ENDCHAR
STARTCHAR uni1E56
ENCODING 7766
SWIDTH 569 0
DWIDTH 6 0
BBX 6 10 0 0
BITMAP
005B00
000200
3CB8B4
08704D
08702E
087069
08B870
087000
087000
3CC300
ENDCHAR
STARTCHAR uni1E57
ENCODING 7767
SWIDTH 537 0
DWIDTH 6 0
BBX 6 11 0 -3
BITMAP
008700
001000
5D6DA0
0E20C4
0E0087
0E0087
0E00A2
0E9860
0E0000
0E0000
5F8000
ENDCHAR
STARTCHAR uni1E58
ENCODING 7768
SWIDTH 659 0
DWIDTH 7 0
BBX 8 10 0 0
BITMAP
001E0000
00020000
3DB8A400
08704D00
08702F00
08707900
08BC8000
0873D100
08708B00
3CC30CA2
ENDCHAR
STARTCHAR uni1E59
ENCODING 7769
SWIDTH 380 0
DWIDTH 4 0
BBX 5 8 0 0
BITMAP
059000
001000
4E5E10
0D4400
0D0000
0D0000
0D1000
4F7000
ENDCHAR
STARTCHAR uni1E5A
ENCODING 7770
SWIDTH 659 0
DWIDTH 7 0
BBX 8 11 0 -3
BITMAP
3DB8A400
08704D00
08702F00
08707900
08BC8000
0873D100
08708B00
3CC30CA2
00000000
000C2000
00010000
ENDCHAR
STARTCHAR uni1E5B
ENCODING 7771
SWIDTH 380 0
DWIDTH 4 0
BBX 5 9 0 -3
BITMAP
4E5E10
0D4400
0D0000
0D0000
0D1000
4F7000
000000
0C3000
010000
ENDCHAR
STARTCHAR uni1E5C
ENCODING 7772
SWIDTH 659 0
DWIDTH 7 0
BBX 8 13 0 -3
BITMAP
02AAA100
00000000
3DB8A400
08704D00
08702F00
08707900
08BC8000
0873D100
08708B00
3CC30CA2
00000000
000C2000
00010000
ENDCHAR
STARTCHAR uni1E5D
ENCODING 7773
SWIDTH 380 0
DWIDTH 4 0
BBX 5 11 0 -3
BITMAP
5BB800
000000
4E5E10
0D4400
0D0000
0D0000
0D1000
4F7000
000000
0C3000
010000
ENDCHAR
STARTCHAR uni1E5E
ENCODING 7774
SWIDTH 659 0
DWIDTH 7 0
BBX 8 10 0 -2
BITMAP
3DB8A400
08704D00
08702F00
08707900
08BC8000
0873D100
08708B00
3CC30CA2
00000000
00BBB300
ENDCHAR
STARTCHAR uni1E5F
ENCODING 7775
SWIDTH 380 0
DWIDTH 4 0
BBX 5 8 0 -2
BITMAP
4E5E10
0D4400
0D0000
0D0000
0D1000
4F7000
000000
ABB300
ENDCHAR
STARTCHAR uni1E60
ENCODING 7776
SWIDTH 504 0
DWIDTH 6 0
BBX 6 10 0 0
BITMAP
00B500
002000
198BC0
6800A0
5D1030
0AE500
005E90
4002F2
8200E1
8D8960
ENDCHAR
STARTCHAR uni1E61
ENCODING 7777
SWIDTH 394 0
DWIDTH 4 0
BBX 4 8 0 0
BITMAP
04A0
0010
3979
8506
4E70
13CA
700E
7878
ENDCHAR
STARTCHAR uni1E62
ENCODING 7778
SWIDTH 504 0
DWIDTH 6 0
BBX 6 11 0 -3
BITMAP
198BC0
6800A0
5D1030
0AE500
005E90
4002F2
8200E1
8D8960
000000
00C300
001000
ENDCHAR
STARTCHAR uni1E63
ENCODING 7779
SWIDTH 394 0
DWIDTH 4 0
BBX 4 9 0 -3
BITMAP
3979
8506
4E70
13CA
700E
7878
0000
0590
0010
ENDCHAR
STARTCHAR uni1E64
ENCODING 7780
SWIDTH 504 0
DWIDTH 6 0
BBX 6 11 0 0
BITMAP
000630
08B700
010000
198BC0
6800A0
5D1030
0AE500
005E90
4002F2
8200E1
8D8960
ENDCHAR
STARTCHAR uni1E65
ENCODING 7781
SWIDTH 394 0
DWIDTH 4 0
BBX 4 9 0 0
BITMAP
0800
06A5
0180
3979
8506
4E70
13CA
700E
7878
ENDCHAR
STARTCHAR uni1E66
ENCODING 7782
SWIDTH 504 0
DWIDTH 6 0
BBX 6 12 0 0
BITMAP
003100
049620
02B800
000000
198BC0
6800A0
5D1030
0AE500
005E90
4002F2
8200E1
8D8960
ENDCHAR
STARTCHAR uni1E67
ENCODING 7783
SWIDTH 394 0
DWIDTH 4 0
BBX 4 9 0 0
BITMAP
2986
09F0
0000
3979
8506
4E70
13CA
700E
7878
ENDCHAR
STARTCHAR uni1E68
ENCODING 7784
SWIDTH 504 0
DWIDTH 6 0
BBX 6 13 0 -3
BITMAP
00B500
002000
198BC0
6800A0
5D1030
0AE500
005E90
4002F2
8200E1
8D8960
000000
00C300
001000
ENDCHAR
STARTCHAR uni1E69
ENCODING 7785
SWIDTH 394 0
DWIDTH 4 0
BBX 4 11 0 -3
BITMAP
04A0
0010
3979
8506
4E70
13CA
700E
7878
0000
0590
0010
ENDCHAR
STARTCHAR uni1E6A
ENCODING 7786
SWIDTH 603 0
DWIDTH 7 0
BBX 7 10 0 0
BITMAP
003D0000
00020000
BAAE9C60
703C0160
103C0010
003C0000
003C0000
003C0000
003D0000
019F6000
ENDCHAR
STARTCHAR uni1E6B
ENCODING 7787
SWIDTH 315 0
DWIDTH 3 0
BBX 4 9 0 0
BITMAP
0A40
0400
1C00
4E81
0E00
0E00
0E00
0E00
0BA2
ENDCHAR
STARTCHAR uni1E6C
ENCODING 7788
SWIDTH 603 0
DWIDTH 7 0
BBX 7 11 0 -3
BITMAP
BAAE9C60
703C0160
103C0010
003C0000
003C0000
003C0000
003D0000
019F6000
00000000
003C0000
00010000
ENDCHAR
STARTCHAR uni1E6D
ENCODING 7789
SWIDTH 315 0
DWIDTH 3 0
BBX 4 11 0 -3
BITMAP
0300
1C00
4E81
0E00
0E00
0E00
0E00
0BA2
0000
0680
0010
ENDCHAR
STARTCHAR uni1E6E
ENCODING 7790
SWIDTH 603 0
DWIDTH 7 0
BBX 7 10 0 -2
BITMAP
BAAE9C60
703C0160
103C0010
003C0000
003C0000
003C0000
003D0000
019F6000
00000000
03BBA000
ENDCHAR
STARTCHAR uni1E6F
ENCODING 7791
SWIDTH 315 0
DWIDTH 3 0
BBX 4 10 0 -2
BITMAP
0300
1C00
4E81
0E00
0E00
0E00
0E00
0BA2
0000
6BB7
ENDCHAR
STARTCHAR uni1E70
ENCODING 7792
SWIDTH 603 0
DWIDTH 7 0
BBX 7 10 0 -2
BITMAP
BAAE9C60
703C0160
103C0010
003C0000
003C0000
003C0000
003D0000
019F6000
005D1000
01827000
ENDCHAR
STARTCHAR uni1E71
ENCODING 7793
SWIDTH 315 0
DWIDTH 3 0
BBX 4 10 0 -2
BITMAP
0300
1C00
4E81
0E00
0E00
0E00
0E00
0BA2
09A0
3644
ENDCHAR
STARTCHAR uni1E72
ENCODING 7794
SWIDTH 752 0
DWIDTH 8 0
BBX 8 11 0 -3
BITMAP
5EB204D9
0B500091
0B500091
0B500091
0B500091
0A600090
06B00190
009CBA20
00000000
00872C00
00100100
ENDCHAR
STARTCHAR uni1E73
ENCODING 7795
SWIDTH 570 0
DWIDTH 6 0
BBX 6 9 0 -3
BITMAP
6D04D3
0E00B3
0E00B3
0E00B3
0E10D3
08C8B8
000000
0A54A0
010010
ENDCHAR
STARTCHAR uni1E74
ENCODING 7796
SWIDTH 752 0
DWIDTH 8 0
BBX 8 10 0 -2
BITMAP
5EB204D9
0B500091
0B500091
0B500091
0B500091
0A600090
06B00190
009CBA20
003B5600
0041B500
ENDCHAR
STARTCHAR uni1E75
ENCODING 7797
SWIDTH 570 0
DWIDTH 6 0
BBX 6 8 0 -2
BITMAP
6D04D3
0E00B3
0E00B3
0E00B3
0E10D3
08C8B8
04B450
042C40
ENDCHAR
STARTCHAR uni1E76
ENCODING 7798
SWIDTH 752 0
DWIDTH 8 0
BBX 8 10 0 -2
BITMAP
5EB204D9
0B500091
0B500091
0B500091
0B500091
0A600090
06B00190
009CBA20
0007B000
00273600
ENDCHAR
STARTCHAR uni1E77
ENCODING 7799
SWIDTH 570 0
DWIDTH 6 0
BBX 6 8 0 -2
BITMAP
6D04D3
0E00B3
0E00B3
0E00B3
0E10D3
08C8B8
009A00
035540
ENDCHAR
STARTCHAR uni1E78
ENCODING 7800
SWIDTH 752 0
DWIDTH 8 0
BBX 8 12 0 0
BITMAP
00005400
00048000
001AB910
00000000
5EB204D9
0B500091
0B500091
0B500091
0B500091
0A600090
06B00190
009CBA20
ENDCHAR
STARTCHAR uni1E79
ENCODING 7801
SWIDTH 570 0
DWIDTH 6 0
BBX 6 10 0 0
BITMAP
001D10
005400
03B560
041B50
6D04D3
0E00B3
0E00B3
0E00B3
0E10D3
08C8B8
ENDCHAR
STARTCHAR uni1E7A
ENCODING 7802
SWIDTH 752 0
DWIDTH 8 0
BBX 8 11 0 0
BITMAP
005A0E20
003CAC00
00000000
5EB204D9
0B500091
0B500091
0B500091
0B500091
0A600090
06B00190
009CBA20
ENDCHAR
STARTCHAR uni1E7B
ENCODING 7803
SWIDTH 570 0
DWIDTH 6 0
BBX 6 9 0 0
BITMAP
0A54A0
07BB80
000000
6D04D3
0E00B3
0E00B3
0E00B3
0E10D3
08C8B8
ENDCHAR
STARTCHAR uni1E7C
ENCODING 7804
SWIDTH 680 0
DWIDTH 7 0
BBX 9 10 -1 0
BITMAP
0007BB4000
0000000000
1AF7006E40
01E4003700
0089008100
003E109000
000C545000
0006B80000
0001E70000
0000930000
ENDCHAR
STARTCHAR uni1E7D
ENCODING 7805
SWIDTH 481 0
DWIDTH 5 0
BBX 7 8 -1 0
BITMAP
006B4500
0044C200
1BC13D30
03C01800
00C25300
00778000
002C6000
000C2000
ENDCHAR
STARTCHAR uni1E7E
ENCODING 7806
SWIDTH 680 0
DWIDTH 7 0
BBX 9 11 -1 -3
BITMAP
1AF7006E40
01E4003700
0089008100
003E109000
000C545000
0006B80000
0001E70000
0000930000
0000000000
0000A40000
0000100000
ENDCHAR
STARTCHAR uni1E7F
ENCODING 7807
SWIDTH 481 0
DWIDTH 5 0
BBX 7 9 -1 -3
BITMAP
1BC13D30
03C01800
00C25300
00778000
002C6000
000C2000
00000000
000C2000
00010000
ENDCHAR
STARTCHAR Wgrave
ENCODING 7808
SWIDTH 944 0
DWIDTH 10 0
BBX 12 11 -1 0
BITMAP
000017100000
000003900000
000000000000
1AF52CD308D3
01E304C00450
009800F30810
004D04C80800
000D483D2600
0008A70DA100
0002F308C000
000090027000
ENDCHAR
STARTCHAR wgrave
ENCODING 7809
SWIDTH 749 0
DWIDTH 8 0
BBX 10 8 -1 0
BITMAP
0000C20000
0000270000
1BC1AD13D2
03D02D0170
00C35D3620
0078768700
002D61D600
000C10B100
ENDCHAR
STARTCHAR Wacute
ENCODING 7810
SWIDTH 944 0
DWIDTH 10 0
BBX 12 11 -1 0
BITMAP
000000710000
000008400000
000000000000
1AF52CD308D3
01E304C00450
009800F30810
004D04C80800
000D483D2600
0008A70DA100
0002F308C000
000090027000
ENDCHAR
STARTCHAR wacute
ENCODING 7811
SWIDTH 749 0
DWIDTH 8 0
BBX 10 8 -1 0
BITMAP
00000D2000
0000450000
1BC1AD13D2
03D02D0170
00C35D3620
0078768700
002D61D600
000C10B100
ENDCHAR
STARTCHAR Wdieresis
ENCODING 7812
SWIDTH 944 0
DWIDTH 10 0
BBX 12 10 -1 0
BITMAP
0000A54C0000
000021020000
1AF52CD308D3
01E304C00450
009800F30810
004D04C80800
000D483D2600
0008A70DA100
0002F308C000
000090027000
ENDCHAR
STARTCHAR wdieresis
ENCODING 7813
SWIDTH 749 0
DWIDTH 8 0
BBX 10 8 -1 0
BITMAP
000963C000
0001001000
1BC1AD13D2
03D02D0170
00C35D3620
0078768700
002D61D600
000C10B100
ENDCHAR
STARTCHAR uni1E86
ENCODING 7814
SWIDTH 944 0
DWIDTH 10 0
BBX 12 10 -1 0
BITMAP
000007900000
000001100000
1AF52CD308D3
01E304C00450
009800F30810
004D04C80800
000D483D2600
0008A70DA100
0002F308C000
000090027000
ENDCHAR
STARTCHAR uni1E87
ENCODING 7815
SWIDTH 749 0
DWIDTH 8 0
BBX 10 8 -1 0
BITMAP
0000690000
0000010000
1BC1AD13D2
03D02D0170
00C35D3620
0078768700
002D61D600
000C10B100
ENDCHAR
STARTCHAR uni1E88
ENCODING 7816
SWIDTH 944 0
DWIDTH 10 0
BBX 12 11 -1 -3
BITMAP
1AF52CD308D3
01E304C00450
009800F30810
004D04C80800
000D483D2600
0008A70DA100
0002F308C000
000090027000
000000000000
000003B00000
000000100000
ENDCHAR
STARTCHAR uni1E89
ENCODING 7817
SWIDTH 749 0
DWIDTH 8 0
BBX 10 9 -1 -3
BITMAP
1BC1AD13D2
03D02D0170
00C35D3620
0078768700
002D61D600
000C10B100
0000000000
0000690000
0000010000
ENDCHAR
STARTCHAR uni1E8A
ENCODING 7818
SWIDTH 664 0
DWIDTH 7 0
BBX 8 10 0 0
BITMAP
000B4000
00020000
5EB12D81
05D02800
00B68100
002E4000
003C9000
0091E400
08206D00
7D206FA1
ENDCHAR
STARTCHAR uni1E8B
ENCODING 7819
SWIDTH 479 0
DWIDTH 5 0
BBX 6 8 0 0
BITMAP
00C300
001000
7F37A1
0A5700
02D400
02B800
081D30
980BC2
ENDCHAR
STARTCHAR uni1E8C
ENCODING 7820
SWIDTH 664 0
DWIDTH 7 0
BBX 8 10 0 0
BITMAP
00E18800
00201100
5EB12D81
05D02800
00B68100
002E4000
003C9000
0091E400
08206D00
7D206FA1
ENDCHAR
STARTCHAR uni1E8D
ENCODING 7821
SWIDTH 479 0
DWIDTH 5 0
BBX 6 8 0 0
BITMAP
1D0960
010100
7F37A1
0A5700
02D400
02B800
081D30
980BC2
ENDCHAR
STARTCHAR uni1E8E
ENCODING 7822
SWIDTH 647 0
DWIDTH 7 0
BBX 8 10 0 0
BITMAP
000C4000
00020000
9F701B91
0A800900
02E25300
008A8000
001F3000
000E1000
000E2000
007F9100
ENDCHAR
STARTCHAR uni1E8F
ENCODING 7823
SWIDTH 483 0
DWIDTH 5 0
BBX 7 11 -1 -3
BITMAP
000A5000
00010000
1BC13D30
03D01700
00C35300
00697000
001D6000
000A3000
00080000
01270000
0CB10000
ENDCHAR
STARTCHAR uni1E90
ENCODING 7824
SWIDTH 594 0
DWIDTH 7 0
BBX 7 11 0 0
BITMAP
00171000
00858000
00000000
4E99BE10
5300C600
1006C000
002E3000
00A80000
05D10110
1D400620
8E999E00
ENDCHAR
STARTCHAR uni1E91
ENCODING 7825
SWIDTH 458 0
DWIDTH 5 0
BBX 5 8 0 0
BITMAP
01D400
071800
7A8D70
503D10
00B500
05B000
1D2070
8D8A90
ENDCHAR
STARTCHAR uni1E92
ENCODING 7826
SWIDTH 594 0
DWIDTH 7 0
BBX 7 11 0 -3
BITMAP
4E99BE10
5300C600
1006C000
002E3000
00A80000
05D10110
1D400620
8E999E00
00000000
005A0000
00010000
ENDCHAR
STARTCHAR uni1E93
ENCODING 7827
SWIDTH 458 0
DWIDTH 5 0
BBX 5 9 0 -3
BITMAP
7A8D70
503D10
00B500
05B000
1D2070
8D8A90
000000
00D100
001000
ENDCHAR
STARTCHAR uni1E94
ENCODING 7828
SWIDTH 594 0
DWIDTH 7 0
BBX 7 10 0 -2
BITMAP
4E99BE10
5300C600
1006C000
002E3000
00A80000
05D10110
1D400620
8E999E00
00000000
05BB9000
ENDCHAR
STARTCHAR uni1E95
ENCODING 7829
SWIDTH 458 0
DWIDTH 5 0
BBX 5 8 0 -2
BITMAP
7A8D70
503D10
00B500
05B000
1D2070
8D8A90
000000
1BBB10
ENDCHAR
STARTCHAR uni1E96
ENCODING 7830
SWIDTH 577 0
DWIDTH 6 0
BBX 7 11 0 -2
BITMAP
6E000000
0E000000
0E000000
0E6CB000
0E30C300
0E009400
0E009400
0E009400
4F62C910
00000000
04BB9000
ENDCHAR
STARTCHAR uni1E97
ENCODING 7831
SWIDTH 315 0
DWIDTH 3 0
BBX 4 9 0 0
BITMAP
D187
1310
1C00
4E81
0E00
0E00
0E00
0E00
0BA2
ENDCHAR
STARTCHAR uni1E98
ENCODING 7832
SWIDTH 749 0
DWIDTH 8 0
BBX 10 9 -1 0
BITMAP
0000670000
0000853000
0000670000
1BC1AD13D2
03D02D0170
00C35D3620
0078768700
002D61D600
000C10B100
ENDCHAR
STARTCHAR uni1E99
ENCODING 7833
SWIDTH 483 0
DWIDTH 5 0
BBX 7 12 -1 -3
BITMAP
00186000
00448000
00186000
1BC13D30
03D01700
00C35300
00697000
001D6000
000A3000
00080000
01270000
0CB10000
ENDCHAR
STARTCHAR uni1E9A
ENCODING 7834
SWIDTH 480 0
DWIDTH 5 0
BBX 6 9 0 0
BITMAP
018100
003500
018100
186A00
470B30
005C30
2A2A30
870B30
4D99A1
ENDCHAR
STARTCHAR uni1E9B
ENCODING 7835
SWIDTH 285 0
DWIDTH 3 0
BBX 5 10 0 0
BITMAP
0D3000
068C10
0B1300
0D0000
6E0000
0D0000
0D0000
0D0000
0D1000
5F8100
ENDCHAR
STARTCHAR uni1E9C
ENCODING 7836
SWIDTH 300 0
DWIDTH 3 0
BBX 5 9 0 0
BITMAP
028C20
092310
0B2000
5D5100
0C7000
6E2000
1C2000
0C2000
4E9100
ENDCHAR
STARTCHAR uni1E9D
ENCODING 7837
SWIDTH 285 0
DWIDTH 3 0
BBX 5 9 0 0
BITMAP
038D10
091810
6E8000
6E0000
0D0000
0D0000
0D0000
0D1000
5F8100
ENDCHAR
STARTCHAR uni1E9E
ENCODING 7838
SWIDTH 684 0
DWIDTH 8 0
BBX 7 8 0 0
BITMAP
008A8B60
05A01D30
09608900
0B51E600
0B5019A0
0B5001F0
0B5401E0
4E5B6740
ENDCHAR
STARTCHAR uni1E9F
ENCODING 7839
SWIDTH 517 0
DWIDTH 6 0
BBX 6 9 0 0
BITMAP
038950
0C2180
08B100
00CC10
1B27B0
7800E3
9600B4
6900D1
098850
ENDCHAR
STARTCHAR uni1EA0
ENCODING 7840
SWIDTH 718 0
DWIDTH 8 0
BBX 8 11 0 -3
BITMAP
00085000
000DB000
0056F200
00A1B800
01906D00
07A78F40
0B0009B0
8C201AF7
00000000
000C3000
00010000
ENDCHAR
STARTCHAR uni1EA1
ENCODING 7841
SWIDTH 480 0
DWIDTH 5 0
BBX 6 9 0 -3
BITMAP
186A00
470B30
005C30
2A2A30
870B30
4D99A1
000000
00D100
001000
ENDCHAR
STARTCHAR uni1EA2
ENCODING 7842
SWIDTH 718 0
DWIDTH 8 0
BBX 8 11 0 0
BITMAP
00076000
0002A000
00043000
00085000
000DB000
0056F200
00A1B800
01906D00
07A78F40
0B0009B0
8C201AF7
ENDCHAR
STARTCHAR uni1EA3
ENCODING 7843
SWIDTH 480 0
DWIDTH 5 0
BBX 6 9 0 0
BITMAP
027400
012900
006100
186A00
470B30
005C30
2A2A30
870B30
4D99A1
ENDCHAR
STARTCHAR uni1EA4
ENCODING 7844
SWIDTH 718 0
DWIDTH 8 0
BBX 8 12 0 0
BITMAP
00000170
00054840
00446200
00000000
00085000
000DB000
0056F200
00A1B800
01906D00
07A78F40
0B0009B0
8C201AF7
ENDCHAR
STARTCHAR uni1EA5
ENCODING 7845
SWIDTH 480 0
DWIDTH 5 0
BBX 6 9 0 0
BITMAP
0000B1
04B720
040400
186A00
470B30
005C30
2A2A30
870B30
4D99A1
ENDCHAR
STARTCHAR uni1EA6
ENCODING 7846
SWIDTH 718 0
DWIDTH 8 0
BBX 8 12 0 0
BITMAP
00003200
00077A10
00557310
00000000
00085000
000DB000
0056F200
00A1B800
01906D00
07A78F40
0B0009B0
8C201AF7
ENDCHAR
STARTCHAR uni1EA7
ENCODING 7847
SWIDTH 480 0
DWIDTH 5 0
BBX 6 9 0 0
BITMAP
001C10
02D530
071700
186A00
470B30
005C30
2A2A30
870B30
4D99A1
ENDCHAR
STARTCHAR uni1EA8
ENCODING 7848
SWIDTH 718 0
DWIDTH 8 0
BBX 8 12 0 0
BITMAP
00004720
00002550
000B9700
00424300
00085000
000DB000
0056F200
00A1B800
01906D00
07A78F40
0B0009B0
8C201AF7
ENDCHAR
STARTCHAR uni1EA9
ENCODING 7849
SWIDTH 480 0
DWIDTH 5 0
BBX 6 10 0 0
BITMAP
000760
0001A0
03D710
060600
186A00
470B30
005C30
2A2A30
870B30
4D99A1
ENDCHAR
STARTCHAR uni1EAA
ENCODING 7850
SWIDTH 718 0
DWIDTH 8 0
BBX 8 12 0 0
BITMAP
005BB400
00097000
00557300
00000000
00085000
000DB000
0056F200
00A1B800
01906D00
07A78F40
0B0009B0
8C201AF7
ENDCHAR
STARTCHAR uni1EAB
ENCODING 7851
SWIDTH 480 0
DWIDTH 5 0
BBX 6 10 0 0
BITMAP
044020
079A10
02E300
081800
186A00
470B30
005C30
2A2A30
870B30
4D99A1
ENDCHAR
STARTCHAR uni1EAC
ENCODING 7852
SWIDTH 718 0
DWIDTH 8 0
BBX 8 14 0 -3
BITMAP
00054000
00468200
00000000
00085000
000DB000
0056F200
00A1B800
01906D00
07A78F40
0B0009B0
8C201AF7
00000000
000C3000
00010000
ENDCHAR
STARTCHAR uni1EAD
ENCODING 7853
SWIDTH 480 0
DWIDTH 5 0
BBX 6 11 0 -3
BITMAP
02D300
081800
186A00
470B30
005C30
2A2A30
870B30
4D99A1
000000
00D100
001000
ENDCHAR
STARTCHAR uni1EAE
ENCODING 7854
SWIDTH 718 0
DWIDTH 8 0
BBX 8 12 0 0
BITMAP
00108100
00765500
003CA100
00000000
00085000
000DB000
0056F200
00A1B800
01906D00
07A78F40
0B0009B0
8C201AF7
ENDCHAR
STARTCHAR uni1EAF
ENCODING 7855
SWIDTH 480 0
DWIDTH 5 0
BBX 6 9 0 0
BITMAP
007600
075610
07C700
186A00
470B30
005C30
2A2A30
870B30
4D99A1
ENDCHAR
STARTCHAR uni1EB0
ENCODING 7856
SWIDTH 718 0
DWIDTH 8 0
BBX 8 12 0 0
BITMAP
00270100
00765500
003CA100
00000000
00085000
000DB000
0056F200
00A1B800
01906D00
07A78F40
0B0009B0
8C201AF7
ENDCHAR
STARTCHAR uni1EB1
ENCODING 7857
SWIDTH 480 0
DWIDTH 5 0
BBX 6 9 0 0
BITMAP
058000
075610
07C700
186A00
470B30
005C30
2A2A30
870B30
4D99A1
ENDCHAR
STARTCHAR uni1EB2
ENCODING 7858
SWIDTH 718 0
DWIDTH 8 0
BBX 8 13 0 0
BITMAP
00076000
0002A000
00754600
003CB100
00000000
00085000
000DB000
0056F200
00A1B800
01906D00
07A78F40
0B0009B0
8C201AF7
ENDCHAR
STARTCHAR uni1EB3
ENCODING 7859
SWIDTH 480 0
DWIDTH 5 0
BBX 6 10 0 0
BITMAP
037300
013700
075610
07C700
186A00
470B30
005C30
2A2A30
870B30
4D99A1
ENDCHAR
STARTCHAR uni1EB4
ENCODING 7860
SWIDTH 718 0
DWIDTH 8 0
BBX 8 12 0 0
BITMAP
005BA400
00601500
003CB100
00000000
00085000
000DB000
0056F200
00A1B800
01906D00
07A78F40
0B0009B0
8C201AF7
ENDCHAR
STARTCHAR uni1EB5
ENCODING 7861
SWIDTH 480 0
DWIDTH 5 0
BBX 6 10 0 0
BITMAP
089130
136A00
070610
07C700
186A00
470B30
005C30
2A2A30
870B30
4D99A1
ENDCHAR
STARTCHAR uni1EB6
ENCODING 7862
SWIDTH 718 0
DWIDTH 8 0
BBX 8 15 0 -3
BITMAP
00100100
00712500
003CA100
00000000
00085000
000DB000
0056F200
00A1B800
01906D00
07A78F40
0B0009B0
8C201AF7
00000000
000C3000
00010000
ENDCHAR
STARTCHAR uni1EB7
ENCODING 7863
SWIDTH 480 0
DWIDTH 5 0
BBX 6 12 0 -3
BITMAP
010000
070610
06B700
186A00
470B30
005C30
2A2A30
870B30
4D99A1
000000
00D100
001000
ENDCHAR
STARTCHAR uni1EB8
ENCODING 7864
SWIDTH 626 0
DWIDTH 7 0
BBX 7 11 0 -3
BITMAP
4DB88D30
08700220
08701500
08B7B500
08701400
08700030
08700270
4CB89D50
00000000
000D1000
00010000
ENDCHAR
STARTCHAR uni1EB9
ENCODING 7865
SWIDTH 464 0
DWIDTH 5 0
BBX 5 9 0 -3
BITMAP
088A10
560770
9A8980
950000
5C1050
09EB20
000000
00C200
001000
ENDCHAR
STARTCHAR uni1EBA
ENCODING 7866
SWIDTH 626 0
DWIDTH 7 0
BBX 7 11 0 0
BITMAP
00274000
00128000
00061000
4DB88D30
08700220
08701500
08B7B500
08701400
08700030
08700270
4CB89D50
ENDCHAR
STARTCHAR uni1EBB
ENCODING 7867
SWIDTH 464 0
DWIDTH 5 0
BBX 5 9 0 0
BITMAP
017500
001A00
006200
088A10
560770
9A8980
950000
5C1050
09EB20
ENDCHAR
STARTCHAR uni1EBC
ENCODING 7868
SWIDTH 626 0
DWIDTH 7 0
BBX 7 10 0 0
BITMAP
009BA100
00000000
4DB88D30
08700220
08701500
08B7B500
08701400
08700030
08700270
4CB89D50
ENDCHAR
STARTCHAR uni1EBD
ENCODING 7869
SWIDTH 464 0
DWIDTH 5 0
BBX 5 8 0 0
BITMAP
07A340
045C10
088A10
560770
9A8980
950000
5C1050
09EB20
ENDCHAR
STARTCHAR uni1EBE
ENCODING 7870
SWIDTH 626 0
DWIDTH 7 0
BBX 7 12 0 0
BITMAP
00000450
00173910
00728000
00000000
4DB88D30
08700220
08701500
08B7B500
08701400
08700030
08700270
4CB89D50
ENDCHAR
STARTCHAR uni1EBF
ENCODING 7871
SWIDTH 464 0
DWIDTH 5 0
BBX 6 9 0 0
BITMAP
0000B2
02B820
040300
088A10
560770
9A8980
950000
5C1050
09EB20
ENDCHAR
STARTCHAR uni1EC0
ENCODING 7872
SWIDTH 626 0
DWIDTH 7 0
BBX 7 12 0 0
BITMAP
00005100
00196800
00838100
00000000
4DB88D30
08700220
08701500
08B7B500
08701400
08700030
08700270
4CB89D50
ENDCHAR
STARTCHAR uni1EC1
ENCODING 7873
SWIDTH 464 0
DWIDTH 5 0
BBX 5 9 0 0
BITMAP
000B20
01D640
061700
088A10
560770
9A8980
950000
5C1050
09EB20
ENDCHAR
STARTCHAR uni1EC2
ENCODING 7874
SWIDTH 626 0
DWIDTH 7 0
BBX 7 12 0 0
BITMAP
00006600
00002A00
003C8400
00606000
4DB88D30
08700220
08701500
08B7B500
08701400
08700030
08700270
4CB89D50
ENDCHAR
STARTCHAR uni1EC3
ENCODING 7875
SWIDTH 464 0
DWIDTH 5 0
BBX 6 10 0 0
BITMAP
000670
000191
02C830
061600
088A10
560770
9A8980
950000
5C1050
09EB20
ENDCHAR
STARTCHAR uni1EC4
ENCODING 7876
SWIDTH 626 0
DWIDTH 7 0
BBX 7 12 0 0
BITMAP
009BA100
002B2000
00839000
00000000
4DB88D30
08700220
08701500
08B7B500
08701400
08700030
08700270
4CB89D50
ENDCHAR
STARTCHAR uni1EC5
ENCODING 7877
SWIDTH 464 0
DWIDTH 5 0
BBX 5 10 0 0
BITMAP
034020
068B20
01D500
072800
088A10
560770
9A8980
950000
5C1050
09EB20
ENDCHAR
STARTCHAR uni1EC6
ENCODING 7878
SWIDTH 626 0
DWIDTH 7 0
BBX 7 14 0 -3
BITMAP
00171000
00858000
00000000
4DB88D30
08700220
08701500
08B7B500
08701400
08700030
08700270
4CB89D50
00000000
000D1000
00010000
ENDCHAR
STARTCHAR uni1EC7
ENCODING 7879
SWIDTH 464 0
DWIDTH 5 0
BBX 5 11 0 -3
BITMAP
01D500
071800
088A10
560770
9A8980
950000
5C1050
09EB20
000000
00C200
001000
ENDCHAR
STARTCHAR uni1EC8
ENCODING 7880
SWIDTH 357 0
DWIDTH 4 0
BBX 4 11 0 0
BITMAP
0670
0291
0340
4DC3
0870
0870
0870
0870
0870
0870
4DC3
ENDCHAR
STARTCHAR uni1EC9
ENCODING 7881
SWIDTH 285 0
DWIDTH 3 0
BBX 3 9 0 0
BITMAP
3720
1470
0700
4E00
0D00
0D00
0D00
0D00
4F60
ENDCHAR
STARTCHAR uni1ECA
ENCODING 7882
SWIDTH 357 0
DWIDTH 4 0
BBX 4 11 0 -3
BITMAP
4DC3
0870
0870
0870
0870
0870
0870
4DC3
0000
0770
0110
ENDCHAR
STARTCHAR uni1ECB
ENCODING 7883
SWIDTH 285 0
DWIDTH 3 0
BBX 3 11 0 -3
BITMAP
0D20
0400
4E00
0D00
0D00
0D00
0D00
4F60
0000
0D20
0100
ENDCHAR
STARTCHAR uni1ECC
ENCODING 7884
SWIDTH 738 0
DWIDTH 8 0
BBX 8 11 0 -3
BITMAP
01999A20
0B6004D1
3E0000C5
6C000098
6C0000A8
3E0000C5
0C5003C0
01988920
00000000
00068000
00001000
ENDCHAR
STARTCHAR uni1ECD
ENCODING 7885
SWIDTH 514 0
DWIDTH 6 0
BBX 6 9 0 -3
BITMAP
087940
5901D1
9600C3
8700B3
5A00D1
087840
000000
009500
001000
ENDCHAR
STARTCHAR uni1ECE
ENCODING 7886
SWIDTH 738 0
DWIDTH 8 0
BBX 8 11 0 0
BITMAP
00067000
00028200
00025000
01999A20
0B6004D1
3E0000C5
6C000098
6C0000A8
3E0000C5
0C5003C0
01988920
ENDCHAR
STARTCHAR uni1ECF
ENCODING 7887
SWIDTH 514 0
DWIDTH 6 0
BBX 6 9 0 0
BITMAP
006600
001A00
004300
087940
5901D1
9600C3
8700B3
5A00D1
087840
ENDCHAR
STARTCHAR uni1ED0
ENCODING 7888
SWIDTH 738 0
DWIDTH 8 0
BBX 8 12 0 0
BITMAP
00000071
00045760
00365400
00000000
01999A20
0B6004D1
3E0000C5
6C000098
6C0000A8
3E0000C5
0C5003C0
01988920
ENDCHAR
STARTCHAR uni1ED1
ENCODING 7889
SWIDTH 514 0
DWIDTH 6 0
BBX 6 9 0 0
BITMAP
000094
01A940
031220
087940
5901D1
9600C3
8700B3
5A00D1
087840
ENDCHAR
STARTCHAR uni1ED2
ENCODING 7890
SWIDTH 738 0
DWIDTH 8 0
BBX 8 12 0 0
BITMAP
00002300
00057930
00376410
00000000
01999A20
0B6004D1
3E0000C5
6C000098
6C0000A8
3E0000C5
0C5003C0
01988920
ENDCHAR
STARTCHAR uni1ED3
ENCODING 7891
SWIDTH 514 0
DWIDTH 6 0
BBX 6 9 0 0
BITMAP
000850
00B850
053520
087940
5901D1
9600C3
8700B3
5A00D1
087840
ENDCHAR
STARTCHAR uni1ED4
ENCODING 7892
SWIDTH 738 0
DWIDTH 8 0
BBX 8 12 0 0
BITMAP
00002730
00001370
0009A710
00332400
01999A20
0B6004D1
3E0000C5
6C000098
6C0000A8
3E0000C5
0C5003C0
01988920
ENDCHAR
STARTCHAR uni1ED5
ENCODING 7893
SWIDTH 514 0
DWIDTH 6 0
BBX 6 10 0 0
BITMAP
000571
000173
00B950
042420
087940
5901D1
9600C3
8700B3
5A00D1
087840
ENDCHAR
STARTCHAR uni1ED6
ENCODING 7894
SWIDTH 738 0
DWIDTH 8 0
BBX 8 12 0 0
BITMAP
004BB600
00079000
00375500
00000000
01999A20
0B6004D1
3E0000C5
6C000098
6C0000A8
3E0000C5
0C5003C0
01988920
ENDCHAR
STARTCHAR uni1ED7
ENCODING 7895
SWIDTH 514 0
DWIDTH 6 0
BBX 6 10 0 0
BITMAP
025020
057B40
00B800
053620
087940
5901D1
9600C3
8700B3
5A00D1
087840
ENDCHAR
STARTCHAR uni1ED8
ENCODING 7896
SWIDTH 738 0
DWIDTH 8 0
BBX 8 14 0 -3
BITMAP
00045000
00387400
00000000
01999A20
0B6004D1
3E0000C5
6C000098
6C0000A8
3E0000C5
0C5003C0
01988920
00000000
00068000
00001000
ENDCHAR
STARTCHAR uni1ED9
ENCODING 7897
SWIDTH 514 0
DWIDTH 6 0
BBX 6 11 0 -3
BITMAP
00B800
053620
087940
5901D1
9600C3
8700B3
5A00D1
087840
000000
009500
001000
ENDCHAR
STARTCHAR uni1EDA
ENCODING 7898
SWIDTH 737 0
DWIDTH 8 0
BBX 8 11 0 0
BITMAP
00017100
0008403A
0000001A
01999F81
0B5004E1
3D0000C6
6B000098
6B0000A7
4D0000C4
0C5003C0
01988910
ENDCHAR
STARTCHAR uni1EDB
ENCODING 7899
SWIDTH 516 0
DWIDTH 6 0
BBX 6 8 0 0
BITMAP
002C57
007237
087BA0
5901D1
9600C4
8700B3
5A00D1
087840
ENDCHAR
STARTCHAR uni1EDC
ENCODING 7900
SWIDTH 737 0
DWIDTH 8 0
BBX 8 11 0 0
BITMAP
00171000
0003903A
0000001A
01999F81
0B5004E1
3D0000C6
6B000098
6B0000A7
4D0000C4
0C5003C0
01988910
ENDCHAR
STARTCHAR uni1EDD
ENCODING 7901
SWIDTH 516 0
DWIDTH 6 0
BBX 6 8 0 0
BITMAP
02D057
005437
087BA0
5901D1
9600C4
8700B3
5A00D1
087840
ENDCHAR
STARTCHAR uni1EDE
ENCODING 7902
SWIDTH 737 0
DWIDTH 8 0
BBX 8 11 0 0
BITMAP
00067000
0002813A
0002501A
01999F81
0B5004E1
3D0000C6
6B000098
6B0000A7
4D0000C4
0C5003C0
01988910
ENDCHAR
STARTCHAR uni1EDF
ENCODING 7903
SWIDTH 516 0
DWIDTH 6 0
BBX 6 9 0 0
BITMAP
006600
001A57
004337
087BA0
5901D1
9600C4
8700B3
5A00D1
087840
ENDCHAR
STARTCHAR uni1EE0
ENCODING 7904
SWIDTH 737 0
DWIDTH 8 0
BBX 8 10 0 0
BITMAP
004BB63A
0000001A
01999F81
0B5004E1
3D0000C6
6B000098
6B0000A7
4D0000C4
0C5003C0
01988910
ENDCHAR
STARTCHAR uni1EE1
ENCODING 7905
SWIDTH 516 0
DWIDTH 6 0
BBX 6 8 0 0
BITMAP
07CB87
000037
087BA0
5901D1
9600C4
8700B3
5A00D1
087840
ENDCHAR
STARTCHAR uni1EE2
ENCODING 7906
SWIDTH 737 0
DWIDTH 8 0
BBX 8 13 0 -3
BITMAP
0000003A
0000001A
01999F81
0B5004E1
3D0000C6
6B000098
6B0000A7
4D0000C4
0C5003C0
01988910
00000000
00068000
00001000
ENDCHAR
STARTCHAR uni1EE3
ENCODING 7907
SWIDTH 516 0
DWIDTH 6 0
BBX 6 11 0 -3
BITMAP
000057
000037
087BA0
5901D1
9600C4
8700B3
5A00D1
087840
000000
009500
001000
ENDCHAR
STARTCHAR uni1EE4
ENCODING 7908
SWIDTH 752 0
DWIDTH 8 0
BBX 8 11 0 -3
BITMAP
5EB204D9
0B500091
0B500091
0B500091
0B500091
0A600090
06B00190
009CBA20
00000000
0005A000
00001000
ENDCHAR
STARTCHAR uni1EE5
ENCODING 7909
SWIDTH 570 0
DWIDTH 6 0
BBX 6 9 0 -3
BITMAP
6D04D3
0E00B3
0E00B3
0E00B3
0E10D3
08C8B8
000000
007800
000100
ENDCHAR
STARTCHAR uni1EE6
ENCODING 7910
SWIDTH 752 0
DWIDTH 8 0
BBX 8 11 0 0
BITMAP
00037200
00014700
00007000
5EB204D9
0B500091
0B500091
0B500091
0B500091
0A600090
06B00190
009CBA20
ENDCHAR
STARTCHAR uni1EE7
ENCODING 7911
SWIDTH 570 0
DWIDTH 6 0
BBX 6 9 0 0
BITMAP
006700
001910
002500
6D04D3
0E00B3
0E00B3
0E00B3
0E10D3
08C8B8
ENDCHAR
STARTCHAR uni1EE8
ENCODING 7912
SWIDTH 762 0
DWIDTH 8 0
BBX 9 11 0 0
BITMAP
0000540050
00048000E0
0000000060
5EB204D400
0B50009100
0B50009100
0B50009100
0B50009100
0A60009000
06B0019000
009CBA2000
ENDCHAR
STARTCHAR uni1EE9
ENCODING 7913
SWIDTH 574 0
DWIDTH 6 0
BBX 7 8 0 0
BITMAP
001D1840
00630640
6D04D500
0E00B300
0E00B300
0E00B300
0E10D300
08C8B800
ENDCHAR
STARTCHAR uni1EEA
ENCODING 7914
SWIDTH 762 0
DWIDTH 8 0
BBX 9 11 0 0
BITMAP
0005400050
00019200E0
0000000060
5EB204D400
0B50009100
0B50009100
0B50009100
0B50009100
0A60009000
06B0019000
009CBA2000
ENDCHAR
STARTCHAR uni1EEB
ENCODING 7915
SWIDTH 574 0
DWIDTH 6 0
BBX 7 8 0 0
BITMAP
01D00840
00450640
6D04D500
0E00B300
0E00B300
0E00B300
0E10D300
08C8B800
ENDCHAR
STARTCHAR uni1EEC
ENCODING 7916
SWIDTH 762 0
DWIDTH 8 0
BBX 9 11 0 0
BITMAP
0003720050
00014700E0
0000700060
5EB204D400
0B50009100
0B50009100
0B50009100
0B50009100
0A60009000
06B0019000
009CBA2000
ENDCHAR
STARTCHAR uni1EED
ENCODING 7917
SWIDTH 574 0
DWIDTH 6 0
BBX 7 9 0 0
BITMAP
00670000
001A1840
00340640
6D04D500
0E00B300
0E00B300
0E00B300
0E10D300
08C8B800
ENDCHAR
STARTCHAR uni1EEE
ENCODING 7918
SWIDTH 762 0
DWIDTH 8 0
BBX 9 11 0 0
BITMAP
0000000050
001ABA10E0
0000000060
5EB204D400
0B50009100
0B50009100
0B50009100
0B50009100
0A60009000
06B0019000
009CBA2000
ENDCHAR
STARTCHAR uni1EEF
ENCODING 7919
SWIDTH 574 0
DWIDTH 6 0
BBX 7 8 0 0
BITMAP
04B45840
042C4640
6D04D500
0E00B300
0E00B300
0E00B300
0E10D300
08C8B800
ENDCHAR
STARTCHAR uni1EF0
ENCODING 7920
SWIDTH 762 0
DWIDTH 8 0
BBX 9 14 0 -3
BITMAP
0000000050
00000000E0
0000000060
5EB204D400
0B50009100
0B50009100
0B50009100
0B50009100
0A60009000
06B0019000
009CBA2000
0000000000
0005A00000
0000100000
ENDCHAR
STARTCHAR uni1EF1
ENCODING 7921
SWIDTH 574 0
DWIDTH 6 0
BBX 7 11 0 -3
BITMAP
00000840
00000640
6D04D500
0E00B300
0E00B300
0E00B300
0E10D300
08C8B800
00000000
00860000
00100000
ENDCHAR
STARTCHAR Ygrave
ENCODING 7922
SWIDTH 647 0
DWIDTH 7 0
BBX 8 11 0 0
BITMAP
00360000
00066000
00000000
9F701B91
0A800900
02E25300
008A8000
001F3000
000E1000
000E2000
007F9100
ENDCHAR
STARTCHAR ygrave
ENCODING 7923
SWIDTH 483 0
DWIDTH 5 0
BBX 7 11 -1 -3
BITMAP
002D0000
00054000
1BC13D30
03D01700
00C35300
00697000
001D6000
000A3000
00080000
01270000
0CB10000
ENDCHAR
STARTCHAR uni1EF4
ENCODING 7924
SWIDTH 647 0
DWIDTH 7 0
BBX 8 11 0 -3
BITMAP
9F701B91
0A800900
02E25300
008A8000
001F3000
000E1000
000E2000
007F9100
00000000
000D1000
00010000
ENDCHAR
STARTCHAR uni1EF5
ENCODING 7925
SWIDTH 483 0
DWIDTH 5 0
BBX 7 9 -1 -3
BITMAP
1BC13D30
03D01700
00C35300
00697000
001D6000
000A3000
00080000
0127C300
0CB11000
ENDCHAR
STARTCHAR uni1EF6
ENCODING 7926
SWIDTH 647 0
DWIDTH 7 0
BBX 8 11 0 0
BITMAP
00175000
0001A000
00052000
9F701B91
0A800900
02E25300
008A8000
001F3000
000E1000
000E2000
007F9100
ENDCHAR
STARTCHAR uni1EF7
ENCODING 7927
SWIDTH 483 0
DWIDTH 5 0
BBX 7 12 -1 -3
BITMAP
00076000
0001A000
00053000
1BC13D30
03D01700
00C35300
00697000
001D6000
000A3000
00080000
01270000
0CB10000
ENDCHAR
STARTCHAR uni1EF8
ENCODING 7928
SWIDTH 647 0
DWIDTH 7 0
BBX 8 10 0 0
BITMAP
007BB300
00000000
9F701B91
0A800900
02E25300
008A8000
001F3000
000E1000
000E2000
007F9100
ENDCHAR
STARTCHAR uni1EF9
ENCODING 7929
SWIDTH 483 0
DWIDTH 5 0
BBX 7 11 -1 -3
BITMAP
005B4500
0043C300
1BC13D30
03D01700
00C35300
00697000
001D6000
000A3000
00080000
01270000
0CB10000
ENDCHAR
STARTCHAR uni2000
ENCODING 8192
SWIDTH 500 0
DWIDTH 6 0
BBX 1 1 0 0
BITMAP
00
ENDCHAR
STARTCHAR uni2001
ENCODING 8193
SWIDTH 1000 0
DWIDTH 11 0
BBX 1 1 0 0
BITMAP
00
ENDCHAR
STARTCHAR uni2002
ENCODING 8194
SWIDTH 500 0
DWIDTH 6 0
BBX 1 1 0 0
BITMAP
00
ENDCHAR
STARTCHAR uni2003
ENCODING 8195
SWIDTH 1000 0
DWIDTH 11 0
BBX 1 1 0 0
BITMAP
00
ENDCHAR
STARTCHAR uni2004
ENCODING 8196
SWIDTH 334 0
DWIDTH 4 0
BBX 1 1 0 0
BITMAP
00
ENDCHAR
STARTCHAR uni2005
ENCODING 8197
SWIDTH 250 0
DWIDTH 3 0
BBX 1 1 0 0
BITMAP
00
ENDCHAR
STARTCHAR uni2006
ENCODING 8198
SWIDTH 167 0
DWIDTH 2 0
BBX 1 1 0 0
BITMAP
00
ENDCHAR
STARTCHAR uni2007
ENCODING 8199
SWIDTH 560 0
DWIDTH 6 0
BBX 1 1 0 0
BITMAP
00
ENDCHAR
STARTCHAR uni2008
ENCODING 8200
SWIDTH 297 0
DWIDTH 3 0
BBX 1 1 0 0
BITMAP
00
ENDCHAR
STARTCHAR uni2009
ENCODING 8201
SWIDTH 125 0
DWIDTH 1 0
BBX 1 1 0 0
BITMAP
00
ENDCHAR
STARTCHAR uni200A
ENCODING 8202
SWIDTH 63 0
DWIDTH 1 0
BBX 1 1 0 0
BITMAP
00
ENDCHAR
STARTCHAR uni200B
ENCODING 8203
SWIDTH 0 0
DWIDTH 0 0
BBX 1 1 0 0
BITMAP
00
ENDCHAR
STARTCHAR uni200C
ENCODING 8204
SWIDTH 0 0
DWIDTH 0 0
BBX 2 13 -1 -3
BITMAP
22
22
22
22
22
22
22
22
22
22
22
22
22
ENDCHAR
STARTCHAR uni200D
ENCODING 8205
SWIDTH 0 0
DWIDTH 0 0
BBX 4 14 -2 -3
BITMAP
2552
0770
2332
0220
0220
0220
0220
0220
0220
0220
0220
0220
0220
0220
ENDCHAR
STARTCHAR uni2010
ENCODING 8208
SWIDTH 315 0
DWIDTH 3 0
BBX 3 1 0 3
BITMAP
6CC0
ENDCHAR
STARTCHAR uni2011
ENCODING 8209
SWIDTH 315 0
DWIDTH 3 0
BBX 3 1 0 3
BITMAP
6CC0
ENDCHAR
STARTCHAR figuredash
ENCODING 8210
SWIDTH 495 0
DWIDTH 5 0
BBX 6 1 0 3
BITMAP
7BBBB1
ENDCHAR
STARTCHAR endash
ENCODING 8211
SWIDTH 500 0
DWIDTH 6 0
BBX 6 1 0 3
BITMAP
7BBBB2
ENDCHAR
STARTCHAR emdash
ENCODING 8212
SWIDTH 1000 0
DWIDTH 11 0
BBX 11 1 0 3
BITMAP
7BBBBBBBBB70
ENDCHAR
STARTCHAR uni2015
ENCODING 8213
SWIDTH 940 0
DWIDTH 10 0
BBX 11 1 0 3
BITMAP
BBBBBBBBBB40
ENDCHAR
STARTCHAR uni2016
ENCODING 8214
SWIDTH 427 0
DWIDTH 5 0
BBX 3 12 1 -3
BITMAP
9180
9180
9180
9180
9180
9180
9180
9180
9180
9180
9180
9180
ENDCHAR
STARTCHAR underscoredbl
ENCODING 8215
SWIDTH 512 0
DWIDTH 6 0
BBX 6 2 0 -3
BITMAP
BBBBB7
BBBBB7
ENDCHAR
STARTCHAR quoteleft
ENCODING 8216
SWIDTH 245 0
DWIDTH 3 0
BBX 3 4 0 5
BITMAP
0500
3600
4F10
0300
ENDCHAR
STARTCHAR quoteright
ENCODING 8217
SWIDTH 245 0
DWIDTH 3 0
BBX 2 3 0 6
BITMAP
5C
1B
25
ENDCHAR
STARTCHAR quotesinglbase
ENCODING 8218
SWIDTH 243 0
DWIDTH 3 0
BBX 2 4 0 -2
BITMAP
14
5E
08
22
ENDCHAR
STARTCHAR quotereversed
ENCODING 8219
SWIDTH 243 0
DWIDTH 3 0
BBX 3 3 0 6
BITMAP
3E10
4800
0700
ENDCHAR
STARTCHAR quotedblleft
ENCODING 8220
SWIDTH 435 0
DWIDTH 5 0
BBX 5 4 0 5
BITMAP
050410
362700
4F4F30
030300
ENDCHAR
STARTCHAR quotedblright
ENCODING 8221
SWIDTH 434 0
DWIDTH 5 0
BBX 5 3 0 6
BITMAP
5C4D00
1B1A10
252600
ENDCHAR
STARTCHAR quotedblbase
ENCODING 8222
SWIDTH 433 0
DWIDTH 5 0
BBX 5 4 0 -2
BITMAP
141400
5E4F10
080800
222300
ENDCHAR
STARTCHAR uni201F
ENCODING 8223
SWIDTH 434 0
DWIDTH 5 0
BBX 5 3 0 6
BITMAP
3E3E20
483900
070710
ENDCHAR
STARTCHAR dagger
ENCODING 8224
SWIDTH 512 0
DWIDTH 6 0
BBX 5 11 0 -2
BITMAP
009400
007200
005000
4EA9D0
005000
008300
00A400
007100
005000
004000
004000
ENDCHAR
STARTCHAR daggerdbl
ENCODING 8225
SWIDTH 512 0
DWIDTH 6 0
BBX 5 11 0 -2
BITMAP
009300
007200
004000
4EA9D0
006000
00A400
006100
4C98C0
015010
009300
004100
ENDCHAR
STARTCHAR bullet
ENCODING 8226
SWIDTH 457 0
DWIDTH 5 0
BBX 3 4 1 2
BITMAP
0100
8F80
BFC0
6E70
ENDCHAR
STARTCHAR twodotenleader
ENCODING 8229
SWIDTH 500 0
DWIDTH 6 0
BBX 5 2 0 0
BITMAP
230040
6902D0
ENDCHAR
STARTCHAR ellipsis
ENCODING 8230
SWIDTH 887 0
DWIDTH 10 0
BBX 8 2 1 0
BITMAP
41042033
B40A6088
ENDCHAR
STARTCHAR uni202F
ENCODING 8239
SWIDTH 125 0
DWIDTH 1 0
BBX 1 1 0 0
BITMAP
00
ENDCHAR
STARTCHAR perthousand
ENCODING 8240
SWIDTH 1017 0
DWIDTH 11 0
BBX 11 8 0 0
BITMAP
09685B300000
560539000000
7433A1000000
184470000000
000A27504630
00469242A060
0090B0647060
04408642A710
ENDCHAR
STARTCHAR uni2031
ENCODING 8241
SWIDTH 1342 0
DWIDTH 15 0
BBX 15 8 0 0
BITMAP
09685B3000000000
5605390000000000
7433A10000000000
1844700000000000
000A275046306500
00469242A0674230
0090B064706B1420
04408642A7177500
ENDCHAR
STARTCHAR minute
ENCODING 8242
SWIDTH 296 0
DWIDTH 3 0
BBX 3 4 0 5
BITMAP
0660
0B20
0A00
2300
ENDCHAR
STARTCHAR second
ENCODING 8243
SWIDTH 436 0
DWIDTH 5 0
BBX 4 4 0 5
BITMAP
066C
0B5A
0A73
2350
ENDCHAR
STARTCHAR uni2034
ENCODING 8244
SWIDTH 576 0
DWIDTH 6 0
BBX 6 4 0 5
BITMAP
066C57
0B5AA3
0A73A0
235140
ENDCHAR
STARTCHAR uni2035
ENCODING 8245
SWIDTH 296 0
DWIDTH 3 0
BBX 3 4 0 5
BITMAP
3900
0C00
0740
0150
ENDCHAR
STARTCHAR uni2036
ENCODING 8246
SWIDTH 436 0
DWIDTH 5 0
BBX 4 4 0 5
BITMAP
3A93
0D68
064A
0155
ENDCHAR
STARTCHAR uni2037
ENCODING 8247
SWIDTH 576 0
DWIDTH 6 0
BBX 6 4 0 5
BITMAP
3A95B0
0D68C1
064A55
015505
ENDCHAR
STARTCHAR uni2038
ENCODING 8248
SWIDTH 523 0
DWIDTH 6 0
BBX 5 4 0 -3
BITMAP
008500
045820
170080
200020
ENDCHAR
STARTCHAR guilsinglleft
ENCODING 8249
SWIDTH 307 0
DWIDTH 3 0
BBX 3 5 0 0
BITMAP
0150
1A10
7700
0830
0040
ENDCHAR
STARTCHAR guilsinglright
ENCODING 8250
SWIDTH 307 0
DWIDTH 3 0
BBX 3 5 0 0
BITMAP
3400
0840
02D0
0920
3100
ENDCHAR
STARTCHAR uni203B
ENCODING 8251
SWIDTH 701 0
DWIDTH 8 0
BBX 7 9 0 -1
BITMAP
11010020
2A0B62A0
04822A10
01759310
1F1C85C0
0367A320
04943B10
2A0A62A0
01000010
ENDCHAR
STARTCHAR exclamdbl
ENCODING 8252
SWIDTH 565 0
DWIDTH 6 0
BBX 5 8 1 0
BITMAP
D10C20
F10D30
E00C20
B00B10
900900
600600
500410
D20D30
ENDCHAR
STARTCHAR uni203E
ENCODING 8254
SWIDTH 512 0
DWIDTH 6 0
BBX 6 1 0 10
BITMAP
999995
ENDCHAR
STARTCHAR uni2040
ENCODING 8256
SWIDTH 810 0
DWIDTH 9 0
BBX 8 3 0 6
BITMAP
006CCB60
07510157
12000001
ENDCHAR
STARTCHAR uni2043
ENCODING 8259
SWIDTH 352 0
DWIDTH 4 0
BBX 4 2 0 2
BITMAP
7FF5
7FF5
ENDCHAR
STARTCHAR fraction
ENCODING 8260
SWIDTH 205 0
DWIDTH 2 0
BBX 6 9 -2 0
BITMAP
000017
000081
000270
000810
002600
008000
036000
080000
350000
ENDCHAR
STARTCHAR uni2047
ENCODING 8263
SWIDTH 822 0
DWIDTH 9 0
BBX 9 8 0 0
BITMAP
3988088A30
940C4C04B0
320D140590
0039000A20
0091003600
0060005100
0130003100
04B000B400
ENDCHAR
STARTCHAR uni204B
ENCODING 8267
SWIDTH 605 0
DWIDTH 7 0
BBX 6 10 0 -2
BITMAP
2BAD94
056B0D
056B0D
056B1D
056C74
056B00
056B00
056B00
056B00
2A5D50
ENDCHAR
STARTCHAR uni204C
ENCODING 8268
SWIDTH 479 0
DWIDTH 5 0
BBX 4 4 1 1
BITMAP
5863
FA50
EA50
5863
ENDCHAR
STARTCHAR uni204D
ENCODING 8269
SWIDTH 479 0
DWIDTH 5 0
BBX 5 4 0 1
BITMAP
267800
056F40
056F30
267700
ENDCHAR
STARTCHAR uni204E
ENCODING 8270
SWIDTH 410 0
DWIDTH 5 0
BBX 4 5 0 -2
BITMAP
0150
6589
18C4
678B
0180
ENDCHAR
STARTCHAR uni204F
ENCODING 8271
SWIDTH 245 0
DWIDTH 3 0
BBX 2 8 0 -2
BITMAP
3C
15
00
00
14
5E
44
05
ENDCHAR
STARTCHAR uni2050
ENCODING 8272
SWIDTH 809 0
DWIDTH 9 0
BBX 9 9 0 0
BITMAP
007AAA7000
0940006900
2700000810
0000000000
0000000000
0000000000
2700000810
0A40005900
018AAA7000
ENDCHAR
STARTCHAR uni2051
ENCODING 8273
SWIDTH 410 0
DWIDTH 5 0
BBX 4 10 0 -1
BITMAP
0190
778C
08C3
658A
0150
0150
658A
18C3
668C
0180
ENDCHAR
STARTCHAR uni2052
ENCODING 8274
SWIDTH 482 0
DWIDTH 5 0
BBX 5 12 0 -3
BITMAP
2C0380
040740
000B10
001B00
005700
009300
00C000
029000
065000
0A1000
0B0970
480210
ENDCHAR
STARTCHAR uni2057
ENCODING 8279
SWIDTH 727 0
DWIDTH 8 0
BBX 8 4 0 5
BITMAP
066C57A3
0B5AA4D0
0A73A460
23514410
ENDCHAR
STARTCHAR uni205F
ENCODING 8287
SWIDTH 222 0
DWIDTH 2 0
BBX 1 1 0 0
BITMAP
00
ENDCHAR
STARTCHAR uni2061
ENCODING 8289
SWIDTH 0 0
DWIDTH 0 0
BBX 1 1 0 0
BITMAP
00
ENDCHAR
STARTCHAR uni2062
ENCODING 8290
SWIDTH 0 0
DWIDTH 0 0
BBX 1 1 0 0
BITMAP
00
ENDCHAR
STARTCHAR uni2063
ENCODING 8291
SWIDTH 0 0
DWIDTH 0 0
BBX 1 1 0 0
BITMAP
00
ENDCHAR
STARTCHAR uni2064
ENCODING 8292
SWIDTH 0 0
DWIDTH 0 0
BBX 1 1 0 0
BITMAP
00
ENDCHAR
STARTCHAR zerosuperior
ENCODING 8304
SWIDTH 412 0
DWIDTH 5 0
BBX 5 5 0 3
BITMAP
186700
840B10
A30A30
840B10
196600
ENDCHAR
STARTCHAR uni2071
ENCODING 8305
SWIDTH 245 0
DWIDTH 3 0
BBX 3 6 0 3
BITMAP
1B00
0000
4B00
1C00
1C00
4D20
ENDCHAR
STARTCHAR foursuperior
ENCODING 8308
SWIDTH 403 0
DWIDTH 4 0
BBX 5 5 0 3
BITMAP
009600
058600
446600
9ACC30
006600
ENDCHAR
STARTCHAR fivesuperior
ENCODING 8309
SWIDTH 358 0
DWIDTH 4 0
BBX 4 5 0 3
BITMAP
2CB4
5B91
0067
0027
7761
ENDCHAR
STARTCHAR sixsuperior
ENCODING 8310
SWIDTH 390 0
DWIDTH 4 0
BBX 4 5 0 3
BITMAP
0552
5A94
940C
840C
2966
ENDCHAR
STARTCHAR sevensuperior
ENCODING 8311
SWIDTH 364 0
DWIDTH 4 0
BBX 4 5 0 3
BITMAP
7BBA
2035
0090
0280
0820
ENDCHAR
STARTCHAR eightsuperior
ENCODING 8312
SWIDTH 374 0
DWIDTH 4 0
BBX 4 5 0 3
BITMAP
4765
7736
19B2
912B
6767
ENDCHAR
STARTCHAR ninesuperior
ENCODING 8313
SWIDTH 390 0
DWIDTH 4 0
BBX 4 5 0 3
BITMAP
5865
A20C
397D
0069
2791
ENDCHAR
STARTCHAR uni207A
ENCODING 8314
SWIDTH 536 0
DWIDTH 6 0
BBX 6 5 0 3
BITMAP
003200
006400
49BB93
006400
006400
ENDCHAR
STARTCHAR uni207B
ENCODING 8315
SWIDTH 536 0
DWIDTH 6 0
BBX 6 1 0 5
BITMAP
499993
ENDCHAR
STARTCHAR uni207C
ENCODING 8316
SWIDTH 534 0
DWIDTH 6 0
BBX 6 3 0 4
BITMAP
499993
000000
499993
ENDCHAR
STARTCHAR parenleftsuperior
ENCODING 8317
SWIDTH 268 0
DWIDTH 3 0
BBX 3 8 0 1
BITMAP
0540
2700
8200
A100
9200
5500
0810
0030
ENDCHAR
STARTCHAR parenrightsuperior
ENCODING 8318
SWIDTH 268 0
DWIDTH 3 0
BBX 3 8 0 1
BITMAP
4400
0820
0380
02A0
0290
0640
1800
3000
ENDCHAR
STARTCHAR nsuperior
ENCODING 8319
SWIDTH 491 0
DWIDTH 5 0
BBX 6 4 0 3
BITMAP
4C7B30
1B0670
1B0570
4D29A1
ENDCHAR
STARTCHAR zeroinferior
ENCODING 8320
SWIDTH 412 0
DWIDTH 5 0
BBX 5 5 0 -2
BITMAP
186700
840B10
A30A30
840B10
196600
ENDCHAR
STARTCHAR oneinferior
ENCODING 8321
SWIDTH 333 0
DWIDTH 4 0
BBX 4 5 0 -2
BITMAP
3A50
0750
0750
0750
2B91
ENDCHAR
STARTCHAR twoinferior
ENCODING 8322
SWIDTH 373 0
DWIDTH 4 0
BBX 4 5 0 -2
BITMAP
39C4
1049
0082
0622
8CBA
ENDCHAR
STARTCHAR threeinferior
ENCODING 8323
SWIDTH 374 0
DWIDTH 4 0
BBX 4 5 0 -2
BITMAP
39C2
1083
06B3
003A
6773
ENDCHAR
STARTCHAR fourinferior
ENCODING 8324
SWIDTH 403 0
DWIDTH 4 0
BBX 5 5 0 -2
BITMAP
009600
058600
446600
9ACC30
006600
ENDCHAR
STARTCHAR fiveinferior
ENCODING 8325
SWIDTH 358 0
DWIDTH 4 0
BBX 4 5 0 -2
BITMAP
2CB4
5B91
0067
0027
7761
ENDCHAR
STARTCHAR sixinferior
ENCODING 8326
SWIDTH 390 0
DWIDTH 4 0
BBX 4 5 0 -2
BITMAP
0552
5A94
940C
840C
2966
ENDCHAR
STARTCHAR seveninferior
ENCODING 8327
SWIDTH 364 0
DWIDTH 4 0
BBX 4 5 0 -2
BITMAP
7BBA
2035
0090
0280
0820
ENDCHAR
STARTCHAR eightinferior
ENCODING 8328
SWIDTH 374 0
DWIDTH 4 0
BBX 4 5 0 -2
BITMAP
4765
7736
19B2
912B
6767
ENDCHAR
STARTCHAR nineinferior
ENCODING 8329
SWIDTH 390 0
DWIDTH 4 0
BBX 4 5 0 -2
BITMAP
5865
A20C
397D
0069
2791
ENDCHAR
STARTCHAR uni208A
ENCODING 8330
SWIDTH 536 0
DWIDTH 6 0
BBX 6 5 0 -2
BITMAP
003200
006400
49BB93
006400
006400
ENDCHAR
STARTCHAR uni208B
ENCODING 8331
SWIDTH 536 0
DWIDTH 6 0
BBX 6 1 0 0
BITMAP
499993
ENDCHAR
STARTCHAR uni208C
ENCODING 8332
SWIDTH 534 0
DWIDTH 6 0
BBX 6 3 0 -1
BITMAP
499993
000000
499993
ENDCHAR
STARTCHAR parenleftinferior
ENCODING 8333
SWIDTH 268 0
DWIDTH 3 0
BBX 3 8 0 -4
BITMAP
0540
2700
8200
A100
9200
5500
0810
0030
ENDCHAR
STARTCHAR parenrightinferior
ENCODING 8334
SWIDTH 268 0
DWIDTH 3 0
BBX 3 8 0 -4
BITMAP
4400
0820
0380
02A0
0290
0640
1800
3000
ENDCHAR
STARTCHAR uni20A3
ENCODING 8355
SWIDTH 495 0
DWIDTH 5 0
BBX 6 8 0 0
BITMAP
4B98B2
0C3053
0C3011
6D9820
6D9820
0C3000
0C3000
4EA200
ENDCHAR
STARTCHAR uni20A4
ENCODING 8356
SWIDTH 495 0
DWIDTH 5 0
BBX 6 8 0 0
BITMAP
007AA0
047090
076000
3BC810
3AC810
049000
598032
779D80
ENDCHAR
STARTCHAR uni20A7
ENCODING 8359
SWIDTH 1193 0
DWIDTH 13 0
BBX 13 8 0 0
BITMAP
3A877001000000
09608928000000
08605A9C639870
08608658094050
08A7505805E600
08600058004D80
096000580602C0
3DB3002D787760
ENDCHAR
STARTCHAR uni20AB
ENCODING 8363
SWIDTH 495 0
DWIDTH 5 0
BBX 5 8 0 0
BITMAP
001B50
018CA0
088C50
570950
850850
690950
1BBA90
288850
ENDCHAR
STARTCHAR Euro
ENCODING 8364
SWIDTH 495 0
DWIDTH 5 0
BBX 6 8 0 0
BITMAP
0297A3
0B2072
1D0021
8D8800
9D7600
2D0000
0C5032
03CC70
ENDCHAR
STARTCHAR uni20B9
ENCODING 8377
SWIDTH 495 0
DWIDTH 5 0
BBX 6 8 0 0
BITMAP
37A960
002E00
377E70
002C00
39B100
00C500
002E20
000592
ENDCHAR
STARTCHAR uni20BA
ENCODING 8378
SWIDTH 495 0
DWIDTH 5 0
BBX 6 8 0 0
BITMAP
5A8100
0D3000
0C4300
6E8200
3D9500
4D20B4
0D20D1
5E9A50
ENDCHAR
STARTCHAR uni20BD
ENCODING 8381
SWIDTH 495 0
DWIDTH 5 0
BBX 6 8 0 0
BITMAP
4B8830
0C32E1
0C30E2
0C32D0
5D9820
5D9810
0C3000
4E9100
ENDCHAR
STARTCHAR uni20D0
ENCODING 8400
SWIDTH 0 0
DWIDTH 0 0
BBX 5 2 -5 7
BITMAP
250000
988860
ENDCHAR
STARTCHAR uni20D1
ENCODING 8401
SWIDTH 0 0
DWIDTH 0 0
BBX 5 2 -5 7
BITMAP
000510
788990
ENDCHAR
STARTCHAR uni20D2
ENCODING 8402
SWIDTH 0 0
DWIDTH 0 0
BBX 1 11 -3 -2
BITMAP
80
80
80
80
80
80
80
80
80
80
40
ENDCHAR
STARTCHAR uni20D3
ENCODING 8403
SWIDTH 0 0
DWIDTH 0 0
BBX 1 8 -3 -2
BITMAP
40
80
80
80
80
80
80
80
ENDCHAR
STARTCHAR uni20D4
ENCODING 8404
SWIDTH 0 0
DWIDTH 0 0
BBX 6 4 -6 5
BITMAP
006760
362027
6A3007
130000
ENDCHAR
STARTCHAR uni20D5
ENCODING 8405
SWIDTH 0 0
DWIDTH 0 0
BBX 6 4 -5 5
BITMAP
077600
820253
8003A6
000031
ENDCHAR
STARTCHAR uni20D6
ENCODING 8406
SWIDTH 0 0
DWIDTH 0 0
BBX 5 3 -5 6
BITMAP
240000
C88860
240000
ENDCHAR
STARTCHAR uni20D7
ENCODING 8407
SWIDTH 0 0
DWIDTH 0 0
BBX 5 3 -5 6
BITMAP
000520
6889B0
000510
ENDCHAR
STARTCHAR uni20D8
ENCODING 8408
SWIDTH 0 0
DWIDTH 0 0
BBX 5 4 -5 1
BITMAP
058500
280910
280910
068500
ENDCHAR
STARTCHAR uni20D9
ENCODING 8409
SWIDTH 0 0
DWIDTH 0 0
BBX 5 4 -5 1
BITMAP
068500
181D60
180A10
068500
ENDCHAR
STARTCHAR uni20DA
ENCODING 8410
SWIDTH 0 0
DWIDTH 0 0
BBX 5 4 -5 1
BITMAP
069500
280A10
181D50
069510
ENDCHAR
STARTCHAR uni20DB
ENCODING 8411
SWIDTH 0 0
DWIDTH 0 0
BBX 7 2 -6 5
BITMAP
390C0A20
01010100
ENDCHAR
STARTCHAR uni20DC
ENCODING 8412
SWIDTH 0 0
DWIDTH 0 0
BBX 9 2 -7 5
BITMAP
582B0C1940
0101010100
ENDCHAR
STARTCHAR uni20DD
ENCODING 8413
SWIDTH 0 0
DWIDTH 0 0
BBX 11 11 -8 -3
BITMAP
0017BBB71000
03C50016C200
1C2000002B00
750000000660
B100000001A0
B000000000B0
B000000001A0
750000000660
1C2000002B00
03C50016B200
0017BBB71000
ENDCHAR
STARTCHAR uni20DE
ENCODING 8414
SWIDTH 0 0
DWIDTH 0 0
BBX 11 11 -8 -2
BITMAP
CBBBBBBBBBB0
B000000000B0
B000000000B0
B000000000B0
B000000000B0
B000000000B0
B000000000B0
B000000000B0
B000000000B0
B000000000B0
CBBBBBBBBBB0
ENDCHAR
STARTCHAR uni20DF
ENCODING 8415
SWIDTH 0 0
DWIDTH 0 0
BBX 14 14 -10 -4
BITMAP
00000004000000
0000008C700000
00000880970000
00008800097000
00088000009700
00880000000870
08800000000087
1C30000000004B
01B300000004B1
001B3000004B10
0001B30004B100
00001B304B1000
000001B7B10000
00000019100000
ENDCHAR
STARTCHAR uni20E1
ENCODING 8417
SWIDTH 0 0
DWIDTH 0 0
BBX 7 3 -6 6
BITMAP
04303300
1D888D10
04303300
ENDCHAR
STARTCHAR uni20E4
ENCODING 8420
SWIDTH 0 0
DWIDTH 0 0
BBX 17 14 -11 -2
BITMAP
000000001000000000
00000003D100000000
0000000CA800000000
000000690C30000000
000001D103C0000000
000009600097000000
00004C00001D200000
0000C3000005A00000
000780000000B50000
002D100000002D1000
00A500000000079000
05B00000000000C300
1D2000000000003C00
7DBBBBBBBBBBBBBD60
ENDCHAR
STARTCHAR uni20E5
ENCODING 8421
SWIDTH 0 0
DWIDTH 0 0
BBX 5 9 -5 -2
BITMAP
820000
280000
090000
045000
009000
006300
001900
000810
000270
ENDCHAR
STARTCHAR uni20E6
ENCODING 8422
SWIDTH 0 0
DWIDTH 0 0
BBX 3 9 -4 -2
BITMAP
8080
8080
8080
8080
8080
8080
8080
8080
8080
ENDCHAR
STARTCHAR uni20E7
ENCODING 8423
SWIDTH 0 0
DWIDTH 0 0
BBX 10 11 -7 -3
BITMAP
ABBBBBBBC4
0000000074
0000000074
0000000074
0000000074
0000000074
0000000074
0000000074
0000000074
0000000074
0000000021
ENDCHAR
STARTCHAR uni20E8
ENCODING 8424
SWIDTH 0 0
DWIDTH 0 0
BBX 7 2 -6 -3
BITMAP
390C0A20
01010100
ENDCHAR
STARTCHAR uni20E9
ENCODING 8425
SWIDTH 0 0
DWIDTH 0 0
BBX 7 2 -6 6
BITMAP
69999A60
61000160
ENDCHAR
STARTCHAR uni20EA
ENCODING 8426
SWIDTH 0 0
DWIDTH 0 0
BBX 10 5 -8 0
BITMAP
0001000000
0180000000
1CEBBBBBB6
0181000000
0001000000
ENDCHAR
STARTCHAR uni20EB
ENCODING 8427
SWIDTH 0 0
DWIDTH 0 0
BBX 7 11 -6 -2
BITMAP
00009090
00036270
00091810
00181900
00726300
00909000
04536000
09081000
28180000
82720000
90900000
ENDCHAR
STARTCHAR uni20EC
ENCODING 8428
SWIDTH 0 0
DWIDTH 0 0
BBX 5 2 -5 -3
BITMAP
788990
000510
ENDCHAR
STARTCHAR uni20ED
ENCODING 8429
SWIDTH 0 0
DWIDTH 0 0
BBX 5 2 -5 -3
BITMAP
A88860
250000
ENDCHAR
STARTCHAR uni20EE
ENCODING 8430
SWIDTH 0 0
DWIDTH 0 0
BBX 5 3 -5 -3
BITMAP
240000
C88860
240000
ENDCHAR
STARTCHAR uni20EF
ENCODING 8431
SWIDTH 0 0
DWIDTH 0 0
BBX 5 3 -5 -3
BITMAP
000520
6889C0
000520
ENDCHAR
STARTCHAR uni20F0
ENCODING 8432
SWIDTH 0 0
DWIDTH 0 0
BBX 3 4 -4 6
BITMAP
0400
8780
7A70
2820
ENDCHAR
STARTCHAR uni2100
ENCODING 8448
SWIDTH 939 0
DWIDTH 10 0
BBX 10 8 0 0
BITMAP
1682000420
3539001800
067A007100
762A035566
3959283606
0000627400
0002705903
00070009B5
ENDCHAR
STARTCHAR uni2101
ENCODING 8449
SWIDTH 936 0
DWIDTH 10 0
BBX 10 8 0 0
BITMAP
1682000520
2439001700
176A008110
763A045968
3959381C31
00007104D7
000360241C
0006001864
ENDCHAR
STARTCHAR uni2102
ENCODING 8450
SWIDTH 695 0
DWIDTH 8 0
BBX 8 8 0 0
BITMAP
00687710
09600191
48500000
73500000
73500000
38500000
09600191
00587610
ENDCHAR
STARTCHAR uni2103
ENCODING 8451
SWIDTH 1028 0
DWIDTH 11 0
BBX 11 9 0 0
BITMAP
089300000000
550901999EA0
55090C5003A0
08944C000060
00007A000000
00007A000000
00004D000000
00000D700160
000002ACB910
ENDCHAR
STARTCHAR uni2104
ENCODING 8452
SWIDTH 646 0
DWIDTH 7 0
BBX 7 8 0 0
BITMAP
06A81000
00E30000
1AEA6000
97D23000
A5D20000
4CE73030
02E40190
05A87960
ENDCHAR
STARTCHAR uni2105
ENCODING 8453
SWIDTH 953 0
DWIDTH 10 0
BBX 10 8 0 0
BITMAP
0575001600
5518007100
8300035000
6703082772
1AB462B11C
000270D00D
000800C11C
0023002762
ENDCHAR
STARTCHAR uni2106
ENCODING 8454
SWIDTH 1072 0
DWIDTH 12 0
BBX 12 8 0 0
BITMAP
057500060000
450800540000
740001800000
680307391480
09B5350A20C0
0000800A20C0
0006200931C0
0016000395A2
ENDCHAR
STARTCHAR uni2107
ENCODING 8455
SWIDTH 612 0
DWIDTH 7 0
BBX 7 8 0 0
BITMAP
08A77B10
4E000720
2E200110
06D93000
7D100000
AA000310
4D101D20
04987200
ENDCHAR
STARTCHAR uni2108
ENCODING 8456
SWIDTH 669 0
DWIDTH 7 0
BBX 7 8 0 0
BITMAP
34775000
5B103C10
53120880
002C7AB0
002406B0
00000A80
45005E20
05ABA200
ENDCHAR
STARTCHAR uni2109
ENCODING 8457
SWIDTH 949 0
DWIDTH 10 0
BBX 11 9 0 0
BITMAP
089300000000
55094DB89C40
550909700230
089408703400
000008B7C400
000008702400
000008700000
000009700000
00004DC30000
ENDCHAR
STARTCHAR uni210A
ENCODING 8458
SWIDTH 657 0
DWIDTH 7 0
BBX 8 8 -1 -3
BITMAP
00006AA2
000830C1
008B0491
17692BA4
204D6760
02A00B20
06705800
01876000
ENDCHAR
STARTCHAR uni210B
ENCODING 8459
SWIDTH 951 0
DWIDTH 10 0
BBX 11 8 0 0
BITMAP
0046A6002880
0830C2027020
0910D0092000
0002D77C0000
000560490000
000920680000
602600681100
685000296000
ENDCHAR
STARTCHAR uni210C
ENCODING 8460
SWIDTH 728 0
DWIDTH 8 0
BBX 8 11 0 -3
BITMAP
00040210
006EE700
03701100
07A1BF60
04F706F3
00BC00C7
031C00A6
2EB400C2
21400470
00AE8700
02135000
ENDCHAR
STARTCHAR uni210D
ENCODING 8461
SWIDTH 715 0
DWIDTH 8 0
BBX 8 8 0 0
BITMAP
28600791
34700761
34700761
34700761
34A77961
34700761
34700761
28600791
ENDCHAR
STARTCHAR uni210E
ENCODING 8462
SWIDTH 569 0
DWIDTH 6 0
BBX 6 9 0 0
BITMAP
001000
04E000
02A000
0574C5
087577
0C7094
0E10D1
3A01D2
5601C5
ENDCHAR
STARTCHAR uni210F
ENCODING 8463
SWIDTH 569 0
DWIDTH 6 0
BBX 6 9 0 0
BITMAP
001000
04E000
04D730
3974C5
097577
0C7094
1E10D1
3A01D2
5601C5
ENDCHAR
STARTCHAR uni2110
ENCODING 8464
SWIDTH 496 0
DWIDTH 5 0
BBX 6 8 0 0
BITMAP
0046A4
0820E0
0D02C0
010590
000860
000B10
513700
685000
ENDCHAR
STARTCHAR uni2111
ENCODING 8465
SWIDTH 673 0
DWIDTH 7 0
BBX 7 8 0 -1
BITMAP
05DD7040
0C36DF60
19002A40
04518800
00006E20
2CA00D70
22E40C40
00386400
ENDCHAR
STARTCHAR uni2112
ENCODING 8466
SWIDTH 699 0
DWIDTH 8 0
BBX 7 8 0 0
BITMAP
00026920
001B0840
00770000
00C30000
01C00000
07200040
7CC60260
5029DB10
ENDCHAR
STARTCHAR uni2113
ENCODING 8467
SWIDTH 529 0
DWIDTH 6 0
BBX 6 8 0 0
BITMAP
000383
002808
00A134
039450
2B7200
2C0110
2A0600
086100
ENDCHAR
STARTCHAR uni2114
ENCODING 8468
SWIDTH 787 0
DWIDTH 9 0
BBX 9 9 0 0
BITMAP
0300300000
6F0BB00000
5E68C64000
0D03B8C500
0D03C12E10
0D03B00C30
0D03B00C20
0D13B01B00
3A51866100
ENDCHAR
STARTCHAR uni2115
ENCODING 8469
SWIDTH 692 0
DWIDTH 8 0
BBX 7 8 0 0
BITMAP
38500050
47630070
4A380070
44828070
44184570
44045790
440072A0
33000880
ENDCHAR
STARTCHAR uni2116
ENCODING 8470
SWIDTH 1070 0
DWIDTH 12 0
BBX 12 8 0 0
BITMAP
05A30007B200
00BD00447200
008A80713660
0082E381B075
00806D81B065
00800CE13660
817002F10000
991000717882
ENDCHAR
STARTCHAR uni2117
ENCODING 8471
SWIDTH 781 0
DWIDTH 9 0
BBX 8 8 0 0
BITMAP
00355510
05300062
15295607
510B0C06
510C5506
15392007
05300062
00355510
ENDCHAR
STARTCHAR uni2118
ENCODING 8472
SWIDTH 846 0
DWIDTH 9 0
BBX 9 9 0 -3
BITMAP
0068500000
0A60146740
3C01A701E0
690C6002E0
1B99020690
05E84A1B10
0B59366200
0E0B100000
0662000000
ENDCHAR
STARTCHAR uni2119
ENCODING 8473
SWIDTH 665 0
DWIDTH 7 0
BBX 7 8 0 0
BITMAP
28977710
34701880
34701680
34701780
34A77700
34700000
34700000
28600000
ENDCHAR
STARTCHAR uni211A
ENCODING 8474
SWIDTH 751 0
DWIDTH 8 0
BBX 8 9 0 -1
BITMAP
00578710
096002C1
38500187
73500168
73500168
38500187
086784C1
00587B21
00000187
ENDCHAR
STARTCHAR uni211B
ENCODING 8475
SWIDTH 789 0
DWIDTH 9 0
BBX 8 8 0 0
BITMAP
0015B771
0491E06B
0C23B05B
010682A2
00089C00
000B1D10
60460884
874002A4
ENDCHAR
STARTCHAR uni211C
ENCODING 8476
SWIDTH 778 0
DWIDTH 9 0
BBX 8 8 0 0
BITMAP
06744C80
682F52F2
4E3E51E1
097D8B40
071E3A90
000C08C0
0C9506F5
257001A2
ENDCHAR
STARTCHAR uni211D
ENCODING 8477
SWIDTH 729 0
DWIDTH 8 0
BBX 8 8 0 0
BITMAP
28977710
34702780
34702680
34702780
34A98B10
34727620
34705481
28600786
ENDCHAR
STARTCHAR uni211E
ENCODING 8478
SWIDTH 725 0
DWIDTH 8 0
BBX 8 9 0 -1
BITMAP
39867200
0A605D00
09600F10
09606B00
09AB9000
0962D353
0A605E40
39837792
00030000
ENDCHAR
STARTCHAR uni211F
ENCODING 8479
SWIDTH 659 0
DWIDTH 7 0
BBX 8 12 0 -3
BITMAP
00096000
00046100
1651B500
08736E00
08786B00
08BE8100
08D6D000
08C0B700
09803E20
3B930782
07050000
02750000
ENDCHAR
STARTCHAR uni2120
ENCODING 8480
SWIDTH 937 0
DWIDTH 10 0
BBX 10 5 0 2
BITMAP
4C94760076
66015B12B4
07A1558774
605751B664
5662744176
ENDCHAR
STARTCHAR uni2121
ENCODING 8481
SWIDTH 1200 0
DWIDTH 13 0
BBX 13 5 0 2
BITMAP
66874966568100
22902A03247000
02900A57047000
02900A00447040
04811966568670
ENDCHAR
STARTCHAR trademark
ENCODING 8482
SWIDTH 881 0
DWIDTH 10 0
BBX 10 4 0 3
BITMAP
6677570192
24624B36A0
046043B5A0
0660545282
ENDCHAR
STARTCHAR uni2123
ENCODING 8483
SWIDTH 680 0
DWIDTH 7 0
BBX 9 12 -1 -3
BITMAP
0000860000
0001470000
18A6085A30
01E3172800
0099718200
002E809000
000B753000
000AD80000
0034C50000
0070300000
0071500000
0037500000
ENDCHAR
STARTCHAR uni2124
ENCODING 8484
SWIDTH 648 0
DWIDTH 7 0
BBX 7 8 0 0
BITMAP
27779890
00008360
00072900
00358100
01845000
08280000
54810000
87977760
ENDCHAR
STARTCHAR uni2125
ENCODING 8485
SWIDTH 434 0
DWIDTH 5 0
BBX 5 11 0 -3
BITMAP
567A10
30A700
07A000
1A7A10
01B500
07A300
001D20
000A60
000C40
312B00
486100
ENDCHAR
STARTCHAR uni2126
ENCODING 8486
SWIDTH 763 0
DWIDTH 8 0
BBX 9 8 0 0
BITMAP
0058671000
099003D100
2F10009800
5E00008B00
4F1000A900
0B8003E200
4066192310
AEE82EEE10
ENDCHAR
STARTCHAR uni2127
ENCODING 8487
SWIDTH 763 0
DWIDTH 8 0
BBX 9 8 0 0
BITMAP
AEE82FEF10
40661A2410
0A8003E300
3F1000AA00
5E00008B00
3F1000A800
099004D100
0057671000
ENDCHAR
STARTCHAR uni2128
ENCODING 8488
SWIDTH 641 0
DWIDTH 7 0
BBX 7 10 0 -2
BITMAP
0058A300
05103E20
02000D40
00403D10
002CE400
00502E20
00000B70
2C800A70
23F20C20
00586300
ENDCHAR
STARTCHAR uni2129
ENCODING 8489
SWIDTH 368 0
DWIDTH 4 0
BBX 4 6 0 -1
BITMAP
2980
25F1
04F2
04F2
04F2
0140
ENDCHAR
STARTCHAR uni212A
ENCODING 8490
SWIDTH 702 0
DWIDTH 8 0
BBX 8 8 0 0
BITMAP
4DC33F91
08705700
08737000
08A80000
08AD3000
0874D200
08706D10
4CC33ED4
ENDCHAR
STARTCHAR uni212B
ENCODING 8491
SWIDTH 722 0
DWIDTH 8 0
BBX 8 10 0 0
BITMAP
00076000
00257000
000A8000
000CA000
0038E100
0091B800
01A06E00
07977E60
0B0008C0
792007A6
ENDCHAR
STARTCHAR uni212C
ENCODING 8492
SWIDTH 754 0
DWIDTH 8 0
BBX 8 8 0 0
BITMAP
0036C582
0763B05A
0D068084
00089A91
000B1097
00280077
018102A1
5CBBA710
ENDCHAR
STARTCHAR uni212D
ENCODING 8493
SWIDTH 639 0
DWIDTH 7 0
BBX 7 8 0 0
BITMAP
02847630
0D258B10
5B0C1000
7A0B8000
7B04F200
4E10D200
0CA56610
02BEC400
ENDCHAR
STARTCHAR estimated
ENCODING 8494
SWIDTH 863 0
DWIDTH 10 0
BBX 9 8 0 -1
BITMAP
0026655000
0650001A20
3F000008C0
8F655558A0
8F00000000
3F00000000
0680002910
0026555000
ENDCHAR
STARTCHAR uni212F
ENCODING 8495
SWIDTH 527 0
DWIDTH 6 0
BBX 5 6 0 0
BITMAP
002770
0290C0
0B4A40
2E8110
6D0180
06A810
ENDCHAR
STARTCHAR uni2130
ENCODING 8496
SWIDTH 572 0
DWIDTH 6 0
BBX 7 8 0 0
BITMAP
00476600
03D00E10
02C00100
028A4000
3B100000
98001100
7A008300
06763000
ENDCHAR
STARTCHAR uni2131
ENCODING 8497
SWIDTH 713 0
DWIDTH 8 0
BBX 9 9 0 0
BITMAP
0000010000
00258C2040
0680968900
0920C20000
0017E74000
0003B00000
0007500000
6028000000
7750000000
ENDCHAR
STARTCHAR uni2132
ENCODING 8498
SWIDTH 588 0
DWIDTH 6 0
BBX 6 8 0 0
BITMAP
0017A7
0000F0
0000F0
0600F0
0C76F0
0300F0
8000F0
8888A7
ENDCHAR
STARTCHAR uni2133
ENCODING 8499
SWIDTH 1038 0
DWIDTH 11 0
BBX 12 8 0 0
BITMAP
018B30000688
0508D0008E01
0007B4076A00
000778357700
00165980A400
00524D40D200
60604D00F120
97103500A810
ENDCHAR
STARTCHAR uni2134
ENCODING 8500
SWIDTH 691 0
DWIDTH 8 0
BBX 9 6 -1 0
BITMAP
0000484000
000553E140
002D01D820
02BB00C100
383D057000
0006750000
ENDCHAR
STARTCHAR uni2135
ENCODING 8501
SWIDTH 698 0
DWIDTH 8 0
BBX 8 8 0 0
BITMAP
53000800
4E300AA0
07E406B1
1C5E5710
4D04EA00
2F503E80
06E002E1
17500040
ENDCHAR
STARTCHAR uni2136
ENCODING 8502
SWIDTH 654 0
DWIDTH 7 0
BBX 7 9 0 -1
BITMAP
03000000
1EFFE600
01226E00
00000C10
00000A00
00000800
00000610
1AEFFF40
13222100
ENDCHAR
STARTCHAR uni2137
ENCODING 8503
SWIDTH 517 0
DWIDTH 6 0
BBX 6 9 0 -1
BITMAP
022000
06FE10
002A30
000620
000700
000A50
0049E1
2DC0A2
220010
ENDCHAR
STARTCHAR uni2138
ENCODING 8504
SWIDTH 613 0
DWIDTH 7 0
BBX 6 8 0 0
BITMAP
350000
4FFFF6
012274
0000B0
0001E0
0001F2
0000F3
000190
ENDCHAR
STARTCHAR uni2139
ENCODING 8505
SWIDTH 361 0
DWIDTH 4 0
BBX 4 8 0 0
BITMAP
0DC0
0DD0
4880
3FE0
0FE0
0FE0
0FE0
6BB6
ENDCHAR
STARTCHAR uni213A
ENCODING 8506
SWIDTH 907 0
DWIDTH 10 0
BBX 10 9 0 -1
BITMAP
0000000002
019DDB4007
0C7324A52A
5500000AD6
7100000980
5400000900
1C40018700
02BFEE7000
0001100000
ENDCHAR
STARTCHAR uni213B
ENCODING 8507
SWIDTH 1216 0
DWIDTH 13 0
BBX 14 5 0 2
BITMAP
39572380195371
0B0417C103B810
0C57178600A800
0B00777D046C30
39218119681581
ENDCHAR
STARTCHAR uni213C
ENCODING 8508
SWIDTH 689 0
DWIDTH 8 0
BBX 8 6 0 0
BITMAP
59988960
07835700
07835700
07835700
07829731
07806950
ENDCHAR
STARTCHAR uni213D
ENCODING 8509
SWIDTH 552 0
DWIDTH 6 0
BBX 6 8 0 -3
BITMAP
581006
758063
085770
019920
006670
007880
008880
004820
ENDCHAR
STARTCHAR uni213E
ENCODING 8510
SWIDTH 550 0
DWIDTH 6 0
BBX 6 8 0 0
BITMAP
289777
347000
347000
347000
347000
347000
347000
286000
ENDCHAR
STARTCHAR uni213F
ENCODING 8511
SWIDTH 714 0
DWIDTH 8 0
BBX 8 8 0 0
BITMAP
28977991
34700761
34700761
34700761
34700761
34700761
34700761
28600791
ENDCHAR
STARTCHAR uni2140
ENCODING 8512
SWIDTH 945 0
DWIDTH 10 0
BBX 10 12 0 -3
BITMAP
4BACAAAA60
1B08300000
0471A00000
00A2560000
00290A1000
0007428000
000652A000
001A0A1000
0092560000
0471A00000
0B09300000
4BACAAAAA9
ENDCHAR
STARTCHAR uni2141
ENCODING 8513
SWIDTH 711 0
DWIDTH 8 0
BBX 8 8 0 0
BITMAP
18CDC700
4C101BA0
4B0000D4
3EB00097
00000087
130000D3
1C301A90
04BDC600
ENDCHAR
STARTCHAR uni2142
ENCODING 8514
SWIDTH 572 0
DWIDTH 6 0
BBX 6 8 0 0
BITMAP
9CCCD6
000087
000087
000087
000087
000087
000087
000033
ENDCHAR
STARTCHAR uni2143
ENCODING 8515
SWIDTH 572 0
DWIDTH 6 0
BBX 6 8 0 0
BITMAP
000044
000087
000087
000087
000087
000087
000087
ADDDD6
ENDCHAR
STARTCHAR uni2144
ENCODING 8516
SWIDTH 645 0
DWIDTH 7 0
BBX 7 8 0 0
BITMAP
00070000
000E0000
000E0000
000E1000
007E8000
02D1C300
0B503C00
7A000880
ENDCHAR
STARTCHAR uni2145
ENCODING 8517
SWIDTH 717 0
DWIDTH 8 0
BBX 8 8 0 0
BITMAP
04887720
084301C1
08710285
07800537
35800735
63600791
85301C40
89777100
ENDCHAR
STARTCHAR uni2146
ENCODING 8518
SWIDTH 607 0
DWIDTH 7 0
BBX 7 8 0 0
BITMAP
00000880
00001680
04866470
3871D440
84409710
86118800
78085800
17788500
ENDCHAR
STARTCHAR uni2147
ENCODING 8519
SWIDTH 520 0
DWIDTH 6 0
BBX 6 6 0 0
BITMAP
027730
2C64D1
863664
887982
690060
067720
ENDCHAR
STARTCHAR uni2148
ENCODING 8520
SWIDTH 285 0
DWIDTH 3 0
BBX 4 8 0 0
BITMAP
0583
0781
0880
1680
4460
7530
8710
8800
ENDCHAR
STARTCHAR uni2149
ENCODING 8521
SWIDTH 284 0
DWIDTH 3 0
BBX 6 11 -2 -3
BITMAP
000583
000853
000781
000880
002680
005560
007520
007800
007800
039500
486000
ENDCHAR
STARTCHAR uni214A
ENCODING 8522
SWIDTH 680 0
DWIDTH 7 0
BBX 7 9 0 0
BITMAP
00110000
00740000
00740000
7CDCBA20
847403A0
537403A0
007CBA20
00740000
006CBB30
ENDCHAR
STARTCHAR uni214B
ENCODING 8523
SWIDTH 736 0
DWIDTH 8 0
BBX 8 8 0 0
BITMAP
2AB269B4
204E405C
0057C04A
02809881
18816E10
00082950
000A0750
00035600
ENDCHAR
STARTCHAR uni214C
ENCODING 8524
SWIDTH 794 0
DWIDTH 9 0
BBX 9 8 0 0
BITMAP
2770268400
70A3801F30
34C9B70E30
19A463C900
02B8A65400
00B2600500
00A3600000
0038100000
ENDCHAR
STARTCHAR uni214D
ENCODING 8525
SWIDTH 1010 0
DWIDTH 11 0
BBX 11 8 0 0
BITMAP
00A000007000
049600053000
082C00170100
274A40839670
64068453B110
000008004C40
0000620411A0
000050037630
ENDCHAR
STARTCHAR uni214E
ENCODING 8526
SWIDTH 473 0
DWIDTH 5 0
BBX 5 7 0 0
BITMAP
000100
000C20
000C20
1DDF20
000C20
000C20
5DDE20
ENDCHAR
STARTCHAR uni214F
ENCODING 8527
SWIDTH 1161 0
DWIDTH 13 0
BBX 13 5 0 0
BITMAP
02CA08D43D9000
06392A2991B000
05471A07728000
01B907B32A9000
AD8BDC9DD9AD70
ENDCHAR
STARTCHAR onethird
ENCODING 8531
SWIDTH 899 0
DWIDTH 10 0
BBX 10 9 0 0
BITMAP
0000007200
2B30018000
0930071000
0930172A90
09308140A2
29727000A1
00081009A1
0026000076
0080009771
ENDCHAR
STARTCHAR twothirds
ENCODING 8532
SWIDTH 948 0
DWIDTH 10 0
BBX 10 9 0 0
BITMAP
0000001800
39C4007200
0058018000
00840715B4
062617142A
7CC9811047
00027003B5
000810000D
0026002B66
ENDCHAR
STARTCHAR uni2155
ENCODING 8533
SWIDTH 867 0
DWIDTH 10 0
BBX 10 9 0 0
BITMAP
0000007200
3C30018000
0930071000
0930170000
0930816CB0
2972709C60
00081000B1
0026000080
008000B650
ENDCHAR
STARTCHAR uni2156
ENCODING 8534
SWIDTH 916 0
DWIDTH 10 0
BBX 10 9 0 0
BITMAP
0000001800
29C4007200
1058018000
01A2071000
2924170BC5
9CC9812CA2
0002700039
0008100008
0026005972
ENDCHAR
STARTCHAR uni2157
ENCODING 8535
SWIDTH 896 0
DWIDTH 10 0
BBX 10 9 0 0
BITMAP
0000004500
39C3009000
1082044000
06A4090000
1048542CC3
5861805C91
0006300075
0008000045
0063008870
ENDCHAR
STARTCHAR uni2158
ENCODING 8536
SWIDTH 929 0
DWIDTH 10 0
BBX 10 9 0 0
BITMAP
0000000800
0095006300
05A5008000
2675062000
7BDC280AD8
0021720CB3
000180002A
0007100009
0017004A63
ENDCHAR
STARTCHAR uni2159
ENCODING 8537
SWIDTH 871 0
DWIDTH 10 0
BBX 10 9 0 0
BITMAP
0000007200
3C30018000
0930071000
0930170130
0940815610
276271C970
000813A0B2
0026029093
0080008580
ENDCHAR
STARTCHAR uni215A
ENCODING 8538
SWIDTH 871 0
DWIDTH 10 0
BBX 10 9 0 0
BITMAP
0000007200
2DC3018000
5DA1072000
0066170450
3044718500
574271C970
000813A0B2
0027029093
0081008580
ENDCHAR
STARTCHAR oneeighth
ENCODING 8539
SWIDTH 887 0
DWIDTH 10 0
BBX 10 9 0 0
BITMAP
0000007200
3B30018000
0930071000
0930174660
093081B082
286270A780
0008104EA0
002600B1A5
0080008582
ENDCHAR
STARTCHAR threeeighths
ENCODING 8540
SWIDTH 911 0
DWIDTH 10 0
BBX 10 9 0 0
BITMAP
0000004500
39C3009000
1082044000
06A4092771
1048549246
5861806A72
0006302DD2
000800B179
0063006564
ENDCHAR
STARTCHAR fiveeighths
ENCODING 8541
SWIDTH 891 0
DWIDTH 10 0
BBX 10 9 0 0
BITMAP
0000007200
2DC3018000
5C91072000
0066174660
204471B073
6862709780
0008104EB1
002700C1A6
0081008572
ENDCHAR
STARTCHAR seveneighths
ENCODING 8542
SWIDTH 847 0
DWIDTH 9 0
BBX 9 9 0 0
BITMAP
0000017000
9CC7081000
3061270000
0180817720
0822665190
060803C730
003601BE40
00800844C0
0350047560
ENDCHAR
STARTCHAR uni2190
ENCODING 8592
SWIDTH 948 0
DWIDTH 10 0
BBX 10 5 0 0
BITMAP
0004000000
0181000000
1DEBBBBBB7
0181000000
0004000000
ENDCHAR
STARTCHAR uni2191
ENCODING 8593
SWIDTH 523 0
DWIDTH 6 0
BBX 5 9 0 -2
BITMAP
008400
05C920
138440
008400
008400
008400
008400
008400
008400
ENDCHAR
STARTCHAR uni2192
ENCODING 8594
SWIDTH 948 0
DWIDTH 10 0
BBX 10 5 0 0
BITMAP
0000001300
0000000640
2BBBBBBCF5
0000000640
0000001300
ENDCHAR
STARTCHAR uni2193
ENCODING 8595
SWIDTH 523 0
DWIDTH 6 0
BBX 5 9 0 -2
BITMAP
007400
007400
007400
007400
007400
007400
178570
02EC10
007400
ENDCHAR
STARTCHAR uni2194
ENCODING 8596
SWIDTH 948 0
DWIDTH 10 0
BBX 10 5 0 0
BITMAP
0032000400
0470000280
4FDBBBBBFA
0360000270
0032000400
ENDCHAR
STARTCHAR uni2195
ENCODING 8597
SWIDTH 523 0
DWIDTH 6 0
BBX 5 11 0 -3
BITMAP
003100
01DA00
168560
007400
007400
007400
007400
007400
178570
02EC10
007400
ENDCHAR
STARTCHAR uni2196
ENCODING 8598
SWIDTH 948 0
DWIDTH 10 0
BBX 10 9 0 -2
BITMAP
1E96100000
0AB1000000
052B100000
0103B10000
00003B1000
000003B100
0000004B10
00000004B0
0000000055
ENDCHAR
STARTCHAR uni2197
ENCODING 8599
SWIDTH 948 0
DWIDTH 10 0
BBX 10 9 0 -2
BITMAP
00000057D7
00000007B4
0000007723
0000078001
0000680000
0006900000
0069000000
06A0000000
1900000000
ENDCHAR
STARTCHAR uni2198
ENCODING 8600
SWIDTH 948 0
DWIDTH 10 0
BBX 10 10 0 -3
BITMAP
1B10000000
04B1000000
005B100000
0005B10000
00006B1000
000006B101
0000007B33
00000007E4
00000047D7
0000000001
ENDCHAR
STARTCHAR uni2199
ENCODING 8601
SWIDTH 948 0
DWIDTH 10 0
BBX 10 9 0 -2
BITMAP
0000000066
00000006A0
0000006A00
000006B000
00006B0000
0105B10000
065C100000
0CC1000000
1EA6100000
ENDCHAR
STARTCHAR uni219A
ENCODING 8602
SWIDTH 948 0
DWIDTH 10 0
BBX 10 5 0 0
BITMAP
0013000600
0280007300
2EEBBCDBB8
0280091000
0024260000
ENDCHAR
STARTCHAR uni219B
ENCODING 8603
SWIDTH 948 0
DWIDTH 10 0
BBX 10 5 0 0
BITMAP
0000150300
0000810550
4BBCDBBCF7
0009000460
0035000500
ENDCHAR
STARTCHAR uni219C
ENCODING 8604
SWIDTH 948 0
DWIDTH 10 0
BBX 10 4 0 1
BITMAP
1324200000
0DC203AB91
072ABA3046
0400000000
ENDCHAR
STARTCHAR uni219D
ENCODING 8605
SWIDTH 948 0
DWIDTH 10 0
BBX 10 4 0 1
BITMAP
0000004322
05BB6008F4
18117BB670
0000000040
ENDCHAR
STARTCHAR uni219E
ENCODING 8606
SWIDTH 948 0
DWIDTH 10 0
BBX 10 5 0 0
BITMAP
0004040000
0181730000
1DECFCBBB7
0181730000
0004040000
ENDCHAR
STARTCHAR uni219F
ENCODING 8607
SWIDTH 523 0
DWIDTH 6 0
BBX 5 9 0 -2
BITMAP
008400
04CA20
138440
02EC00
178570
008400
008400
008400
008400
ENDCHAR
STARTCHAR uni21A0
ENCODING 8608
SWIDTH 948 0
DWIDTH 10 0
BBX 10 5 0 0
BITMAP
0000311300
0000082640
2BBBBEECF5
0000081640
0000311300
ENDCHAR
STARTCHAR uni21A1
ENCODING 8609
SWIDTH 523 0
DWIDTH 6 0
BBX 5 9 0 -2
BITMAP
008400
008400
008400
008400
168560
01DA00
168570
03FD10
007400
ENDCHAR
STARTCHAR uni21A2
ENCODING 8610
SWIDTH 948 0
DWIDTH 10 0
BBX 10 5 0 0
BITMAP
0004000014
0181000180
1DEBBBBD70
0181000181
0004000013
ENDCHAR
STARTCHAR uni21A3
ENCODING 8611
SWIDTH 948 0
DWIDTH 10 0
BBX 10 5 0 0
BITMAP
1300001300
0550000640
00FBBBBCF5
0550000640
1300001300
ENDCHAR
STARTCHAR uni21A4
ENCODING 8612
SWIDTH 948 0
DWIDTH 10 0
BBX 10 5 0 0
BITMAP
0004000005
0181000008
1CEBBBBBB9
0190000008
0015000007
ENDCHAR
STARTCHAR uni21A5
ENCODING 8613
SWIDTH 523 0
DWIDTH 6 0
BBX 6 10 0 -2
BITMAP
001000
00A600
06A840
118420
008400
008400
008400
008400
008400
38A981
ENDCHAR
STARTCHAR uni21A6
ENCODING 8614
SWIDTH 948 0
DWIDTH 10 0
BBX 10 5 0 0
BITMAP
2300001300
3500000640
3DBBBBBCF5
3500000640
3500001400
ENDCHAR
STARTCHAR uni21A7
ENCODING 8615
SWIDTH 523 0
DWIDTH 6 0
BBX 6 10 0 -2
BITMAP
38A981
008400
008400
008400
008400
008400
228440
06CA40
00A600
001000
ENDCHAR
STARTCHAR uni21A8
ENCODING 8616
SWIDTH 523 0
DWIDTH 6 0
BBX 6 10 0 -2
BITMAP
001000
00A700
06A840
118420
008400
008400
248460
05DC20
009500
389881
ENDCHAR
STARTCHAR uni21A9
ENCODING 8617
SWIDTH 948 0
DWIDTH 10 0
BBX 10 6 0 0
BITMAP
0000003BA1
0004000048
0181000048
1DEBBBBB91
0181000000
0004000000
ENDCHAR
STARTCHAR uni21AA
ENCODING 8618
SWIDTH 948 0
DWIDTH 10 0
BBX 10 6 0 0
BITMAP
06B8000000
2A00001300
2B00000640
06BBBBBCF5
0000000640
0000001300
ENDCHAR
STARTCHAR uni21AB
ENCODING 8619
SWIDTH 948 0
DWIDTH 10 0
BBX 10 7 0 -1
BITMAP
0000004BA1
000400C148
018101B048
1DEBBBEB91
018101B000
000401B000
0000004000
ENDCHAR
STARTCHAR uni21AC
ENCODING 8620
SWIDTH 948 0
DWIDTH 10 0
BBX 10 7 0 -1
BITMAP
06B8000000
2A07501300
2B04700640
06BCDBBCF5
0004700640
0004701300
0001300000
ENDCHAR
STARTCHAR uni21AD
ENCODING 8621
SWIDTH 1229 0
DWIDTH 14 0
BBX 13 5 0 0
BITMAP
00120000003000
028001B6003600
2EDB383918BF90
02719802B43600
00120000003000
ENDCHAR
STARTCHAR uni21AE
ENCODING 8622
SWIDTH 948 0
DWIDTH 10 0
BBX 10 5 0 0
BITMAP
0022033400
0370091370
4FDBCDBBFA
0460720291
0042800500
ENDCHAR
STARTCHAR uni21AF
ENCODING 8623
SWIDTH 523 0
DWIDTH 6 0
BBX 5 10 0 -2
BITMAP
000080
000970
006A00
04C100
1CCCA0
000C20
327600
1AB000
0FA610
130000
ENDCHAR
STARTCHAR uni21B0
ENCODING 8624
SWIDTH 474 0
DWIDTH 5 0
BBX 5 10 0 -2
BITMAP
003100
047000
5FDBA0
0470B0
0031B0
0000B0
0000B0
0000B0
0000B0
000040
ENDCHAR
STARTCHAR uni21B1
ENCODING 8625
SWIDTH 474 0
DWIDTH 5 0
BBX 5 10 0 -2
BITMAP
004000
004600
7CCF80
834600
833000
830000
830000
830000
830000
310000
ENDCHAR
STARTCHAR uni21B2
ENCODING 8626
SWIDTH 474 0
DWIDTH 5 0
BBX 5 10 0 -2
BITMAP
000070
0000B0
0000B0
0000B0
0000B0
0031B0
0560B0
6FCB90
046000
003100
ENDCHAR
STARTCHAR uni21B3
ENCODING 8627
SWIDTH 474 0
DWIDTH 5 0
BBX 5 10 0 -2
BITMAP
520000
830000
830000
830000
830000
834000
835600
7BCF80
004600
003000
ENDCHAR
STARTCHAR uni21B4
ENCODING 8628
SWIDTH 948 0
DWIDTH 10 0
BBX 10 10 0 -2
BITMAP
2BBBBBBA00
0000000B00
0000000B00
0000000B00
0000000B00
0000000B00
0000030B03
0000028D81
0000002E10
0000000200
ENDCHAR
STARTCHAR uni21B5
ENCODING 8629
SWIDTH 948 0
DWIDTH 10 0
BBX 10 10 0 -2
BITMAP
0000000016
000000001A
000000001A
000000001A
000000001A
000300001A
018100001A
1DEBBBBBB8
0181000000
0004000000
ENDCHAR
STARTCHAR uni21B6
ENCODING 8630
SWIDTH 948 0
DWIDTH 10 0
BBX 10 7 0 -1
BITMAP
00007CC810
000B6005B1
0066000058
31B240000C
08E9100002
01D2000000
0020000000
ENDCHAR
STARTCHAR uni21B7
ENCODING 8631
SWIDTH 948 0
DWIDTH 10 0
BBX 10 7 0 -1
BITMAP
005BCA2000
079102B300
2A00001B00
6500013A24
1000005CB3
0000000B60
0000000200
ENDCHAR
STARTCHAR uni21B8
ENCODING 8632
SWIDTH 948 0
DWIDTH 10 0
BBX 10 10 0 -2
BITMAP
3BBBBBBBB7
3C85100000
0BA1000000
053B100000
0103B10000
00003B1000
000003B100
0000002B20
00000002B2
0000000025
ENDCHAR
STARTCHAR uni21B9
ENCODING 8633
SWIDTH 948 0
DWIDTH 10 0
BBX 10 9 0 -1
BITMAP
1000000000
5436000000
5AFCBBBBB8
5474000000
4305004107
0000000918
4BBBBBBEC9
0000002718
0000002003
ENDCHAR
STARTCHAR uni21BA
ENCODING 8634
SWIDTH 997 0
DWIDTH 11 0
BBX 9 9 1 -1
BITMAP
0000025610
02A30CD300
1C10035A10
7500005560
A100000290
9200000390
4900000A40
0891019800
005BCB4000
ENDCHAR
STARTCHAR uni21BB
ENCODING 8635
SWIDTH 997 0
DWIDTH 11 0
BBX 9 9 1 -1
BITMAP
2653000000
03DB04B200
1A62002C10
7450000660
A100000290
9300000390
4A00000A40
0891019800
005BCB4000
ENDCHAR
STARTCHAR uni21BC
ENCODING 8636
SWIDTH 978 0
DWIDTH 11 0
BBX 11 3 0 2
BITMAP
001700000000
01B100000000
1BDBBBBBBB20
ENDCHAR
STARTCHAR uni21BD
ENCODING 8637
SWIDTH 978 0
DWIDTH 11 0
BBX 11 3 0 0
BITMAP
1ADBBBBBBB10
01A100000000
001810000000
ENDCHAR
STARTCHAR uni21BE
ENCODING 8638
SWIDTH 523 0
DWIDTH 6 0
BBX 3 10 2 -2
BITMAP
1000
7300
8A30
8430
8400
8400
8400
8400
8400
8400
ENDCHAR
STARTCHAR uni21BF
ENCODING 8639
SWIDTH 523 0
DWIDTH 6 0
BBX 4 10 0 -2
BITMAP
0001
0074
05C4
1284
0084
0084
0084
0084
0084
0084
ENDCHAR
STARTCHAR uni21C0
ENCODING 8640
SWIDTH 978 0
DWIDTH 11 0
BBX 10 4 0 2
BITMAP
0000001000
0000002600
0000000480
4BBBBBBCD8
ENDCHAR
STARTCHAR uni21C1
ENCODING 8641
SWIDTH 978 0
DWIDTH 11 0
BBX 10 4 0 -1
BITMAP
4BBBBBBCD8
0000000480
0000002700
0000001000
ENDCHAR
STARTCHAR uni21C2
ENCODING 8642
SWIDTH 523 0
DWIDTH 6 0
BBX 3 10 2 -2
BITMAP
4200
8400
8400
8400
8400
8400
8400
8660
8900
5000
ENDCHAR
STARTCHAR uni21C3
ENCODING 8643
SWIDTH 523 0
DWIDTH 6 0
BBX 4 10 0 -2
BITMAP
0042
0084
0084
0084
0084
0084
0084
1684
01C4
0023
ENDCHAR
STARTCHAR uni21C4
ENCODING 8644
SWIDTH 948 0
DWIDTH 10 0
BBX 10 9 0 -1
BITMAP
0000001300
0000000740
1BBBBBBDF5
0000000650
0014001400
0191000000
1DEBBBBBB6
0181000000
0003000000
ENDCHAR
STARTCHAR uni21C5
ENCODING 8645
SWIDTH 791 0
DWIDTH 9 0
BBX 9 9 0 -2
BITMAP
01B1038000
07E7138000
31B0338000
00B0038000
00B0038000
00B0038000
00B0758720
00B01CF300
00B0037000
ENDCHAR
STARTCHAR uni21C6
ENCODING 8646
SWIDTH 948 0
DWIDTH 10 0
BBX 10 9 0 -1
BITMAP
0003000000
0181000000
1DEBBBBBB6
0290000000
0015001400
0000000650
1BBBBBBDF5
0000000740
0000001200
ENDCHAR
STARTCHAR uni21C7
ENCODING 8647
SWIDTH 948 0
DWIDTH 10 0
BBX 10 9 0 -1
BITMAP
0003000000
0181000000
1DEBBBBBB7
0191000000
0016000000
0191000000
1DEBBBBBB7
0181000000
0003000000
ENDCHAR
STARTCHAR uni21C8
ENCODING 8648
SWIDTH 791 0
DWIDTH 9 0
BBX 9 9 0 -2
BITMAP
00B1048000
06E73AC300
31B0438310
00B0038000
00B0038000
00B0038000
00B0038000
00B0038000
00B0038000
ENDCHAR
STARTCHAR uni21C9
ENCODING 8649
SWIDTH 948 0
DWIDTH 10 0
BBX 10 9 0 -1
BITMAP
0000001300
0000000740
2BBBBBBDF5
0000000650
0000001700
0000000740
2BBBBBBDF5
0000000740
0000001200
ENDCHAR
STARTCHAR uni21CA
ENCODING 8650
SWIDTH 791 0
DWIDTH 9 0
BBX 9 9 0 -2
BITMAP
00B0038000
00B0038000
00B0038000
00B0038000
00B0038000
00B0038000
34C4758610
06F80CE200
00A0037000
ENDCHAR
STARTCHAR uni21CB
ENCODING 8651
SWIDTH 948 0
DWIDTH 10 0
BBX 10 7 0 -1
BITMAP
0003000000
0072000000
08DBBBBBB7
0000000000
2BBBBBBCB3
0000000710
0000001200
ENDCHAR
STARTCHAR uni21CC
ENCODING 8652
SWIDTH 948 0
DWIDTH 10 0
BBX 10 7 0 -1
BITMAP
0000001200
0000000710
2BBBBBBBB2
0000000000
07CBBBBBB7
0062000000
0003000000
ENDCHAR
STARTCHAR uni21CD
ENCODING 8653
SWIDTH 948 0
DWIDTH 10 0
BBX 10 8 0 -1
BITMAP
0000000010
0001900081
002C200190
04DDBBBDC8
2E20000900
03CDBBDCB8
001B209000
0000635000
ENDCHAR
STARTCHAR uni21CE
ENCODING 8654
SWIDTH 948 0
DWIDTH 10 0
BBX 11 7 0 -1
BITMAP
000405410000
0077091C1000
09DCBDBDC200
8A0018004D10
07DCCCBDB200
004762290000
000230200000
ENDCHAR
STARTCHAR uni21CF
ENCODING 8655
SWIDTH 948 0
DWIDTH 10 0
BBX 10 8 0 -1
BITMAP
0000100000
0001855000
000630A600
4BBDBBCD80
00540000A7
4BDBBBCD70
045000A400
0800042000
ENDCHAR
STARTCHAR uni21D0
ENCODING 8656
SWIDTH 887 0
DWIDTH 10 0
BBX 10 7 0 -1
BITMAP
0000500000
001A300000
03BDBBBBB8
2E20000000
02BDBBBBB8
0009300000
0000500000
ENDCHAR
STARTCHAR uni21D1
ENCODING 8657
SWIDTH 720 0
DWIDTH 8 0
BBX 8 10 0 -3
BITMAP
00076000
00489300
02E34D10
18A34980
10834711
00834700
00834700
00834700
00834700
00211100
ENDCHAR
STARTCHAR uni21D2
ENCODING 8658
SWIDTH 887 0
DWIDTH 10 0
BBX 9 7 0 -1
BITMAP
0000140000
0000067000
BBBBBCDA10
00000006C0
BBBBBCDA10
0000067000
0000140000
ENDCHAR
STARTCHAR uni21D3
ENCODING 8659
SWIDTH 720 0
DWIDTH 8 0
BBX 8 10 0 -3
BITMAP
00623500
00834700
00834700
00834700
10834711
19A34980
03E34D10
00578400
00098000
00010000
ENDCHAR
STARTCHAR uni21D4
ENCODING 8660
SWIDTH 948 0
DWIDTH 10 0
BBX 11 7 0 -1
BITMAP
000200200000
004700290000
07DCBBBDB200
7A0000004D10
07DCBBBDB200
004700290000
000200200000
ENDCHAR
STARTCHAR uni21D5
ENCODING 8661
SWIDTH 720 0
DWIDTH 8 0
BBX 8 11 0 -3
BITMAP
00087000
00489300
03E34E20
27934871
00834700
00834700
25834762
05E34E40
00767500
000A9000
00010000
ENDCHAR
STARTCHAR uni21D6
ENCODING 8662
SWIDTH 948 0
DWIDTH 10 0
BBX 10 10 0 -2
BITMAP
1200000000
4CAD850000
2808800000
0F50870000
0AB5097000
061B409700
0101B40970
00001B4097
000001B403
0000001B10
ENDCHAR
ENDFONT
